<svg width="200" height="200" viewBox="0 0 200 200" fill="none" xmlns="http://www.w3.org/2000/svg">
<path d="M146.67 15.5833C109.382 7.20702 88.4771 6.41306 51.1887 15.5833C46.8436 42.6162 41.5893 52.2194 24 53.1556C24.327 84.6221 26.8643 100.693 36.2028 126.141C56.2723 156.759 69.4732 171.956 100 192C125.412 172.922 138.393 158.749 158.873 126.141C168.247 102.444 172.02 86.515 176 53.1556C157.228 49.1531 151.158 40.4156 146.67 15.5833Z" fill="url(#paint0_radial)" stroke="#045ED9" stroke-width="8"/>
<path d="M69 98.236L91.375 121.272C91.764 121.672 92.4056 121.676 92.8 121.281L137 77" stroke="#FEFDFA" stroke-width="6"/>
<defs>
<radialGradient id="paint0_radial" cx="0" cy="0" r="1" gradientUnits="userSpaceOnUse" gradientTransform="translate(39.8423 100.661) scale(120.315 101.667)">
<stop stop-color="#5EAEF8" stop-opacity="0.85"/>
<stop offset="0.991566" stop-color="#278FF0"/>
</radialGradient>
</defs>
</svg>
