<svg xmlns="http://www.w3.org/2000/svg" width="1455.602" height="1875.298" viewBox="0 0 1455.602 1875.298">
  <g id="award" transform="translate(-3.556 8.437)">
    <path id="Path_224" data-name="Path 224" d="M139.725,120.1a27.522,27.522,0,0,1-20.256-8.89A585.14,585.14,0,0,0,62.444,56.795,27.522,27.522,0,1,1,97.562,14.41a637.7,637.7,0,0,1,62.42,59.531A27.522,27.522,0,0,1,139.725,120.1Z" transform="translate(1104.888 151.326)" fill="#fff" stroke="#fff" stroke-linecap="round" stroke-width="1"/>
    <path id="Path_225" data-name="Path 225" d="M737.846,1456.55c-401.661,0-727.271-325.61-727.271-727.271S336.185,2.009,737.845,2.009a79.816,79.816,0,0,1,9.936.468,27.522,27.522,0,1,1-6.66,54.576,32.084,32.084,0,0,0-3.275,0C438.4,57.139,175.129,255.291,92.174,543.013s34.419,595.62,287.853,755.108,581.806,132.1,805.318-67.168S1473.6,708.6,1344.129,438.592a27.522,27.522,0,0,1,49.54-23.834A727.326,727.326,0,0,1,737.846,1456.55Z" transform="translate(-6.519 -9.937)" fill="#fff" stroke="#fff" stroke-linecap="round" stroke-width="1"/>
    <path id="Path_226" data-name="Path 226" d="M149.521,89a27.193,27.193,0,0,1-11.835-2.752,586.23,586.23,0,0,0-73.373-28.9,27.522,27.522,0,1,1,16.9-52.292,643.762,643.762,0,0,1,80.2,31.6,27.522,27.522,0,0,1-11.89,52.292Z" transform="translate(873.236 21.964)" fill="#fff" stroke="#fff" stroke-linecap="round" stroke-width="1"/>
    <path id="Path_227" data-name="Path 227" d="M549.512,1072.721c-293.745,0-531.846-238.11-531.836-531.827,0-293.7,238.11-531.8,531.827-531.791,293.7,0,531.8,238.11,531.79,531.827-.329,293.56-238.221,531.457-531.781,531.79Zm0-1008.656C286.186,64.064,72.735,277.5,72.72,540.8c0,263.327,213.438,476.777,476.737,476.792,263.327,0,476.777-213.438,476.792-476.737C1025.976,277.666,812.7,64.368,549.512,64.064Z" transform="translate(181.813 178.458)" fill="#fff" stroke="#fff" stroke-linecap="round" stroke-width="1"/>
    <path id="Path_228" data-name="Path 228" d="M263.509,605.669a22.675,22.675,0,0,1-20.16-12.291L41.284,201.218A22.677,22.677,0,1,1,81.6,180.447l178.393,346.2,56.69-155.127A22.676,22.676,0,0,1,343.9,357.456l159.1,43.81L337.479,79.584a22.7,22.7,0,1,1,41.225-19L567.188,426.528a22.676,22.676,0,0,1-26.168,32.2l-188.824-52L284.8,590.793a22.676,22.676,0,0,1-19.887,14.83C264.439,605.669,263.963,605.669,263.509,605.669Z" transform="translate(772.445 1259.77)" fill="#fff" stroke="#fff" stroke-linecap="round" stroke-width="1"/>
    <path id="Path_229" data-name="Path 229" d="M317.992,606.549h-1.406a22.676,22.676,0,0,1-19.887-14.83L229.306,407.657,40.482,459.608a22.676,22.676,0,0,1-26.168-32.2L203.342,60.373a22.676,22.676,0,0,1,43.2,9.433v.227a22.679,22.679,0,0,1-2.518,10.387L78.306,402.147l159.1-43.81A22.676,22.676,0,0,1,264.613,372.4L321.3,527.523l178.6-346.2A22.677,22.677,0,1,1,540.218,202.1L338.152,594.259a22.676,22.676,0,0,1-20.159,12.291Z" transform="translate(162.837 1259.811)" fill="#fff" stroke="#fff" stroke-linecap="round" stroke-width="1"/>
    <path id="Path_230" data-name="Path 230" d="M502.334,598.831a27.826,27.826,0,0,1-12.8-3.138L330.9,512.164,172.262,595.583a27.522,27.522,0,0,1-39.935-29.008L162.6,389.91,34.239,264.823A27.522,27.522,0,0,1,49.486,217.87l177.38-25.788,79.264-160.7a28.65,28.65,0,0,1,49.375,0l79.319,160.7L612.2,217.87a27.522,27.522,0,0,1,15.247,46.953L499.086,389.911l30.274,176.664a27.522,27.522,0,0,1-27.137,32.146ZM330.9,453.569a27.522,27.522,0,0,1,12.8,3.138l122.06,64.181L442.446,384.957a27.522,27.522,0,0,1,7.926-24.357l98.777-96.327L412.64,244.429a27.522,27.522,0,0,1-20.724-15.055L330.9,105.718,269.855,229.567a27.522,27.522,0,0,1-20.724,15.055L112.622,264.465,211.4,360.792a27.522,27.522,0,0,1,7.926,24.357L196.041,520.888l122.088-64.181A27.522,27.522,0,0,1,330.9,453.569Z" transform="translate(400.426 395.044)" fill="#fff" stroke="#fff" stroke-linecap="round" stroke-width="1"/>
  </g>
</svg>
