<svg xmlns="http://www.w3.org/2000/svg" width="37.96" height="49.835" viewBox="0 0 37.96 49.835">
  <g id="hourglass" transform="translate(-61)">
    <g id="Group_543" data-name="Group 543" transform="translate(61)">
      <path id="Path_610" data-name="Path 610" d="M87.83,19.74c3.3-3.012,7.772-7.086,8.18-16.82h2.95V0H61V2.92h2.95c.407,9.733,4.875,13.807,8.18,16.82C74.346,21.76,75.6,23,75.6,24.917s-1.254,3.157-3.47,5.178c-3.3,3.012-7.772,7.086-8.18,16.82H61v2.92H98.96v-2.92H96.01c-.407-9.733-4.875-13.807-8.18-16.82-2.216-2.021-3.47-3.258-3.47-5.178S85.614,21.76,87.83,19.74ZM78.52,35.861a7.382,7.382,0,0,0-1.331.408l-8.943,3.7A19.921,19.921,0,0,1,74.1,32.253c2.275-2.074,4.423-4.033,4.423-7.336Zm7.343-3.608a19.922,19.922,0,0,1,5.851,7.717l-8.943-3.7a7.383,7.383,0,0,0-1.331-.408V24.917C81.44,28.22,83.589,30.179,85.863,32.253ZM68.195,9.733A21.634,21.634,0,0,1,66.874,2.92H93.086a21.631,21.631,0,0,1-1.321,6.813Z" transform="translate(-61)" fill="#c4a83a"/>
    </g>
  </g>
</svg>
