<svg width="200" height="200" viewBox="0 0 200 200" fill="none" xmlns="http://www.w3.org/2000/svg">
<path fill-rule="evenodd" clip-rule="evenodd" d="M16.7492 33.8259H183.59C187.239 33.8259 188.263 33.8259 189.834 34.354C191.692 35.0326 193.163 36.5038 193.842 38.3606C194.371 39.9313 194.371 40.955 194.371 44.6033C194.371 54.7074 194.371 155.372 194.371 155.372C194.371 159.02 194.371 160.044 193.842 161.615C193.163 163.472 191.692 164.943 189.834 165.621C188.263 166.15 187.239 166.15 183.59 166.15C173.483 166.15 16.7492 166.15 16.7492 166.15C13.0998 166.15 12.0756 166.15 10.5046 165.621C8.64714 164.943 7.17555 163.472 6.49672 161.615C5.96841 160.044 5.96841 159.02 5.96841 155.372C5.96841 145.268 5.96841 44.6033 5.96841 44.6033C5.96841 40.955 5.96841 39.9313 6.49672 38.3606C7.17555 36.5038 8.64714 35.0326 10.5046 34.354C12.0756 33.8259 13.0998 33.8259 16.7492 33.8259Z" stroke="#E7E7E7" stroke-width="3"/>
<path fill-rule="evenodd" clip-rule="evenodd" d="M99.8508 37.7661C100.24 37.7661 100.555 38.0813 100.555 38.4702C100.555 38.8591 100.24 39.1743 99.8508 39.1743C99.4619 39.1743 99.1467 38.8591 99.1467 38.4702C99.1467 38.0813 99.4619 37.7661 99.8508 37.7661Z" fill="#F2F2F2"/>
<path d="M37.5 105L78 86L122 101L164.5 60" stroke="#44D2FF"/>
<rect x="30" y="126" width="14" height="37" fill="#7DBC13"/>
<rect x="115" y="126" width="14" height="37" fill="#FD6B6D"/>
<rect x="71" y="106" width="14" height="57" fill="#FFC33E"/>
<rect x="157" y="76" width="14" height="87" fill="#00C2CB"/>
<circle cx="37" cy="105" r="4" fill="#44D2FF"/>
<circle cx="78" cy="86" r="4" fill="#44D2FF"/>
<circle cx="122" cy="101" r="4" fill="#44D2FF"/>
<circle cx="164" cy="60" r="4" fill="#44D2FF"/>
</svg>
