<svg xmlns="http://www.w3.org/2000/svg" width="537" height="475" viewBox="0 0 537 475">
  <g id="like_1_" data-name="like (1)" transform="translate(12.5 -18.5)">
    <path id="Path_22818" data-name="Path 22818" d="M256,481a14.93,14.93,0,0,1-9.873-3.706c-21.826-19.087-42.583-36.782-62.109-53.423C73.817,329.96,0,267.909,0,177.514,0,93.988,59.037,31,136,31c60.659,0,99.6,42.378,120,80.537C276.4,73.378,315.341,31,376,31c76.963,0,136,62.988,136,146.514,0,90.4-73.817,152.446-184.018,246.357-19.526,16.641-40.283,34.336-62.109,53.423A14.93,14.93,0,0,1,256,481Z" fill="none" stroke="#fff" stroke-width="25"/>
  </g>
</svg>
