<svg width="1440" height="797" viewBox="0 0 1440 797" fill="none" xmlns="http://www.w3.org/2000/svg">
<g clip-path="url(#clip0)">
<rect width="1440" height="797" fill="#CAD9FF" fill-opacity="0.49"/>
<path d="M152 423.049C82 416.64 5.5 458.557 -24 480.317L-32 812H1471V500.791C1398 515.628 1417 448.271 1267 393.377C1117 338.482 1010 435.808 891 476.757C772 517.705 669.5 408.806 584 406.729C498.5 404.652 475 452.722 381 480.317C287 507.913 239.5 431.061 152 423.049Z" fill="white"/>
<path fill-rule="evenodd" clip-rule="evenodd" d="M17.3667 402.643C17.9324 398.4 21.8304 395.419 26.073 395.985L64.823 401.152C66.6853 401.4 68.394 402.316 69.6312 403.73L141.965 486.397C144.783 489.618 144.457 494.514 141.235 497.333C138.014 500.152 133.118 499.825 130.3 496.604L59.8855 416.131L24.0245 411.349C19.7818 410.783 16.801 406.886 17.3667 402.643Z" fill="#84390F"/>
<path fill-rule="evenodd" clip-rule="evenodd" d="M69.506 354.612C72.3438 354.911 74.4021 357.453 74.1034 360.291L68.9367 409.374C68.638 412.212 66.0954 414.27 63.2576 413.972C60.4198 413.673 58.3614 411.13 58.6602 408.293L63.8268 359.209C64.1255 356.371 66.6682 354.313 69.506 354.612Z" fill="#84390F"/>
<path d="M341.027 632.671C339.081 702.921 280.265 727.236 208.6 725.25C136.934 723.264 79.5553 695.729 81.5021 625.479C83.4489 555.23 143.124 499.891 214.79 501.877C286.456 503.863 342.974 562.422 341.027 632.671Z" fill="#D0F0F2"/>
<path fill-rule="evenodd" clip-rule="evenodd" d="M306.347 714.865C280.03 730.951 245.114 736.599 208.313 735.579C171.512 734.559 136.963 726.986 111.577 709.468C85.5465 691.504 70.1055 663.701 71.1726 625.193C73.2829 549.045 137.901 489.409 215.076 491.547C292.251 493.686 353.467 556.81 351.357 632.957C350.29 671.465 333.332 698.371 306.347 714.865ZM208.599 725.249C280.265 727.235 339.081 702.921 341.027 632.671C342.974 562.421 286.456 503.863 214.79 501.877C143.124 499.891 83.4488 555.229 81.502 625.479C79.5552 695.729 136.933 723.263 208.599 725.249Z" fill="#5290BD"/>
<path fill-rule="evenodd" clip-rule="evenodd" d="M132.332 554.177C136.06 558.498 135.579 565.023 131.258 568.751C125.323 573.872 119.722 583.995 116.807 597.498C113.944 610.766 113.958 626.088 117.989 640.485C119.528 645.98 116.321 651.683 110.825 653.222C105.329 654.76 99.627 651.553 98.0882 646.057C93.0777 628.163 93.0923 609.417 96.606 593.138C100.069 577.094 107.224 562.191 117.758 553.103C122.079 549.375 128.604 549.856 132.332 554.177Z" fill="#DFFDFF"/>
<path fill-rule="evenodd" clip-rule="evenodd" d="M195.375 724.574C253.723 719.864 298.01 693.472 299.695 632.67C301.485 568.069 253.834 513.354 190.429 503.428C198.341 502.185 206.485 501.645 214.79 501.875C286.456 503.861 342.975 562.42 341.028 632.67C339.081 702.919 280.266 727.234 208.6 725.248C204.133 725.124 199.721 724.901 195.375 724.574Z" fill="#A6E1E5"/>
<path d="M304.717 614.297C304.717 617.353 302.24 619.83 299.184 619.83C296.128 619.83 293.651 617.353 293.651 614.297C293.651 611.241 296.128 608.764 299.184 608.764C302.24 608.764 304.717 611.241 304.717 614.297Z" fill="#81CFD2"/>
<path d="M327.125 627.299C327.125 631.424 323.781 634.768 319.656 634.768C315.53 634.768 312.186 631.424 312.186 627.299C312.186 623.173 315.53 619.829 319.656 619.829C323.781 619.829 327.125 623.173 327.125 627.299Z" fill="#81CFD2"/>
<path d="M323.39 603.024C323.39 606.118 320.882 608.626 317.788 608.626C314.694 608.626 312.186 606.118 312.186 603.024C312.186 599.93 314.694 597.421 317.788 597.421C320.882 597.421 323.39 599.93 323.39 603.024Z" fill="#81CFD2"/>
<path d="M327.945 659.391C327.945 665.808 322.743 671.01 316.325 671.01C309.908 671.01 304.706 665.808 304.706 659.391C304.706 652.974 309.908 647.771 316.325 647.771C322.743 647.771 327.945 652.974 327.945 659.391Z" fill="#81CFD2"/>
<path d="M304.715 638.505C304.715 642.63 301.371 645.974 297.246 645.974C293.121 645.974 289.776 642.63 289.776 638.505C289.776 634.379 293.121 631.035 297.246 631.035C301.371 631.035 304.715 634.379 304.715 638.505Z" fill="#81CFD2"/>
<path d="M308.246 683.598C308.246 686.1 306.217 688.129 303.715 688.129C301.212 688.129 299.184 686.1 299.184 683.598C299.184 681.095 301.212 679.066 303.715 679.066C306.217 679.066 308.246 681.095 308.246 683.598Z" fill="#81CFD2"/>
<path d="M292.533 697.846C292.533 701.971 289.189 705.315 285.063 705.315C280.938 705.315 277.594 701.971 277.594 697.846C277.594 693.72 280.938 690.376 285.063 690.376C289.189 690.376 292.533 693.72 292.533 697.846Z" fill="#81CFD2"/>
<path d="M293.651 672.395C293.651 676.521 290.306 679.865 286.181 679.865C282.056 679.865 278.711 676.521 278.711 672.395C278.711 668.27 282.056 664.926 286.181 664.926C290.306 664.926 293.651 668.27 293.651 672.395Z" fill="#81CFD2"/>
<path d="M266.262 708.012C266.262 711.106 263.754 713.614 260.66 713.614C257.566 713.614 255.058 711.106 255.058 708.012C255.058 704.918 257.566 702.41 260.66 702.41C263.754 702.41 266.262 704.918 266.262 708.012Z" fill="#81CFD2"/>
<path d="M309.215 489.885C309.215 531.636 272.128 560.604 213.631 560.604C155.135 560.604 118.048 531.636 118.048 489.885C118.048 448.135 155.135 419.167 213.631 419.167C272.128 419.167 309.215 448.135 309.215 489.885Z" fill="#D0F0F2"/>
<path fill-rule="evenodd" clip-rule="evenodd" d="M289.566 549.162C270.736 563.311 244.471 570.937 213.631 570.937C182.792 570.937 156.527 563.311 137.696 549.162C118.633 534.838 107.715 514.154 107.715 489.885C107.715 465.616 118.633 444.933 137.696 430.608C156.527 416.459 182.792 408.833 213.631 408.833C244.471 408.833 270.736 416.459 289.566 430.608C308.63 444.933 319.548 465.616 319.548 489.885C319.548 514.154 308.63 534.838 289.566 549.162ZM213.631 560.604C272.127 560.604 309.215 531.636 309.215 489.885C309.215 448.135 272.127 419.167 213.631 419.167C155.135 419.167 118.048 448.135 118.048 489.885C118.048 531.636 155.135 560.604 213.631 560.604Z" fill="#5290BD"/>
<path fill-rule="evenodd" clip-rule="evenodd" d="M173.838 442.067C175.457 447.539 172.333 453.288 166.861 454.907C155.704 458.207 144.959 474.971 151.102 493.397C152.906 498.811 149.98 504.663 144.566 506.468C139.152 508.273 133.3 505.347 131.495 499.933C122.137 471.859 137.226 442.122 160.998 435.089C166.47 433.47 172.219 436.594 173.838 442.067Z" fill="#DFFDFF"/>
<path fill-rule="evenodd" clip-rule="evenodd" d="M192.965 559.309C239.39 553.253 267.882 526.479 267.882 489.885C267.882 453.292 239.39 426.518 192.965 420.462C199.507 419.608 206.406 419.167 213.632 419.167C272.128 419.167 309.215 448.135 309.215 489.885C309.215 531.636 272.128 560.604 213.632 560.604C206.406 560.604 199.507 560.162 192.965 559.309Z" fill="#A5E1E4"/>
<path d="M279.829 358.943C279.829 400.026 254.144 428.531 213.631 428.531C173.119 428.531 147.433 400.026 147.433 358.943C147.433 317.859 173.119 289.354 213.631 289.354C254.144 289.354 279.829 317.859 279.829 358.943Z" fill="#D0F0F2"/>
<path fill-rule="evenodd" clip-rule="evenodd" d="M269.464 416.207C255.816 430.778 236.424 438.864 213.631 438.864C190.838 438.864 171.447 430.778 157.799 416.207C144.219 401.71 137.1 381.632 137.1 358.943C137.1 336.253 144.219 316.176 157.799 301.678C171.447 287.107 190.838 279.021 213.631 279.021C236.424 279.021 255.816 287.107 269.464 301.678C283.044 316.176 290.163 336.253 290.163 358.943C290.163 381.632 283.044 401.71 269.464 416.207ZM213.631 428.531C254.144 428.531 279.829 400.026 279.829 358.943C279.829 317.859 254.144 289.354 213.631 289.354C173.119 289.354 147.433 317.859 147.433 358.943C147.433 400.026 173.119 428.531 213.631 428.531Z" fill="#5290BD"/>
<path fill-rule="evenodd" clip-rule="evenodd" d="M192.965 422.985C233.477 422.985 259.163 394.479 259.163 353.396C259.163 323.511 245.571 300.281 222.567 289.838C257.883 293.741 279.829 320.969 279.829 358.944C279.829 400.027 254.144 428.533 213.631 428.533C202.589 428.533 192.648 426.415 184.029 422.502C186.919 422.821 189.9 422.985 192.965 422.985Z" fill="#A5E1E4"/>
<path d="M239.522 338.377C241.274 345.307 237.174 352.321 230.365 354.042C223.557 355.763 216.617 351.539 214.865 344.609C213.114 337.679 217.213 330.665 224.022 328.944C230.831 327.223 237.771 331.447 239.522 338.377Z" fill="#074894"/>
<path fill-rule="evenodd" clip-rule="evenodd" d="M249.542 335.848C252.65 348.143 245.407 360.901 232.899 364.063C220.391 367.224 207.956 359.439 204.849 347.144C201.741 334.848 208.983 322.09 221.492 318.929C234 315.767 246.434 323.552 249.542 335.848ZM230.367 354.044C237.176 352.324 241.275 345.31 239.524 338.38C237.772 331.449 230.833 327.226 224.024 328.947C217.215 330.668 213.115 337.681 214.867 344.612C216.619 351.542 223.558 355.765 230.367 354.044Z" fill="#F7FFFF"/>
<path d="M196.997 339.933C195.894 346.006 190.352 350.085 184.618 349.043C178.885 348.002 175.131 342.235 176.234 336.163C177.337 330.09 182.879 326.011 188.612 327.053C194.346 328.094 198.1 333.861 196.997 339.933Z" fill="#074894"/>
<path fill-rule="evenodd" clip-rule="evenodd" d="M207.162 341.78C205.141 352.909 194.661 361.37 182.77 359.21C170.879 357.051 164.044 345.445 166.065 334.316C168.087 323.187 178.566 314.726 190.457 316.886C202.348 319.045 209.183 330.651 207.162 341.78ZM184.617 349.043C190.35 350.085 195.892 346.006 196.995 339.934C198.098 333.861 194.344 328.094 188.611 327.053C182.877 326.011 177.335 330.09 176.232 336.163C175.13 342.235 178.883 348.002 184.617 349.043Z" fill="#F7FFFF"/>
<path fill-rule="evenodd" clip-rule="evenodd" d="M375.497 377.975C381.127 378.913 384.929 384.237 383.991 389.867L376.241 436.367C375.794 439.052 374.305 441.451 372.099 443.045L279.099 510.212C274.472 513.553 268.013 512.511 264.671 507.885C261.33 503.258 262.372 496.799 266.998 493.458L356.554 428.778L363.606 386.469C364.544 380.84 369.868 377.037 375.497 377.975Z" fill="#5E2D18"/>
<path fill-rule="evenodd" clip-rule="evenodd" d="M358.298 439.833C358.298 435.553 361.768 432.083 366.048 432.083H412.548C416.828 432.083 420.298 435.553 420.298 439.833C420.298 444.113 416.828 447.583 412.548 447.583H366.048C361.768 447.583 358.298 444.113 358.298 439.833Z" fill="#5E2D18"/>
<path fill-rule="evenodd" clip-rule="evenodd" d="M367.485 393.699C368.888 393.958 369.816 395.305 369.558 396.708L362.776 433.52C362.658 434.164 362.299 434.739 361.773 435.128L310.752 472.91C309.606 473.759 307.988 473.517 307.139 472.371C306.29 471.224 306.531 469.607 307.677 468.757L357.88 431.582L364.476 395.772C364.735 394.369 366.082 393.441 367.485 393.699Z" fill="#AD6034"/>
<path d="M184.959 480.003C182.44 488.371 174.445 493.363 167.102 491.152C159.759 488.942 155.848 480.366 158.367 471.998C160.886 463.63 168.881 458.639 176.224 460.849C183.567 463.06 187.478 471.635 184.959 480.003Z" fill="#08DDAA"/>
<path fill-rule="evenodd" clip-rule="evenodd" d="M194.855 482.98C191.068 495.558 178.107 505.254 164.125 501.044C150.142 496.835 144.687 481.596 148.473 469.017C152.26 456.438 165.221 446.743 179.204 450.952C193.186 455.162 198.642 470.401 194.855 482.98ZM167.103 491.15C174.446 493.36 182.441 488.369 184.96 480.001C187.479 471.633 183.568 463.058 176.225 460.847C168.882 458.637 160.887 463.628 158.368 471.996C155.849 480.364 159.76 488.939 167.103 491.15Z" fill="#EEFEFF"/>
<path d="M161.082 608.527C160.595 617.252 153.993 623.979 146.336 623.551C138.679 623.123 132.867 615.704 133.355 606.978C133.842 598.253 140.444 591.527 148.101 591.954C155.757 592.382 161.569 599.802 161.082 608.527Z" fill="#08DDAA"/>
<path fill-rule="evenodd" clip-rule="evenodd" d="M171.4 609.103C170.667 622.219 160.34 634.682 145.76 633.868C131.181 633.054 122.305 619.518 123.038 606.402C123.77 593.286 134.097 580.823 148.677 581.637C163.257 582.451 172.132 595.987 171.4 609.103ZM146.336 623.551C153.993 623.979 160.595 617.252 161.082 608.527C161.57 599.802 155.758 592.382 148.101 591.954C140.444 591.527 133.842 598.253 133.355 606.978C132.868 615.704 138.68 623.123 146.336 623.551Z" fill="#EEFEFF"/>
<path d="M215.329 362.649C209.127 352.05 198.451 354.758 193.706 357.449C174.174 370.068 147.462 392.641 142.337 396.616C135.083 402.242 140.049 407.72 145.299 406.685C150.298 405.701 190.046 395.918 214.476 382.299C218.91 379.827 221.069 372.461 215.329 362.649Z" fill="#E58B04"/>
<path fill-rule="evenodd" clip-rule="evenodd" d="M191.027 353.029L191.157 352.955C194.164 351.25 199.043 349.503 204.369 349.914C210.025 350.351 215.797 353.22 219.788 360.041C226.162 370.936 225.184 382.245 216.991 386.813C204.307 393.884 187.858 399.859 174.147 404.161C160.412 408.469 149.035 411.216 146.297 411.755C141.901 412.622 136.778 410.913 134.526 406.496C131.917 401.38 134.584 396.09 139.17 392.534C140.089 391.821 141.833 390.4 144.191 388.478C154.116 380.391 174.924 363.433 190.902 353.11L191.027 353.029ZM193.706 357.45C198.451 354.758 209.127 352.051 215.328 362.65C221.069 372.461 218.91 379.828 214.475 382.3C190.045 395.919 150.297 405.701 145.299 406.686C140.049 407.72 135.082 402.242 142.337 396.616C143.351 395.83 145.211 394.314 147.694 392.292C157.755 384.096 178.04 367.571 193.706 357.45Z" fill="#B36013"/>
<path fill-rule="evenodd" clip-rule="evenodd" d="M194.869 358.983C195.727 360.123 195.498 361.743 194.358 362.601L148.33 397.236C147.19 398.094 145.571 397.865 144.713 396.725C143.855 395.585 144.084 393.966 145.224 393.108L191.251 358.472C192.391 357.615 194.011 357.843 194.869 358.983Z" fill="#FFB444"/>
<path fill-rule="evenodd" clip-rule="evenodd" d="M188.824 355.676C189.732 354.574 191.36 354.417 192.461 355.324C197.472 359.451 207.221 371.746 207.947 389.163C208.007 390.588 206.899 391.792 205.474 391.852C204.048 391.911 202.845 390.804 202.785 389.378C202.132 373.707 193.289 362.699 189.176 359.312C188.075 358.405 187.917 356.777 188.824 355.676Z" fill="#8E4808"/>
<path fill-rule="evenodd" clip-rule="evenodd" d="M170.029 369.96C170.96 368.879 172.591 368.758 173.672 369.69C178.127 373.528 186.749 384.516 185.717 398.316C185.611 399.739 184.371 400.806 182.948 400.7C181.525 400.593 180.458 399.354 180.565 397.931C181.428 386.382 174.071 376.854 170.299 373.603C169.219 372.672 169.097 371.041 170.029 369.96Z" fill="#8E4808"/>
<path fill-rule="evenodd" clip-rule="evenodd" d="M151.099 384.877C152.032 383.798 153.663 383.68 154.742 384.613C158.135 387.547 164.67 395.912 163.847 406.493C163.737 407.915 162.494 408.979 161.072 408.868C159.649 408.758 158.586 407.515 158.696 406.093C159.344 397.756 154.062 390.855 151.363 388.521C150.284 387.588 150.165 385.956 151.099 384.877Z" fill="#8E4808"/>
<path d="M1216.79 632.083C1216.79 628.724 1219.33 626 1222.47 626H1256.53C1259.67 626 1262.21 628.724 1262.21 632.083V696.84C1262.21 698.237 1261.74 699.593 1260.66 700.362C1258.12 702.156 1252.05 705.083 1239.5 705.083C1226.95 705.083 1220.88 702.156 1218.34 700.362C1217.26 699.593 1216.79 698.237 1216.79 696.84V632.083Z" fill="#884723"/>
<path fill-rule="evenodd" clip-rule="evenodd" d="M1222.47 613.833H1256.53C1265.94 613.833 1273.56 622.004 1273.56 632.083V696.84C1273.56 700.814 1272.2 706.776 1266.91 710.518C1262.08 713.931 1253.69 717.25 1239.5 717.25C1225.31 717.25 1216.92 713.931 1212.09 710.518C1206.8 706.776 1205.44 700.814 1205.44 696.84V632.083C1205.44 622.004 1213.06 613.833 1222.47 613.833ZM1222.47 626C1219.33 626 1216.79 628.723 1216.79 632.083V696.84C1216.79 698.237 1217.26 699.593 1218.34 700.362C1220.88 702.155 1226.95 705.083 1239.5 705.083C1252.05 705.083 1258.12 702.155 1260.66 700.362C1261.74 699.593 1262.21 698.237 1262.21 696.84V632.083C1262.21 628.723 1259.67 626 1256.53 626H1222.47Z" fill="#602606"/>
<path fill-rule="evenodd" clip-rule="evenodd" d="M1222.65 653.375C1225.78 653.375 1228.32 656.099 1228.32 659.458V695.578C1228.32 698.938 1225.78 701.661 1222.65 701.661C1219.51 701.661 1216.97 698.938 1216.97 695.578V659.458C1216.97 656.099 1219.51 653.375 1222.65 653.375Z" fill="#9C5A36"/>
<path d="M1091.9 632.104C1126.95 603.789 1210.58 474.799 1248.02 413.844C1298.41 508.226 1373.09 598.677 1404.14 632.104C1277.05 698.172 1143.02 659.632 1091.9 632.104Z" fill="#6DB859"/>
<path fill-rule="evenodd" clip-rule="evenodd" d="M1248.37 401.683C1252.31 401.815 1255.91 404.131 1257.87 407.801C1307.61 500.945 1381.56 590.547 1412.18 623.522C1414.77 626.309 1415.94 630.263 1415.33 634.139C1414.72 638.015 1412.39 641.334 1409.09 643.05C1277.79 711.308 1139.89 671.563 1086.8 642.975C1083.29 641.086 1080.94 637.389 1080.59 633.199C1080.23 629.009 1081.93 624.92 1085.06 622.388C1092.7 616.216 1103.79 603.799 1117.12 586.799C1130.27 570.039 1145.03 549.576 1159.94 527.978C1189.75 484.793 1219.9 437.496 1238.53 407.156C1240.7 403.623 1244.43 401.551 1248.37 401.683ZM1091.9 632.104C1095.35 633.963 1099.18 635.873 1103.36 637.798C1159.32 663.545 1278.04 691.906 1393.18 637.533C1396.84 635.808 1400.49 633.999 1404.14 632.104C1401.62 629.399 1398.83 626.321 1395.78 622.898C1362.73 585.768 1300.3 508.025 1254.4 425.558C1252.24 421.663 1250.1 417.757 1248.02 413.844C1245.83 417.4 1243.49 421.188 1241.01 425.174C1204.4 484.027 1137.61 586.063 1101.22 623.433C1097.83 626.913 1094.71 629.832 1091.9 632.104Z" fill="#3B8327"/>
<path fill-rule="evenodd" clip-rule="evenodd" d="M1228.53 667.871C1282.27 671.212 1343.98 663.377 1404.14 632.104C1373.09 598.677 1298.41 508.226 1248.02 413.844C1241.37 424.671 1233.26 437.644 1224.23 451.819C1272.41 531.666 1331.88 603.201 1358.72 632.104C1314.92 654.873 1270.3 665.218 1228.53 667.871Z" fill="#58A245"/>
<path d="M1336.26 624.218C1336.26 627.558 1333.59 630.265 1330.29 630.265C1326.99 630.265 1324.32 627.558 1324.32 624.218C1324.32 620.878 1326.99 618.17 1330.29 618.17C1333.59 618.17 1336.26 620.878 1336.26 624.218Z" fill="#458634"/>
<path d="M1320.63 609.723C1320.63 611.756 1319 613.404 1317 613.404C1314.99 613.404 1313.36 611.756 1313.36 609.723C1313.36 607.69 1314.99 606.042 1317 606.042C1319 606.042 1320.63 607.69 1320.63 609.723Z" fill="#458634"/>
<path d="M1273.52 621.851C1273.52 623.884 1271.89 625.532 1269.88 625.532C1267.87 625.532 1266.24 623.884 1266.24 621.851C1266.24 619.818 1267.87 618.17 1269.88 618.17C1271.89 618.17 1273.52 619.818 1273.52 621.851Z" fill="#458634"/>
<path d="M1246.77 650.474C1246.77 652.507 1245.14 654.155 1243.14 654.155C1241.13 654.155 1239.5 652.507 1239.5 650.474C1239.5 648.441 1241.13 646.793 1243.14 646.793C1245.14 646.793 1246.77 648.441 1246.77 650.474Z" fill="#458634"/>
<path d="M1302.41 624.218C1302.41 627.558 1299.73 630.265 1296.43 630.265C1293.13 630.265 1290.46 627.558 1290.46 624.218C1290.46 620.878 1293.13 618.17 1296.43 618.17C1299.73 618.17 1302.41 620.878 1302.41 624.218Z" fill="#458634"/>
<path d="M1281.83 650.475C1281.83 653.815 1279.15 656.523 1275.85 656.523C1272.55 656.523 1269.88 653.815 1269.88 650.475C1269.88 647.135 1272.55 644.428 1275.85 644.428C1279.15 644.428 1281.83 647.135 1281.83 650.475Z" fill="#458634"/>
<path d="M1364.88 606.041C1364.88 608.257 1363.11 610.053 1360.92 610.053C1358.73 610.053 1356.96 608.257 1356.96 606.041C1356.96 603.825 1358.73 602.029 1360.92 602.029C1363.11 602.029 1364.88 603.825 1364.88 606.041Z" fill="#458634"/>
<path d="M1348.38 592.149C1348.38 597.208 1344.33 601.309 1339.34 601.309C1334.34 601.309 1330.29 597.208 1330.29 592.149C1330.29 587.09 1334.34 582.989 1339.34 582.989C1344.33 582.989 1348.38 587.09 1348.38 592.149Z" fill="#458634"/>
<path d="M1372.51 626.153C1372.51 631.212 1368.46 635.313 1363.46 635.313C1358.47 635.313 1354.42 631.212 1354.42 626.153C1354.42 621.094 1358.47 616.993 1363.46 616.993C1368.46 616.993 1372.51 621.094 1372.51 626.153Z" fill="#458634"/>
<path d="M1322.41 641.314C1322.41 646.373 1318.36 650.474 1313.36 650.474C1308.36 650.474 1304.31 646.373 1304.31 641.314C1304.31 636.255 1308.36 632.154 1313.36 632.154C1318.36 632.154 1322.41 636.255 1322.41 641.314Z" fill="#458634"/>
<path fill-rule="evenodd" clip-rule="evenodd" d="M1188.87 528.578C1191.66 530.115 1192.76 533.783 1191.33 536.77C1170.54 580.088 1138.52 619.625 1125 634.102C1122.79 636.478 1119.19 636.478 1116.98 634.102C1114.76 631.727 1114.76 627.875 1116.98 625.499C1129.96 611.588 1161.14 573.055 1181.23 531.206C1182.66 528.218 1186.09 527.042 1188.87 528.578Z" fill="#7BD264"/>
<path d="M1116.73 525.664C1144.62 503.265 1211.14 401.229 1240.92 353.01C1281.01 427.671 1340.41 499.221 1365.11 525.664C1264.01 577.926 1157.4 547.44 1116.73 525.664Z" fill="#72CC52"/>
<path fill-rule="evenodd" clip-rule="evenodd" d="M1241.27 340.85C1245.21 340.981 1248.8 343.287 1250.76 346.943C1290.18 420.364 1348.86 491.067 1373.13 517.058C1375.73 519.845 1376.91 523.809 1376.3 527.696C1375.69 531.582 1373.35 534.909 1370.04 536.622C1264.75 591.052 1154.29 559.375 1111.66 536.547C1108.14 534.662 1105.78 530.957 1105.42 526.756C1105.07 522.555 1106.77 518.458 1109.92 515.928C1115.77 511.232 1124.44 501.606 1135.04 488.165C1145.46 474.962 1157.16 458.821 1169.01 441.758C1192.69 407.642 1216.65 370.269 1231.45 346.296C1233.62 342.779 1237.34 340.718 1241.27 340.85ZM1116.73 525.664C1120.13 527.485 1123.99 529.366 1128.27 531.255C1173.33 551.14 1264.84 571.849 1354.09 531.029C1357.76 529.347 1361.44 527.56 1365.11 525.664C1362.64 523.027 1359.84 519.941 1356.74 516.448C1330.38 486.744 1282.92 427.603 1247.34 364.65C1245.15 360.782 1243.01 356.901 1240.92 353.01C1238.76 356.501 1236.42 360.274 1233.9 364.279C1205.11 410.169 1154.78 486.453 1125.97 516.917C1122.57 520.513 1119.46 523.47 1116.73 525.664Z" fill="#3B8327"/>
<path fill-rule="evenodd" clip-rule="evenodd" d="M1173.78 546.268C1225.15 558.481 1296.4 561.183 1365.1 525.664C1340.41 499.221 1281.01 427.671 1240.92 353.01C1236.36 360.384 1230.95 369.016 1224.95 378.429C1263.12 441.002 1309.86 496.893 1331.04 519.58C1276.48 547.786 1220.32 551.89 1173.78 546.268Z" fill="#5DA744"/>
<path d="M1303.18 515.597C1303.18 518.322 1300.99 520.531 1298.3 520.531C1295.61 520.531 1293.43 518.322 1293.43 515.597C1293.43 512.872 1295.61 510.663 1298.3 510.663C1300.99 510.663 1303.18 512.872 1303.18 515.597Z" fill="#4A9736"/>
<path d="M1290.42 503.772C1290.42 505.431 1289.09 506.775 1287.46 506.775C1285.82 506.775 1284.49 505.431 1284.49 503.772C1284.49 502.113 1285.82 500.769 1287.46 500.769C1289.09 500.769 1290.42 502.113 1290.42 503.772Z" fill="#4A9736"/>
<path d="M1251.98 513.666C1251.98 515.325 1250.65 516.669 1249.01 516.669C1247.38 516.669 1246.05 515.325 1246.05 513.666C1246.05 512.008 1247.38 510.663 1249.01 510.663C1250.65 510.663 1251.98 512.008 1251.98 513.666Z" fill="#4A9736"/>
<path d="M1230.16 537.022C1230.16 538.681 1228.83 540.025 1227.19 540.025C1225.56 540.025 1224.23 538.681 1224.23 537.022C1224.23 535.364 1225.56 534.019 1227.19 534.019C1228.83 534.019 1230.16 535.364 1230.16 537.022Z" fill="#4A9736"/>
<path d="M1275.55 515.597C1275.55 518.322 1273.37 520.531 1270.68 520.531C1267.99 520.531 1265.8 518.322 1265.8 515.597C1265.8 512.872 1267.99 510.663 1270.68 510.663C1273.37 510.663 1275.55 512.872 1275.55 515.597Z" fill="#4A9736"/>
<path d="M1258.76 537.02C1258.76 539.745 1256.58 541.954 1253.89 541.954C1251.2 541.954 1249.01 539.745 1249.01 537.02C1249.01 534.295 1251.2 532.086 1253.89 532.086C1256.58 532.086 1258.76 534.295 1258.76 537.02Z" fill="#4A9736"/>
<path d="M1326.53 500.769C1326.53 502.576 1325.08 504.042 1323.29 504.042C1321.51 504.042 1320.06 502.576 1320.06 500.769C1320.06 498.961 1321.51 497.496 1323.29 497.496C1325.08 497.496 1326.53 498.961 1326.53 500.769Z" fill="#4A9736"/>
<path d="M1313.07 489.434C1313.07 493.561 1309.76 496.907 1305.68 496.907C1301.61 496.907 1298.3 493.561 1298.3 489.434C1298.3 485.306 1301.61 481.96 1305.68 481.96C1309.76 481.96 1313.07 485.306 1313.07 489.434Z" fill="#4A9736"/>
<path d="M1332.75 517.177C1332.75 521.304 1329.45 524.65 1325.37 524.65C1321.29 524.65 1317.99 521.304 1317.99 517.177C1317.99 513.05 1321.29 509.704 1325.37 509.704C1329.45 509.704 1332.75 513.05 1332.75 517.177Z" fill="#4A9736"/>
<path d="M1291.87 529.546C1291.87 533.674 1288.57 537.02 1284.49 537.02C1280.41 537.02 1277.11 533.674 1277.11 529.546C1277.11 525.419 1280.41 522.073 1284.49 522.073C1288.57 522.073 1291.87 525.419 1291.87 529.546Z" fill="#4A9736"/>
<path fill-rule="evenodd" clip-rule="evenodd" d="M1215.06 422.56C1217.85 424.096 1218.94 427.764 1217.51 430.752C1196.72 474.069 1164.7 513.606 1151.19 528.083C1148.97 530.459 1145.38 530.459 1143.16 528.083C1140.94 525.708 1140.94 521.856 1143.16 519.48C1156.14 505.569 1187.33 467.036 1207.41 425.187C1208.85 422.199 1212.27 421.023 1215.06 422.56Z" fill="#8BF26F"/>
<path d="M1141.57 411.943C1164.28 393.693 1218.45 310.554 1242.69 271.266C1275.34 332.099 1323.71 390.398 1343.82 411.943C1261.5 454.526 1174.69 429.686 1141.57 411.943Z" fill="#82E360"/>
<path fill-rule="evenodd" clip-rule="evenodd" d="M1243.05 259.105C1246.98 259.237 1250.57 261.543 1252.54 265.201C1284.51 324.794 1332.16 382.245 1351.84 403.34C1354.45 406.126 1355.63 410.09 1355.01 413.975C1354.4 417.86 1352.06 421.186 1348.75 422.899C1262.24 467.653 1171.57 441.62 1136.49 422.825C1132.97 420.939 1130.62 417.235 1130.26 413.035C1129.91 408.836 1131.61 404.739 1134.76 402.209C1139.31 398.551 1146.24 390.884 1154.87 379.937C1163.31 369.229 1172.81 356.118 1182.44 342.234C1201.7 314.478 1221.18 284.062 1233.22 264.555C1235.39 261.035 1239.11 258.973 1243.05 259.105ZM1141.57 411.943C1144.9 413.729 1148.78 415.587 1153.15 417.442C1190.18 433.181 1262.16 448.624 1332.76 417.255C1336.45 415.614 1340.14 413.846 1343.82 411.943C1341.41 409.369 1338.61 406.27 1335.47 402.706C1314.05 378.337 1277.28 332.181 1249.13 282.877C1246.93 279.023 1244.78 275.149 1242.69 271.266C1240.57 274.706 1238.22 278.483 1235.68 282.523C1212.58 319.251 1173.92 377.738 1150.67 403.113C1147.28 406.82 1144.21 409.82 1141.57 411.943Z" fill="#3B8327"/>
<path fill-rule="evenodd" clip-rule="evenodd" d="M1170.18 423.754C1212.21 437.299 1279.39 445.27 1343.82 411.943C1323.71 390.398 1275.34 332.099 1242.69 271.266C1239.74 276.05 1236.34 281.484 1232.61 287.373C1264.06 339.754 1303.47 386.955 1321.11 405.859C1267.3 433.694 1211.57 432.721 1170.18 423.754Z" fill="#70CA4F"/>
<path d="M1301.3 403.469C1301.3 405.496 1299.68 407.139 1297.67 407.139C1295.67 407.139 1294.05 405.496 1294.05 403.469C1294.05 401.443 1295.67 399.8 1297.67 399.8C1299.68 399.8 1301.3 401.443 1301.3 403.469Z" fill="#5CA848"/>
<path d="M1291.82 394.676C1291.82 395.909 1290.83 396.909 1289.61 396.909C1288.39 396.909 1287.4 395.909 1287.4 394.676C1287.4 393.442 1288.39 392.442 1289.61 392.442C1290.83 392.442 1291.82 393.442 1291.82 394.676Z" fill="#5CA848"/>
<path d="M1263.23 402.033C1263.23 403.267 1262.24 404.267 1261.02 404.267C1259.8 404.267 1258.81 403.267 1258.81 402.033C1258.81 400.8 1259.8 399.8 1261.02 399.8C1262.24 399.8 1263.23 400.8 1263.23 402.033Z" fill="#5CA848"/>
<path d="M1247 419.401C1247 420.635 1246.01 421.635 1244.79 421.635C1243.58 421.635 1242.59 420.635 1242.59 419.401C1242.59 418.168 1243.58 417.168 1244.79 417.168C1246.01 417.168 1247 418.168 1247 419.401Z" fill="#5CA848"/>
<path d="M1280.76 403.469C1280.76 405.496 1279.13 407.139 1277.13 407.139C1275.13 407.139 1273.51 405.496 1273.51 403.469C1273.51 401.443 1275.13 399.8 1277.13 399.8C1279.13 399.8 1280.76 401.443 1280.76 403.469Z" fill="#5CA848"/>
<path d="M1268.27 419.402C1268.27 421.429 1266.65 423.072 1264.65 423.072C1262.64 423.072 1261.02 421.429 1261.02 419.402C1261.02 417.376 1262.64 415.733 1264.65 415.733C1266.65 415.733 1268.27 417.376 1268.27 419.402Z" fill="#5CA848"/>
<path d="M1318.67 392.444C1318.67 393.788 1317.59 394.878 1316.26 394.878C1314.93 394.878 1313.86 393.788 1313.86 392.444C1313.86 391.099 1314.93 390.01 1316.26 390.01C1317.59 390.01 1318.67 391.099 1318.67 392.444Z" fill="#5CA848"/>
<path d="M1308.65 384.013C1308.65 387.082 1306.2 389.57 1303.16 389.57C1300.13 389.57 1297.67 387.082 1297.67 384.013C1297.67 380.943 1300.13 378.455 1303.16 378.455C1306.2 378.455 1308.65 380.943 1308.65 384.013Z" fill="#5CA848"/>
<path d="M1323.29 404.645C1323.29 407.714 1320.84 410.202 1317.8 410.202C1314.77 410.202 1312.31 407.714 1312.31 404.645C1312.31 401.575 1314.77 399.087 1317.8 399.087C1320.84 399.087 1323.29 401.575 1323.29 404.645Z" fill="#5CA848"/>
<path d="M1292.89 413.844C1292.89 416.914 1290.44 419.402 1287.4 419.402C1284.37 419.402 1281.91 416.914 1281.91 413.844C1281.91 410.775 1284.37 408.286 1287.4 408.286C1290.44 408.286 1292.89 410.775 1292.89 413.844Z" fill="#5CA848"/>
<path fill-rule="evenodd" clip-rule="evenodd" d="M1239.56 302.414C1242.35 303.95 1243.45 307.618 1242.01 310.606C1221.22 353.923 1189.2 393.46 1175.69 407.937C1173.47 410.313 1169.88 410.313 1167.66 407.937C1165.45 405.562 1165.45 401.71 1167.66 399.334C1180.65 385.423 1211.83 346.89 1231.91 305.041C1233.35 302.053 1236.77 300.877 1239.56 302.414Z" fill="#C4FFB0"/>
<path d="M1308.54 423.073C1308.54 434.235 1300.1 443.283 1289.68 443.283C1279.26 443.283 1270.82 434.235 1270.82 423.073C1270.82 411.911 1279.26 402.862 1289.68 402.862C1300.1 402.862 1308.54 411.911 1308.54 423.073Z" fill="#ED3333"/>
<path fill-rule="evenodd" clip-rule="evenodd" d="M1319.89 423.073C1319.89 440.954 1306.37 455.45 1289.68 455.45C1272.99 455.45 1259.46 440.954 1259.46 423.073C1259.46 405.191 1272.99 390.696 1289.68 390.696C1306.37 390.696 1319.89 405.191 1319.89 423.073ZM1289.68 443.283C1300.1 443.283 1308.54 434.235 1308.54 423.073C1308.54 411.911 1300.1 402.862 1289.68 402.862C1279.26 402.862 1270.82 411.911 1270.82 423.073C1270.82 434.235 1279.26 443.283 1289.68 443.283Z" fill="#9D0C0C"/>
<path d="M1207.34 381.176C1207.34 389.818 1200.81 396.823 1192.74 396.823C1184.68 396.823 1178.14 389.818 1178.14 381.176C1178.14 372.533 1184.68 365.528 1192.74 365.528C1200.81 365.528 1207.34 372.533 1207.34 381.176Z" fill="#ED3333"/>
<path fill-rule="evenodd" clip-rule="evenodd" d="M1218.7 381.175C1218.7 396.537 1207.08 408.99 1192.74 408.99C1178.41 408.99 1166.78 396.537 1166.78 381.175C1166.78 365.814 1178.41 353.361 1192.74 353.361C1207.08 353.361 1218.7 365.814 1218.7 381.175ZM1192.74 396.823C1200.81 396.823 1207.34 389.818 1207.34 381.175C1207.34 372.533 1200.81 365.528 1192.74 365.528C1184.68 365.528 1178.14 372.533 1178.14 381.175C1178.14 389.818 1184.68 396.823 1192.74 396.823Z" fill="#9D0C0C"/>
<path d="M1197 481.96C1197 493.122 1188.56 502.171 1178.14 502.171C1167.72 502.171 1159.28 493.122 1159.28 481.96C1159.28 470.799 1167.72 461.75 1178.14 461.75C1188.56 461.75 1197 470.799 1197 481.96Z" fill="#ED3333"/>
<path fill-rule="evenodd" clip-rule="evenodd" d="M1208.35 481.96C1208.35 499.842 1194.83 514.337 1178.14 514.337C1161.45 514.337 1147.92 499.842 1147.92 481.96C1147.92 464.079 1161.45 449.583 1178.14 449.583C1194.83 449.583 1208.35 464.079 1208.35 481.96ZM1178.14 502.171C1188.56 502.171 1197 493.122 1197 481.96C1197 470.798 1188.56 461.75 1178.14 461.75C1167.72 461.75 1159.28 470.798 1159.28 481.96C1159.28 493.122 1167.72 502.171 1178.14 502.171Z" fill="#9D0C0C"/>
<path d="M1344.41 541.214C1344.41 554.767 1334.16 565.755 1321.51 565.755C1308.86 565.755 1298.6 554.767 1298.6 541.214C1298.6 527.66 1308.86 516.672 1321.51 516.672C1334.16 516.672 1344.41 527.66 1344.41 541.214Z" fill="#ED3333"/>
<path fill-rule="evenodd" clip-rule="evenodd" d="M1355.76 541.214C1355.76 561.487 1340.43 577.921 1321.51 577.921C1302.59 577.921 1287.25 561.487 1287.25 541.214C1287.25 520.94 1302.59 504.506 1321.51 504.506C1340.43 504.506 1355.76 520.94 1355.76 541.214ZM1321.51 565.755C1334.16 565.755 1344.41 554.767 1344.41 541.214C1344.41 527.66 1334.16 516.672 1321.51 516.672C1308.86 516.672 1298.6 527.66 1298.6 541.214C1298.6 554.767 1308.86 565.755 1321.51 565.755Z" fill="#9D0C0C"/>
<path d="M1273.78 630.111C1273.78 641.273 1265.33 650.321 1254.92 650.321C1244.5 650.321 1236.06 641.273 1236.06 630.111C1236.06 618.949 1244.5 609.9 1254.92 609.9C1265.33 609.9 1273.78 618.949 1273.78 630.111Z" fill="#ED3333"/>
<path fill-rule="evenodd" clip-rule="evenodd" d="M1285.13 630.111C1285.13 647.992 1271.61 662.488 1254.92 662.488C1238.23 662.488 1224.7 647.992 1224.7 630.111C1224.7 612.23 1238.23 597.734 1254.92 597.734C1271.61 597.734 1285.13 612.23 1285.13 630.111ZM1254.92 650.321C1265.33 650.321 1273.78 641.273 1273.78 630.111C1273.78 618.949 1265.33 609.901 1254.92 609.901C1244.5 609.901 1236.06 618.949 1236.06 630.111C1236.06 641.273 1244.5 650.321 1254.92 650.321Z" fill="#9D0C0C"/>
<path d="M1154.45 595.773C1154.45 606.935 1146.01 615.984 1135.59 615.984C1125.18 615.984 1116.73 606.935 1116.73 595.773C1116.73 584.612 1125.18 575.563 1135.59 575.563C1146.01 575.563 1154.45 584.612 1154.45 595.773Z" fill="#ED3333"/>
<path fill-rule="evenodd" clip-rule="evenodd" d="M1165.81 595.774C1165.81 613.655 1152.28 628.151 1135.59 628.151C1118.91 628.151 1105.38 613.655 1105.38 595.774C1105.38 577.892 1118.91 563.396 1135.59 563.396C1152.28 563.396 1165.81 577.892 1165.81 595.774ZM1135.59 615.984C1146.01 615.984 1154.45 606.935 1154.45 595.774C1154.45 584.612 1146.01 575.563 1135.59 575.563C1125.18 575.563 1116.73 584.612 1116.73 595.774C1116.73 606.935 1125.18 615.984 1135.59 615.984Z" fill="#9D0C0C"/>
<path d="M1279.74 327.204C1279.74 335.177 1273.71 341.64 1266.27 341.64C1258.83 341.64 1252.8 335.177 1252.8 327.204C1252.8 319.231 1258.83 312.768 1266.27 312.768C1273.71 312.768 1279.74 319.231 1279.74 327.204Z" fill="#ED3333"/>
<path fill-rule="evenodd" clip-rule="evenodd" d="M1291.1 327.204C1291.1 341.896 1279.98 353.806 1266.27 353.806C1252.56 353.806 1241.45 341.896 1241.45 327.204C1241.45 312.512 1252.56 300.601 1266.27 300.601C1279.98 300.601 1291.1 312.512 1291.1 327.204ZM1266.27 341.64C1273.71 341.64 1279.74 335.177 1279.74 327.204C1279.74 319.231 1273.71 312.768 1266.27 312.768C1258.83 312.768 1252.8 319.231 1252.8 327.204C1252.8 335.177 1258.83 341.64 1266.27 341.64Z" fill="#9D0C0C"/>
<path d="M1289.68 408.601C1289.68 412.425 1286.79 415.525 1283.22 415.525C1279.65 415.525 1276.76 412.425 1276.76 408.601C1276.76 404.777 1279.65 401.677 1283.22 401.677C1286.79 401.677 1289.68 404.777 1289.68 408.601Z" fill="#FF8989"/>
<path d="M1192.74 371.721C1192.74 375.545 1189.85 378.645 1186.28 378.645C1182.71 378.645 1179.82 375.545 1179.82 371.721C1179.82 367.897 1182.71 364.797 1186.28 364.797C1189.85 364.797 1192.74 367.897 1192.74 371.721Z" fill="#FF8989"/>
<path d="M1268.67 316.591C1268.67 320.415 1265.78 323.515 1262.21 323.515C1258.64 323.515 1255.75 320.415 1255.75 316.591C1255.75 312.767 1258.64 309.667 1262.21 309.667C1265.78 309.667 1268.67 312.767 1268.67 316.591Z" fill="#FF8989"/>
<path d="M1178.14 468.953C1178.14 472.777 1175.25 475.877 1171.68 475.877C1168.11 475.877 1165.22 472.777 1165.22 468.953C1165.22 465.129 1168.11 462.029 1171.68 462.029C1175.25 462.029 1178.14 465.129 1178.14 468.953Z" fill="#FF8989"/>
<path d="M1321.51 526.195C1321.51 531.13 1317.77 535.13 1313.17 535.13C1308.56 535.13 1304.83 531.13 1304.83 526.195C1304.83 521.261 1308.56 517.26 1313.17 517.26C1317.77 517.26 1321.51 521.261 1321.51 526.195Z" fill="#FF8989"/>
<path d="M1254.92 626.68C1254.92 630.504 1252.03 633.604 1248.46 633.604C1244.89 633.604 1242 630.504 1242 626.68C1242 622.856 1244.89 619.756 1248.46 619.756C1252.03 619.756 1254.92 622.856 1254.92 626.68Z" fill="#FF8989"/>
<path d="M1133.22 578.774C1133.22 582.598 1130.32 585.698 1126.75 585.698C1123.19 585.698 1120.29 582.598 1120.29 578.774C1120.29 574.95 1123.19 571.85 1126.75 571.85C1130.32 571.85 1133.22 574.95 1133.22 578.774Z" fill="#FF8989"/>
<path d="M1216.81 246.258L1233.76 242.678L1238.88 233.517L1244.01 224.355L1254.07 242.795L1270.98 246.568L1257.37 261.196L1260.66 279.597L1243.78 270.309L1226.8 279.403L1230.28 261.041L1216.81 246.258Z" fill="#FFE24B"/>
<path fill-rule="evenodd" clip-rule="evenodd" d="M1233.76 242.678L1244.01 224.355L1254.07 242.794L1270.98 246.567L1257.37 261.195L1260.66 279.597L1243.78 270.309L1226.8 279.403L1230.28 261.041L1216.81 246.258L1233.76 242.678ZM1224.12 262.987L1212.75 250.508C1211.29 248.91 1210.77 246.585 1211.39 244.452C1212.01 242.319 1213.67 240.721 1215.71 240.289L1230.19 237.232L1239.14 221.227C1240.17 219.384 1242.03 218.26 1244.04 218.271C1246.04 218.283 1247.89 219.428 1248.91 221.283L1257.7 237.39L1272.14 240.612C1274.18 241.067 1275.82 242.684 1276.42 244.824C1277.02 246.964 1276.47 249.282 1275 250.864L1263.51 263.212L1266.24 278.45C1266.65 280.735 1265.8 283.07 1264.07 284.465C1262.33 285.86 1260 286.071 1258.07 285.008L1243.74 277.128L1229.34 284.844C1227.4 285.885 1225.08 285.647 1223.35 284.232C1221.63 282.817 1220.81 280.473 1221.24 278.193L1224.12 262.987Z" fill="#D97D11"/>
</g>
<defs>
<clipPath id="clip0">
<rect width="1440" height="797" fill="white"/>
</clipPath>
</defs>
</svg>
