<svg id="percentage" xmlns="http://www.w3.org/2000/svg" width="20.041" height="20.024" viewBox="0 0 20.041 20.024">
  <g id="Group_364" data-name="Group 364">
    <g id="Group_363" data-name="Group 363">
      <path id="Path_22283" data-name="Path 22283" d="M11.761.216,14.52,2.975,0,17.883,2.357,20.24,16.975,5.43,20.041,8.5V.216Z" transform="translate(0 -0.216)" fill="#fff"/>
    </g>
  </g>
  <g id="Group_366" data-name="Group 366" transform="translate(10.482 11.157)">
    <g id="Group_365" data-name="Group 365">
      <path id="Path_22284" data-name="Path 22284" d="M272.032,285.251a4.244,4.244,0,1,0,4.244,4.244A4.248,4.248,0,0,0,272.032,285.251Zm0,6.131a1.887,1.887,0,1,1,1.887-1.887A1.89,1.89,0,0,1,272.032,291.382Z" transform="translate(-267.788 -285.251)" fill="#fff"/>
    </g>
  </g>
  <g id="Group_368" data-name="Group 368" transform="translate(0.662 0.362)">
    <g id="Group_367" data-name="Group 367">
      <path id="Path_22285" data-name="Path 22285" d="M21.149,9.466a4.244,4.244,0,1,0,4.243,4.244A4.248,4.248,0,0,0,21.149,9.466Zm0,6.131a1.887,1.887,0,1,1,1.887-1.887A1.89,1.89,0,0,1,21.149,15.6Z" transform="translate(-16.905 -9.466)" fill="#fff"/>
    </g>
  </g>
</svg>
