<svg width="200" height="200" viewBox="0 0 200 200" fill="none" xmlns="http://www.w3.org/2000/svg">
<rect x="9" y="25.2486" width="179.422" height="148.902" rx="3" fill="#FCEBE6"/>
<path d="M9 28.2486C9 26.5917 10.3431 25.2486 12 25.2486H185.422C187.079 25.2486 188.422 26.5917 188.422 28.2486V48.37H9V28.2486Z" fill="#F42626" fill-opacity="0.89"/>
<rect x="39.5203" y="16" width="10.1734" height="20.3468" rx="3" fill="#998B6E"/>
<rect x="146.803" y="16" width="10.1734" height="20.3468" rx="3" fill="#998B6E"/>
<rect x="45.9943" y="75.1907" width="13.8728" height="13.8728" fill="#6EA5C9"/>
<rect x="68.1908" y="75.1907" width="13.8728" height="13.8728" fill="#6EA5C9"/>
<rect x="90.3873" y="75.1907" width="13.8728" height="13.8728" fill="#6EA5C9"/>
<rect x="112.584" y="75.1907" width="13.8728" height="13.8728" fill="#6EA5C9"/>
<rect x="134.78" y="75.1907" width="13.8728" height="13.8728" fill="#C4C4C4"/>
<rect x="25.6473" y="75.1907" width="13.8728" height="13.8728" fill="#6EA5C9"/>
<rect x="156.977" y="75.1907" width="13.8728" height="13.8728" fill="#C4C4C4"/>
<rect x="45.9943" y="96.4624" width="13.8728" height="13.8728" fill="#6EA5C9"/>
<rect x="68.1908" y="96.4624" width="13.8728" height="13.8728" fill="#6EA5C9"/>
<rect x="90.3873" y="96.4624" width="13.8728" height="13.8728" fill="#C4C4C4"/>
<rect x="112.584" y="96.4624" width="13.8728" height="13.8728" fill="#C4C4C4"/>
<rect x="134.78" y="96.4624" width="13.8728" height="13.8728" fill="#C4C4C4"/>
<rect x="25.6473" y="96.4624" width="13.8728" height="13.8728" fill="#6EA5C9"/>
<rect x="156.977" y="96.4624" width="13.8728" height="13.8728" fill="#C4C4C4"/>
<rect x="45.9943" y="117.734" width="13.8728" height="13.8728" fill="#C4C4C4"/>
<rect x="68.1908" y="117.734" width="13.8728" height="13.8728" fill="#C4C4C4"/>
<rect x="90.3873" y="117.734" width="13.8728" height="13.8728" fill="#C4C4C4"/>
<rect x="112.584" y="117.734" width="13.8728" height="13.8728" fill="#C4C4C4"/>
<rect x="134.78" y="117.734" width="13.8728" height="13.8728" fill="#C4C4C4"/>
<rect x="25.6473" y="117.734" width="13.8728" height="13.8728" fill="#C4C4C4"/>
<rect x="156.977" y="117.734" width="13.8728" height="13.8728" fill="#C4C4C4"/>
<rect x="45.9943" y="139.006" width="13.8728" height="13.8728" fill="#C4C4C4"/>
<rect x="68.1908" y="139.006" width="13.8728" height="13.8728" fill="#C4C4C4"/>
<rect x="90.3873" y="139.006" width="13.8728" height="13.8728" fill="#C4C4C4"/>
<rect x="112.584" y="139.006" width="13.8728" height="13.8728" fill="#C4C4C4"/>
<rect x="134.78" y="139.006" width="13.8728" height="13.8728" fill="#C4C4C4"/>
<rect x="25.6473" y="139.006" width="13.8728" height="13.8728" fill="#C4C4C4"/>
<rect x="156.977" y="139.006" width="13.8728" height="13.8728" fill="#C4C4C4"/>
</svg>
