<svg width="136" height="337" viewBox="0 0 136 337" fill="none" xmlns="http://www.w3.org/2000/svg">
<path d="M104.088 199.41L135.697 216.247V194.931C135.77 192.271 135.201 189.632 134.036 187.239L120.384 161.264C117.445 155.676 111.084 154.685 104.084 158.724L104.088 199.41Z" fill="url(#paint0_linear)"/>
<path d="M32.608 199.41L1.00004 216.247V194.931C0.927535 192.271 1.4973 189.632 2.66106 187.239L16.3121 161.264C19.2511 155.676 25.612 154.685 32.612 158.724L32.608 199.41Z" fill="url(#paint1_linear)"/>
<path style="mix-blend-mode:screen" d="M85.1471 271.452C85.1471 289.338 77.6241 336.161 68.3471 336.161C59.0701 336.161 51.5471 289.339 51.5471 271.452C51.5471 255.706 59.0681 251.913 68.3471 251.913C77.6261 251.913 85.1471 255.706 85.1471 271.452Z" fill="url(#paint2_linear)"/>
<path style="mix-blend-mode:screen" d="M84.2512 271.234C84.2512 288.697 77.1301 335.07 68.3511 335.07C59.5721 335.07 52.4512 288.697 52.4512 271.234C52.4512 255.863 59.5721 252.159 68.3511 252.159C77.1301 252.159 84.2512 255.863 84.2512 271.234Z" fill="url(#paint3_linear)"/>
<path style="mix-blend-mode:screen" d="M83.3542 271.017C83.3542 288.053 76.6352 333.98 68.3542 333.98C60.0732 333.98 53.3481 288.054 53.3481 271.017C53.3481 256.017 60.0672 252.407 68.3542 252.407C76.6412 252.407 83.3542 256.019 83.3542 271.017Z" fill="url(#paint4_linear)"/>
<path style="mix-blend-mode:screen" d="M82.4581 270.799C82.4581 287.41 76.1401 332.89 68.3491 332.89C60.5581 332.89 54.2391 287.41 54.2391 270.799C54.2391 256.177 60.5561 252.653 68.3491 252.653C76.1421 252.653 82.4581 256.172 82.4581 270.799Z" fill="url(#paint5_linear)"/>
<path style="mix-blend-mode:screen" d="M81.5601 270.582C81.5601 286.768 75.6441 331.8 68.3491 331.8C61.0541 331.8 55.1361 286.769 55.1361 270.582C55.1361 256.334 61.0511 252.901 68.3491 252.901C75.6471 252.901 81.5601 256.334 81.5601 270.582Z" fill="url(#paint6_linear)"/>
<path style="mix-blend-mode:screen" d="M80.6641 270.365C80.6641 286.126 75.1481 330.71 68.3491 330.71C61.5501 330.71 56.0331 286.125 56.0331 270.365C56.0331 256.491 61.5471 253.148 68.3501 253.148C75.1531 253.148 80.6641 256.49 80.6641 270.365Z" fill="url(#paint7_linear)"/>
<path style="mix-blend-mode:screen" d="M79.7662 270.147C79.7662 285.483 74.6522 329.619 68.3492 329.619C62.0462 329.619 56.9302 285.483 56.9302 270.147C56.9302 256.647 62.0422 253.393 68.3492 253.393C74.6562 253.393 79.7662 256.647 79.7662 270.147Z" fill="url(#paint8_linear)"/>
<path style="mix-blend-mode:screen" d="M78.8731 269.929C78.8731 284.84 74.1611 328.529 68.3521 328.529C62.5431 328.529 57.8291 284.839 57.8291 269.929C57.8291 256.803 62.5411 253.641 68.3521 253.641C74.1631 253.641 78.8731 256.803 78.8731 269.929Z" fill="url(#paint9_linear)"/>
<path style="mix-blend-mode:screen" d="M77.9731 269.712C77.9731 284.198 73.6631 327.44 68.3491 327.44C63.0351 327.44 58.7241 284.198 58.7241 269.712C58.7241 256.961 63.0331 253.887 68.3491 253.887C73.6651 253.887 77.9731 256.961 77.9731 269.712Z" fill="url(#paint10_linear)"/>
<path style="mix-blend-mode:screen" d="M77.0752 269.494C77.0752 283.551 73.1682 326.351 68.3492 326.351C63.5302 326.351 59.6222 283.557 59.6222 269.496C59.6222 257.12 63.5282 254.137 68.3492 254.137C73.1702 254.137 77.0752 257.119 77.0752 269.494Z" fill="url(#paint11_linear)"/>
<path style="mix-blend-mode:screen" d="M76.1791 269.276C76.1791 282.912 72.6721 325.259 68.3491 325.259C64.0261 325.259 60.5181 282.912 60.5181 269.276C60.5181 257.276 64.0231 254.381 68.3491 254.381C72.6751 254.381 76.1791 257.274 76.1791 269.276Z" fill="url(#paint12_linear)"/>
<path style="mix-blend-mode:screen" d="M75.282 269.059C75.282 282.27 72.1751 324.169 68.3481 324.169C64.5211 324.169 61.4141 282.269 61.4141 269.059C61.4141 257.432 64.5141 254.629 68.3481 254.629C72.1821 254.629 75.282 257.432 75.282 269.059Z" fill="url(#paint13_linear)"/>
<path d="M83.3981 246.476H53.2981V250.723H53.3031C53.3031 250.764 53.2981 250.803 53.2981 250.843C53.2981 255.684 60.0381 259.608 68.3501 259.608C76.6621 259.608 83.3991 255.684 83.3991 250.843C83.3991 250.804 83.3991 250.764 83.3931 250.723H83.3991L83.3981 246.476Z" fill="url(#paint14_linear)"/>
<path d="M104.294 208.83H32.4021V230.189H32.4151C32.4151 230.289 32.4021 230.389 32.4021 230.479C32.4021 242.039 48.4931 251.411 68.3491 251.411C88.2051 251.411 104.294 242.039 104.294 230.479C104.294 230.379 104.284 230.287 104.284 230.189H104.294V208.83Z" fill="url(#paint15_linear)"/>
<g style="mix-blend-mode:multiply" opacity="0.5">
<path d="M104.294 209.58H32.4021V226.611H32.4151C32.4151 226.688 32.4021 226.764 32.4021 226.841C32.4021 236.061 48.4931 243.531 68.3491 243.531C88.2051 243.531 104.294 236.061 104.294 226.841C104.294 226.764 104.284 226.688 104.284 226.611H104.294V209.58Z" fill="#C7BCD6"/>
</g>
<path d="M124.55 138.126C128.195 107.657 121.138 76.662 103.713 51.408C102.98 50.3413 102.233 49.29 101.474 48.254L68.3482 2.87598L35.2221 48.254C34.4608 49.2946 33.7141 50.346 32.9821 51.408C15.5571 76.661 8.50015 107.657 12.1451 138.126L20.6032 208.881H20.6191C20.6191 209.009 20.6032 209.137 20.6032 209.265C20.6032 224.621 41.9801 237.065 68.3491 237.065C94.7181 237.065 116.092 224.617 116.092 209.265C116.092 209.137 116.079 209.009 116.074 208.881H116.092L124.55 138.126Z" fill="url(#paint16_linear)"/>
<path d="M101.475 48.254L68.3491 2.87598L35.2221 48.254C35.0351 48.508 34.8611 48.769 34.6791 49.024C40.4101 56.535 53.3241 61.775 68.3501 61.775C83.3761 61.775 96.2881 56.535 102.019 49.024C101.831 48.77 101.661 48.509 101.475 48.254Z" fill="url(#paint17_linear)"/>
<path opacity="0.3" d="M101.475 48.254L68.3491 2.87598L35.2221 48.254C35.0351 48.508 34.8611 48.769 34.6791 49.024C40.4101 56.535 53.3241 61.775 68.3501 61.775C83.3761 61.775 96.2881 56.535 102.019 49.024C101.831 48.77 101.661 48.509 101.475 48.254Z" fill="url(#paint18_linear)"/>
<path style="mix-blend-mode:color-dodge" opacity="0.7" d="M90.7852 98.804C81.2932 60.668 61.6242 16.745 66.2962 14.623C74.5232 10.888 108.888 53.67 118.38 91.809C126.735 125.381 117.306 208.975 108.624 211.136C99.9422 213.297 99.1402 132.378 90.7852 98.804Z" fill="url(#paint19_radial)"/>
<path d="M61.1191 156.924C61.1191 163.524 58.8431 168.198 55.1401 170.461C55.0281 170.528 51.5821 172.716 51.4691 172.777C47.6161 174.932 50.0791 170.045 44.2301 166.666C32.4541 159.866 22.9091 143.406 22.9091 129.895C22.9091 123.216 16.7341 123.163 20.5161 120.931C20.6161 120.869 24.8081 118.566 24.9161 118.509C28.7581 116.426 34.0081 116.809 39.7981 120.152C51.5711 126.949 61.1191 143.412 61.1191 156.924Z" fill="url(#paint20_linear)"/>
<path d="M56.9101 159.412C56.9101 172.923 47.3651 178.365 35.5921 171.568C23.8191 164.771 14.2721 148.309 14.2721 134.796C14.2721 121.283 23.8171 115.845 35.5921 122.642C47.3671 129.439 56.9101 145.903 56.9101 159.412Z" fill="url(#paint21_linear)"/>
<path d="M52.9022 157.098C52.9022 168.069 45.1512 172.49 35.5922 166.971C26.0332 161.452 18.2802 148.08 18.2802 137.111C18.2802 126.142 26.0312 121.721 35.5922 127.24C45.1532 132.759 52.9022 146.13 52.9022 157.098Z" fill="url(#paint22_linear)"/>
<path style="mix-blend-mode:screen" d="M49.3051 151.624C49.3051 159.882 43.4711 163.207 36.2751 159.055C29.0791 154.903 23.2491 144.839 23.2491 136.583C23.2491 128.327 29.0801 125.003 36.2741 129.157C43.4681 133.311 49.3051 143.369 49.3051 151.624Z" fill="url(#paint23_linear)"/>
<path d="M38.9962 165.542C29.4352 160.023 21.6862 146.653 21.6862 135.682C21.6862 130.622 23.3342 126.964 26.0482 125.023C21.3682 125.878 18.2811 130.189 18.2811 137.111C18.2811 148.08 26.0321 161.45 35.5931 166.971C40.7481 169.943 45.3692 170.028 48.5432 167.755C45.8052 168.258 42.5252 167.577 38.9962 165.542Z" fill="url(#paint24_linear)"/>
<path style="mix-blend-mode:color-dodge" d="M36.2171 122.1C30.5731 118.844 24.7341 119.062 22.0281 120.341C25.5841 119.346 30.6081 119.947 35.3871 122.706C47.1621 129.506 56.7051 145.967 56.7051 159.478C56.7051 166.51 53.5001 171.493 49.3591 173.562C53.7031 171.955 57.5351 166.901 57.5351 158.871C57.5351 145.362 47.9891 128.899 36.2171 122.1Z" fill="url(#paint25_radial)"/>
<g style="mix-blend-mode:color-dodge">
<path d="M48.2801 101.33C59.6801 55.545 83.2861 2.81895 77.6801 0.271951C67.8041 -4.21205 28.9491 47.572 17.5551 93.352C7.52505 133.652 12.2721 181.052 22.7031 183.644C33.1341 186.236 38.2511 141.632 48.2801 101.33Z" fill="url(#paint26_radial)" style="mix-blend-mode:lighten"/>
</g>
<path d="M32.959 228.629L7.80096 276.807L2.70996 273.807V253.405C2.7569 250.274 3.29303 247.17 4.29895 244.205L17.364 204.265C20.178 195.671 26.2639 187.693 32.9639 183.827L37.842 186.785L32.959 228.629Z" fill="url(#paint27_linear)"/>
<path d="M38.0469 231.633L7.8009 276.808V256.408C7.84577 253.277 8.38124 250.173 9.38788 247.208L22.4529 207.267C25.2639 198.667 31.3529 190.695 38.0469 186.827V231.633Z" fill="url(#paint28_linear)"/>
<path style="mix-blend-mode:color-dodge" d="M8.24298 256.963C8.2888 253.832 8.82496 250.728 9.83197 247.763L22.899 207.823C25.585 199.611 31.262 191.972 37.599 187.934V186.715C30.899 190.581 24.818 198.557 22.005 207.153L8.94299 247.1C7.93542 250.065 7.39925 253.169 7.354 256.3V276.7L8.24298 275.372V256.963Z" fill="url(#paint29_radial)"/>
<path d="M103.74 228.629L128.899 276.807L133.987 273.807V253.405C133.941 250.274 133.405 247.17 132.398 244.205L119.332 204.265C116.521 195.671 110.432 187.693 103.74 183.827L98.8489 186.785L103.74 228.629Z" fill="url(#paint30_linear)"/>
<path d="M98.6489 231.633L128.898 276.808V256.408C128.853 253.277 128.316 250.172 127.308 247.208L114.243 207.269C111.432 198.669 105.343 190.697 98.6489 186.829V231.633Z" fill="url(#paint31_linear)"/>
<path style="mix-blend-mode:color-dodge" d="M127.975 247.21L114.909 207.269C112.098 198.669 106.009 190.697 99.3149 186.829V187.09C105.374 191.229 110.739 198.607 113.325 206.521L126.39 246.458C127.398 249.422 127.934 252.527 127.98 255.658V274.441L129.564 276.807V256.407C129.517 253.277 128.981 250.174 127.975 247.21V247.21Z" fill="url(#paint32_radial)"/>
<defs>
<linearGradient id="paint0_linear" x1="115.277" y1="188.594" x2="203.079" y2="181.282" gradientUnits="userSpaceOnUse">
<stop offset="0.035" stop-color="#6B24D6"/>
<stop offset="0.294" stop-color="#7733DC"/>
<stop offset="0.794" stop-color="#965BEC"/>
<stop offset="1" stop-color="#A56EF4"/>
</linearGradient>
<linearGradient id="paint1_linear" x1="-490.384" y1="198.792" x2="-386.019" y2="192.294" gradientUnits="userSpaceOnUse">
<stop offset="0.035" stop-color="#6B24D6"/>
<stop offset="0.294" stop-color="#7733DC"/>
<stop offset="0.794" stop-color="#965BEC"/>
<stop offset="1" stop-color="#A56EF4"/>
</linearGradient>
<linearGradient id="paint2_linear" x1="68.3471" y1="262.865" x2="68.3471" y2="321.081" gradientUnits="userSpaceOnUse">
<stop stop-color="#F8299A"/>
<stop offset="0.102" stop-color="#C8217C"/>
<stop offset="0.231" stop-color="#94185C"/>
<stop offset="0.361" stop-color="#66103F"/>
<stop offset="0.492" stop-color="#410A28"/>
<stop offset="0.621" stop-color="#240616"/>
<stop offset="0.749" stop-color="#10020A"/>
<stop offset="0.876" stop-color="#040002"/>
<stop offset="1"/>
</linearGradient>
<linearGradient id="paint3_linear" x1="68.3512" y1="262.937" x2="68.3512" y2="320.229" gradientUnits="userSpaceOnUse">
<stop stop-color="#F93A9B"/>
<stop offset="0.079" stop-color="#D53185"/>
<stop offset="0.217" stop-color="#9D2462"/>
<stop offset="0.357" stop-color="#6D1944"/>
<stop offset="0.494" stop-color="#46102B"/>
<stop offset="0.628" stop-color="#270918"/>
<stop offset="0.759" stop-color="#11040A"/>
<stop offset="0.885" stop-color="#040102"/>
<stop offset="1"/>
</linearGradient>
<linearGradient id="paint4_linear" x1="68.3512" y1="263.011" x2="68.3512" y2="319.378" gradientUnits="userSpaceOnUse">
<stop stop-color="#F94B9C"/>
<stop offset="0.048" stop-color="#E4448F"/>
<stop offset="0.198" stop-color="#A83269"/>
<stop offset="0.347" stop-color="#752349"/>
<stop offset="0.492" stop-color="#4B162F"/>
<stop offset="0.633" stop-color="#2A0C1A"/>
<stop offset="0.767" stop-color="#12050B"/>
<stop offset="0.892" stop-color="#040103"/>
<stop offset="1"/>
</linearGradient>
<linearGradient id="paint5_linear" x1="68.3486" y1="263.084" x2="68.3486" y2="318.528" gradientUnits="userSpaceOnUse">
<stop stop-color="#FA5C9E"/>
<stop offset="0.011" stop-color="#F55A9B"/>
<stop offset="0.174" stop-color="#B54272"/>
<stop offset="0.334" stop-color="#7E2E4F"/>
<stop offset="0.489" stop-color="#501D33"/>
<stop offset="0.636" stop-color="#2D101C"/>
<stop offset="0.774" stop-color="#14070C"/>
<stop offset="0.899" stop-color="#050103"/>
<stop offset="1"/>
</linearGradient>
<linearGradient id="paint6_linear" x1="68.3481" y1="263.158" x2="68.3481" y2="317.677" gradientUnits="userSpaceOnUse">
<stop stop-color="#FB6D9F"/>
<stop offset="0.145" stop-color="#C3547B"/>
<stop offset="0.316" stop-color="#883B56"/>
<stop offset="0.481" stop-color="#572637"/>
<stop offset="0.636" stop-color="#31151F"/>
<stop offset="0.779" stop-color="#16090E"/>
<stop offset="0.904" stop-color="#050203"/>
<stop offset="1"/>
</linearGradient>
<linearGradient id="paint7_linear" x1="68.3486" y1="263.231" x2="68.3486" y2="316.826" gradientUnits="userSpaceOnUse">
<stop stop-color="#FB7EA0"/>
<stop offset="0.101" stop-color="#D56A87"/>
<stop offset="0.288" stop-color="#954A5F"/>
<stop offset="0.467" stop-color="#5F303D"/>
<stop offset="0.632" stop-color="#361B22"/>
<stop offset="0.781" stop-color="#180C0F"/>
<stop offset="0.909" stop-color="#060304"/>
<stop offset="1"/>
</linearGradient>
<linearGradient id="paint8_linear" x1="68.3482" y1="263.302" x2="68.3482" y2="315.974" gradientUnits="userSpaceOnUse">
<stop stop-color="#FC8FA1"/>
<stop offset="0.047" stop-color="#EA8595"/>
<stop offset="0.253" stop-color="#A45D69"/>
<stop offset="0.448" stop-color="#693C43"/>
<stop offset="0.625" stop-color="#3C2226"/>
<stop offset="0.782" stop-color="#1B0F11"/>
<stop offset="0.912" stop-color="#070404"/>
<stop offset="1"/>
</linearGradient>
<linearGradient id="paint9_linear" x1="68.3511" y1="263.376" x2="68.3511" y2="315.124" gradientUnits="userSpaceOnUse">
<stop stop-color="#FCA0A2"/>
<stop offset="0.206" stop-color="#B67375"/>
<stop offset="0.418" stop-color="#764B4C"/>
<stop offset="0.611" stop-color="#432A2B"/>
<stop offset="0.779" stop-color="#1E1313"/>
<stop offset="0.914" stop-color="#080505"/>
<stop offset="1"/>
</linearGradient>
<linearGradient id="paint10_linear" x1="68.3486" y1="263.449" x2="68.3486" y2="314.274" gradientUnits="userSpaceOnUse">
<stop stop-color="#FDB1A3"/>
<stop offset="0.141" stop-color="#CE9085"/>
<stop offset="0.378" stop-color="#865D56"/>
<stop offset="0.591" stop-color="#4C3531"/>
<stop offset="0.773" stop-color="#221816"/>
<stop offset="0.915" stop-color="#090606"/>
<stop offset="1"/>
</linearGradient>
<linearGradient id="paint11_linear" x1="68.3487" y1="263.525" x2="68.3487" y2="313.425" gradientUnits="userSpaceOnUse">
<stop stop-color="#FEC2A5"/>
<stop offset="0.048" stop-color="#EEB69A"/>
<stop offset="0.32" stop-color="#9A7664"/>
<stop offset="0.561" stop-color="#584339"/>
<stop offset="0.761" stop-color="#281E1A"/>
<stop offset="0.913" stop-color="#0B0807"/>
<stop offset="1"/>
</linearGradient>
<linearGradient id="paint12_linear" x1="68.3486" y1="263.595" x2="68.3486" y2="312.572" gradientUnits="userSpaceOnUse">
<stop stop-color="#FED3A6"/>
<stop offset="0.235" stop-color="#B69777"/>
<stop offset="0.512" stop-color="#695744"/>
<stop offset="0.741" stop-color="#30281F"/>
<stop offset="0.909" stop-color="#0D0B08"/>
<stop offset="1"/>
</linearGradient>
<linearGradient id="paint13_linear" x1="68.3481" y1="263.669" x2="68.3481" y2="311.721" gradientUnits="userSpaceOnUse">
<stop stop-color="#FFE4A7"/>
<stop offset="0.099" stop-color="#E1C993"/>
<stop offset="0.435" stop-color="#827455"/>
<stop offset="0.707" stop-color="#3B3527"/>
<stop offset="0.901" stop-color="#100E0A"/>
<stop offset="1"/>
</linearGradient>
<linearGradient id="paint14_linear" x1="53.4486" y1="253.042" x2="83.068" y2="253.042" gradientUnits="userSpaceOnUse">
<stop offset="0.02" stop-color="#45108A"/>
<stop offset="0.293" stop-color="#3D065F"/>
<stop offset="0.958333" stop-color="#10054D"/>
</linearGradient>
<linearGradient id="paint15_linear" x1="32.7616" y1="230.12" x2="103.503" y2="230.12" gradientUnits="userSpaceOnUse">
<stop stop-color="#5C1CCC"/>
<stop offset="0.027" stop-color="#6223CF"/>
<stop offset="0.067" stop-color="#7437D9"/>
<stop offset="0.115" stop-color="#9258E9"/>
<stop offset="0.141" stop-color="#A56EF4"/>
<stop offset="0.227" stop-color="#C994FF"/>
<stop offset="0.284" stop-color="#AE79EF"/>
<stop offset="0.379" stop-color="#7945D1"/>
<stop offset="0.54" stop-color="#4916A1"/>
<stop offset="0.623" stop-color="#4B16A4"/>
<stop offset="0.695" stop-color="#5219AF"/>
<stop offset="0.762" stop-color="#5D1EC0"/>
<stop offset="0.818" stop-color="#6B24D6"/>
<stop offset="0.943" stop-color="#5B1DBC"/>
<stop offset="1" stop-color="#531AB0"/>
</linearGradient>
<linearGradient id="paint16_linear" x1="11.7838" y1="119.97" x2="124.226" y2="119.97" gradientUnits="userSpaceOnUse">
<stop offset="0.01" stop-color="#C1A1D5"/>
<stop offset="0.044" stop-color="#C7ABD9"/>
<stop offset="0.102" stop-color="#D9C6E5"/>
<stop offset="0.177" stop-color="#F6F2F9"/>
<stop offset="0.197" stop-color="white"/>
<stop offset="0.231" stop-color="#F9F5FB"/>
<stop offset="0.289" stop-color="#E9DBF1"/>
<stop offset="0.359" stop-color="#D1B4E3"/>
<stop offset="0.426" stop-color="#B294D5"/>
<stop offset="0.495" stop-color="#9B7CCB"/>
<stop offset="0.558" stop-color="#8D6EC5"/>
<stop offset="0.611" stop-color="#8969C3"/>
<stop offset="0.755" stop-color="#9371C5"/>
<stop offset="1" stop-color="#B086CC"/>
</linearGradient>
<linearGradient id="paint17_linear" x1="46.8003" y1="25.9055" x2="103.005" y2="55.6986" gradientUnits="userSpaceOnUse">
<stop stop-color="#5C1CCC"/>
<stop offset="0.036" stop-color="#6223CF"/>
<stop offset="0.091" stop-color="#7437D9"/>
<stop offset="0.156" stop-color="#9258E9"/>
<stop offset="0.192" stop-color="#A56EF4"/>
<stop offset="0.343" stop-color="#7945D1"/>
<stop offset="0.437" stop-color="#6D37C6"/>
<stop offset="0.597" stop-color="#5E26B9"/>
<stop offset="0.774" stop-color="#551DB2"/>
<stop offset="1" stop-color="#531AB0"/>
</linearGradient>
<linearGradient id="paint18_linear" x1="94.3423" y1="22.8427" x2="23.011" y2="68.5331" gradientUnits="userSpaceOnUse">
<stop stop-color="#5C1CCC"/>
<stop offset="0.036" stop-color="#6223CF"/>
<stop offset="0.091" stop-color="#7437D9"/>
<stop offset="0.156" stop-color="#9258E9"/>
<stop offset="0.192" stop-color="#A56EF4"/>
<stop offset="0.343" stop-color="#7945D1"/>
<stop offset="0.437" stop-color="#6D37C6"/>
<stop offset="0.597" stop-color="#5E26B9"/>
<stop offset="0.774" stop-color="#551DB2"/>
<stop offset="1" stop-color="#531AB0"/>
</linearGradient>
<radialGradient id="paint19_radial" cx="0" cy="0" r="1" gradientUnits="userSpaceOnUse" gradientTransform="translate(176 105) rotate(174.835) scale(88.8609 412.309)">
<stop stop-color="#972A74"/>
<stop offset="0.023" stop-color="#8C276B"/>
<stop offset="0.114" stop-color="#671C4F"/>
<stop offset="0.212" stop-color="#471336"/>
<stop offset="0.318" stop-color="#2D0C22"/>
<stop offset="0.434" stop-color="#180613"/>
<stop offset="0.566" stop-color="#0A0308"/>
<stop offset="0.727" stop-color="#020001"/>
<stop offset="1"/>
</radialGradient>
<linearGradient id="paint20_linear" x1="26.7356" y1="117" x2="69.0502" y2="157.756" gradientUnits="userSpaceOnUse">
<stop stop-color="#5C1CCC"/>
<stop offset="0.027" stop-color="#6223CF"/>
<stop offset="0.067" stop-color="#7437D9"/>
<stop offset="0.115" stop-color="#9258E9"/>
<stop offset="0.141" stop-color="#A56EF4"/>
<stop offset="0.227" stop-color="#C994FF"/>
<stop offset="0.284" stop-color="#AE79EF"/>
<stop offset="0.379" stop-color="#7945D1"/>
<stop offset="0.54" stop-color="#4916A1"/>
<stop offset="0.623" stop-color="#4B16A4"/>
<stop offset="0.695" stop-color="#5219AF"/>
<stop offset="0.762" stop-color="#5D1EC0"/>
<stop offset="0.818" stop-color="#6B24D6"/>
<stop offset="0.943" stop-color="#5B1DBC"/>
<stop offset="1" stop-color="#531AB0"/>
</linearGradient>
<linearGradient id="paint21_linear" x1="14.2721" y1="147.105" x2="56.9101" y2="147.105" gradientUnits="userSpaceOnUse">
<stop offset="0.035" stop-color="#A56EF4"/>
<stop offset="0.364" stop-color="#C994FF"/>
<stop offset="0.538" stop-color="#B279F5"/>
<stop offset="0.912" stop-color="#7935DC"/>
<stop offset="1" stop-color="#6B24D6"/>
</linearGradient>
<linearGradient id="paint22_linear" x1="47.3973" y1="167.524" x2="14.8586" y2="133.42" gradientUnits="userSpaceOnUse">
<stop offset="0.035" stop-color="#138BBD"/>
<stop offset="0.226" stop-color="#169AC6"/>
<stop offset="0.595" stop-color="#1EC2DF"/>
<stop offset="1" stop-color="#2AF6FF"/>
</linearGradient>
<linearGradient id="paint23_linear" x1="18.8196" y1="122.179" x2="46.5027" y2="143.224" gradientUnits="userSpaceOnUse">
<stop stop-color="white"/>
<stop offset="1"/>
</linearGradient>
<linearGradient id="paint24_linear" x1="42.7934" y1="170.895" x2="7.78315" y2="142.64" gradientUnits="userSpaceOnUse">
<stop stop-color="#5C1CCC"/>
<stop offset="0.227" stop-color="#BA85FF"/>
<stop offset="0.379" stop-color="#7945D1"/>
<stop offset="0.54" stop-color="#4916A1"/>
<stop offset="0.614" stop-color="#4B16A4"/>
<stop offset="0.678" stop-color="#5219AF"/>
<stop offset="0.738" stop-color="#5D1EC0"/>
<stop offset="0.788" stop-color="#6B24D6"/>
<stop offset="0.934" stop-color="#5B1DBC"/>
<stop offset="1" stop-color="#531AB0"/>
</linearGradient>
<radialGradient id="paint25_radial" cx="0" cy="0" r="1" gradientUnits="userSpaceOnUse" gradientTransform="translate(371.516 146.516) scale(22.8747 22.8813)">
<stop stop-color="white"/>
<stop offset="1"/>
</radialGradient>
<radialGradient id="paint26_radial" cx="0" cy="0" r="1" gradientUnits="userSpaceOnUse" gradientTransform="translate(1394.82 918.556) rotate(5.15782) scale(19.8719 91.93)">
<stop stop-color="#972A74"/>
<stop offset="0.023" stop-color="#8C276B"/>
<stop offset="0.114" stop-color="#671C4F"/>
<stop offset="0.212" stop-color="#471336"/>
<stop offset="0.318" stop-color="#2D0C22"/>
<stop offset="0.434" stop-color="#180613"/>
<stop offset="0.566" stop-color="#0A0308"/>
<stop offset="0.727" stop-color="#020001"/>
<stop offset="1"/>
</radialGradient>
<linearGradient id="paint27_linear" x1="8.75267" y1="266.672" x2="66.3452" y2="241.497" gradientUnits="userSpaceOnUse">
<stop offset="0.197" stop-color="#7734DC"/>
<stop offset="0.394" stop-color="#8C4EE7"/>
<stop offset="0.591" stop-color="#A56EF4"/>
<stop offset="0.667" stop-color="#BA8AFF"/>
<stop offset="0.803" stop-color="#A067F1"/>
<stop offset="1" stop-color="#9155EA"/>
</linearGradient>
<linearGradient id="paint28_linear" x1="8.04287" y1="236.316" x2="109.671" y2="232.87" gradientUnits="userSpaceOnUse">
<stop offset="0.035" stop-color="#6B24D6"/>
<stop offset="0.294" stop-color="#7733DC"/>
<stop offset="0.794" stop-color="#965BEC"/>
<stop offset="1" stop-color="#A56EF4"/>
</linearGradient>
<radialGradient id="paint29_radial" cx="0" cy="0" r="1" gradientUnits="userSpaceOnUse" gradientTransform="translate(1360.57 223.159) scale(33.5621 33.5644)">
<stop stop-color="white"/>
<stop offset="1"/>
</radialGradient>
<linearGradient id="paint30_linear" x1="118.913" y1="238.313" x2="88.3264" y2="225.357" gradientUnits="userSpaceOnUse">
<stop offset="0.035" stop-color="#6B24D6"/>
<stop offset="0.192" stop-color="#7633DB"/>
<stop offset="0.197" stop-color="#7734DC"/>
<stop offset="0.394" stop-color="#8C4EE7"/>
<stop offset="0.591" stop-color="#A56EF4"/>
<stop offset="0.667" stop-color="#BA8AFF"/>
<stop offset="0.803" stop-color="#A067F1"/>
<stop offset="1" stop-color="#9155EA"/>
</linearGradient>
<linearGradient id="paint31_linear" x1="-446.528" y1="249.094" x2="-288.531" y2="245.088" gradientUnits="userSpaceOnUse">
<stop offset="0.035" stop-color="#6B24D6"/>
<stop offset="0.294" stop-color="#7733DC"/>
<stop offset="0.794" stop-color="#965BEC"/>
<stop offset="1" stop-color="#A56EF4"/>
</linearGradient>
<radialGradient id="paint32_radial" cx="0" cy="0" r="1" gradientUnits="userSpaceOnUse" gradientTransform="translate(1409.36 218.681) scale(33.5666 33.5618)">
<stop stop-color="white"/>
<stop offset="1"/>
</radialGradient>
</defs>
</svg>
