<svg width="200" height="200" viewBox="0 0 200 200" fill="none" xmlns="http://www.w3.org/2000/svg">
<path d="M160.796 185.536C160.255 185.716 159.654 185.836 159.054 185.956C158.813 186.016 158.573 186.016 158.333 186.076H92.7335C67.8634 183.313 45.5163 178.389 38.0072 173.825C31.5795 169.921 26.8338 165.357 23.71 160.613C18.0031 151.905 17.7027 142.716 21.9679 136.11C22.7488 134.849 23.5898 133.648 24.4909 132.447C24.7312 132.147 24.9114 131.846 25.1517 131.546C25.392 131.246 25.5722 130.945 25.8125 130.645C27.2543 128.723 28.696 127.042 30.1377 125.541C30.378 125.3 30.6784 125 30.9187 124.76C31.0388 124.64 31.159 124.52 31.3392 124.399C31.6996 124.039 32.0601 123.739 32.4205 123.379C32.6007 123.198 32.781 123.078 32.9612 122.898C33.1414 122.778 33.2615 122.598 33.4417 122.478C33.5018 122.418 33.5619 122.358 33.622 122.298C36.085 120.196 38.7882 118.214 42.0922 115.932C44.1948 110.887 46.4775 105.722 49.0606 100.558C50.5624 97.5549 52.1844 94.4921 53.8664 91.5494C53.9265 91.4893 53.9866 91.3692 53.9866 91.3092C54.1668 91.0089 54.2869 90.7086 54.4672 90.4684C54.4672 90.4083 54.5272 90.4083 54.5272 90.3483C54.8276 89.8078 55.128 89.3273 55.4283 88.7868C55.4884 88.7268 55.4884 88.6667 55.5485 88.6067C55.9089 88.0662 56.2093 87.5257 56.5697 86.9251C56.6298 86.805 56.7499 86.6849 56.81 86.5648C63.6583 75.6348 71.9483 66.026 82.0405 60.4409C82.1006 60.4409 82.1006 60.3808 82.1607 60.3808C82.461 60.2006 82.7614 60.0805 83.0618 59.9004C83.302 59.7803 83.5424 59.6601 83.7827 59.54C84.1431 59.3599 84.5636 59.1797 84.9241 58.9995C84.9841 58.9995 85.0442 58.9395 85.1042 58.9395C85.1643 58.9395 85.2244 58.8794 85.2845 58.8794C90.631 56.4172 95.3166 54.9758 99.4016 54.075C99.4016 54.075 99.4016 54.075 99.4616 54.075C99.6418 54.015 99.8221 54.015 100.002 53.9549L103.066 53.2943L105.048 53.4144L104.628 42.1241C104.568 40.3224 104.688 38.5808 104.928 36.8392C106.01 30.1131 109.013 13.3577 113.398 10.9555C116.702 9.15385 119.886 9.51418 122.289 11.7963C122.59 12.1566 122.89 12.4569 123.19 12.8172C124.332 14.2585 125.173 16.2403 125.653 18.6425C127.155 26.3296 131.661 29.0321 138.088 29.993C141.933 30.5935 142.894 27.5307 144.276 24.2877C145.177 22.0657 146.318 19.7836 148.541 18.4624C154.128 15.0392 157.011 24.9483 161.877 26.5698C165.542 27.7709 146.078 43.5053 136.226 51.2524C136.046 51.2524 135.866 51.2524 135.685 51.2524C134.003 51.2524 132.442 51.9731 130.94 52.7538C130.88 52.7538 130.88 52.6938 130.82 52.6938C130.459 52.5737 130.159 52.5136 129.858 52.5136C126.855 51.0122 123.01 50.8321 120.667 53.6546C120.427 53.9549 120.247 54.2552 120.067 54.5555C120.007 54.6756 119.946 54.7957 119.886 54.9158C119.406 56.0568 119.346 57.3781 119.886 58.5191C120.607 60.1406 122.169 61.3417 124.031 61.3417C125.413 61.3417 126.494 60.6811 127.275 59.6601C127.035 60.6811 126.735 61.702 126.494 62.7229C125.834 65.3053 125.293 67.9477 124.872 70.5902C124.692 71.9114 124.452 73.2326 124.332 74.5538C124.272 75.2144 124.152 75.875 124.091 76.5957C124.031 77.3764 124.031 78.097 124.031 78.8778C124.031 80.1389 123.791 81.4601 123.731 82.7813C123.611 84.2227 123.611 85.6039 123.611 87.0452C123.611 87.886 124.512 88.4265 125.233 88.4265C125.954 88.4265 126.795 87.826 126.855 87.0452C126.975 85.664 127.035 84.3428 127.155 82.9615C127.215 81.7003 127.215 80.3791 127.395 79.118C127.456 78.7576 127.576 78.4574 127.636 78.1571C127.696 77.7968 127.696 77.4965 127.756 77.1362C127.816 76.4756 127.876 75.7549 127.936 75.0943C128.056 73.7731 128.236 72.4519 128.417 71.1307C128.777 68.4882 129.077 65.7858 129.438 63.1433C129.678 61.4017 129.979 59.7202 130.279 58.0387C130.699 59.4199 131.12 60.7411 131.48 62.1224C132.442 65.9659 133.042 69.9296 133.162 73.8932C133.283 77.7367 132.682 81.6403 132.261 85.4838C132.141 86.2645 132.682 86.9852 133.403 87.2254C134.124 87.4056 135.025 87.0452 135.265 86.3246C136.106 83.7422 136.406 81.0397 136.587 78.3373C136.827 74.1334 136.466 69.9296 135.565 65.7858C135.085 63.6238 134.484 61.5218 133.643 59.4199C134.184 59.6601 134.724 59.9004 135.325 60.0805C136.526 60.3808 137.788 60.3207 138.869 59.7803C161.457 72.3918 169.807 99.1764 174.132 123.078C175.093 128.543 176.535 135.75 177.376 143.317C179.178 160.973 178.037 180.671 160.796 185.536Z" fill="white"/>
<path opacity="0.3" d="M160.796 185.536C160.255 185.716 159.654 185.836 159.054 185.956C158.813 186.016 158.573 186.016 158.333 186.076H92.7335C67.8634 183.313 45.5163 178.389 38.0072 173.825C31.5795 169.921 26.8338 165.357 23.71 160.613C18.0031 151.905 17.7027 142.716 21.9679 136.11C22.7488 134.849 23.5898 133.648 24.4909 132.447C24.7312 132.147 24.9114 131.846 25.1517 131.546C25.392 131.246 25.5722 130.945 25.8125 130.645C27.2543 128.723 28.696 127.042 30.1377 125.541C30.378 125.3 30.6784 125 30.9187 124.76C31.0388 124.64 31.159 124.52 31.3392 124.399C31.6996 124.039 32.0601 123.739 32.4205 123.379C32.6007 123.198 32.781 123.078 32.9612 122.898C33.1414 122.778 33.2615 122.598 33.4417 122.478C33.5018 122.418 33.5619 122.358 33.622 122.298C36.085 120.196 38.7882 118.214 42.0922 115.932C44.1948 110.887 46.4775 105.722 49.0606 100.558C50.5624 97.5549 52.1844 94.4921 53.8664 91.5494C53.9265 91.4893 53.9866 91.3692 53.9866 91.3092C54.1668 91.0089 54.2869 90.7086 54.4672 90.4684C54.4672 90.4083 54.5272 90.4083 54.5272 90.3483C54.8276 89.8078 55.128 89.3273 55.4283 88.7868C55.4884 88.7268 55.4884 88.6667 55.5485 88.6067C55.9089 88.0662 56.2093 87.5257 56.5697 86.9251C56.6298 86.805 56.7499 86.6849 56.81 86.5648C63.6583 75.6348 71.9483 66.026 82.0405 60.4409C82.1006 60.4409 82.1006 60.3808 82.1607 60.3808C82.461 60.2006 82.7614 60.0805 83.0618 59.9004C83.302 59.7803 83.5424 59.6601 83.7827 59.54C84.1431 59.3599 84.5636 59.1797 84.9241 58.9995C84.9841 58.9995 85.0442 58.9395 85.1042 58.9395C85.1643 58.9395 85.2244 58.8794 85.2845 58.8794C90.631 56.4172 95.3166 54.9758 99.4016 54.075C99.4016 54.075 99.4016 54.075 99.4616 54.075C99.6418 54.015 99.8221 54.015 100.002 53.9549L103.066 53.2943L105.048 53.4144L104.628 42.1241C104.568 40.3224 104.688 38.5808 104.928 36.8392C106.01 30.1131 109.013 13.3577 113.398 10.9555C116.702 9.15385 119.886 9.51418 122.289 11.7963C122.59 12.1566 122.89 12.4569 123.19 12.8172C124.332 14.2585 125.173 16.2403 125.653 18.6425C127.155 26.3296 131.661 29.0321 138.088 29.993C141.933 30.5935 142.894 27.5307 144.276 24.2877C145.177 22.0657 146.318 19.7836 148.541 18.4624C154.128 15.0392 157.011 24.9483 161.877 26.5698C165.542 27.7709 146.078 43.5053 136.226 51.2524C136.046 51.2524 135.866 51.2524 135.685 51.2524C134.003 51.2524 132.442 51.9731 130.94 52.7538C130.88 52.7538 130.88 52.6938 130.82 52.6938C130.459 52.5737 130.159 52.5136 129.858 52.5136C126.855 51.0122 123.01 50.8321 120.667 53.6546C120.427 53.9549 120.247 54.2552 120.067 54.5555C120.007 54.6756 119.946 54.7957 119.886 54.9158C119.406 56.0568 119.346 57.3781 119.886 58.5191C120.607 60.1406 122.169 61.3417 124.031 61.3417C125.413 61.3417 126.494 60.6811 127.275 59.6601C127.035 60.6811 126.735 61.702 126.494 62.7229C125.834 65.3053 125.293 67.9477 124.872 70.5902C124.692 71.9114 124.452 73.2326 124.332 74.5538C124.272 75.2144 124.152 75.875 124.091 76.5957C124.031 77.3764 124.031 78.097 124.031 78.8778C124.031 80.1389 123.791 81.4601 123.731 82.7813C123.611 84.2227 123.611 85.6039 123.611 87.0452C123.611 87.886 124.512 88.4265 125.233 88.4265C125.954 88.4265 126.795 87.826 126.855 87.0452C126.975 85.664 127.035 84.3428 127.155 82.9615C127.215 81.7003 127.215 80.3791 127.395 79.118C127.456 78.7576 127.576 78.4574 127.636 78.1571C127.696 77.7968 127.696 77.4965 127.756 77.1362C127.816 76.4756 127.876 75.7549 127.936 75.0943C128.056 73.7731 128.236 72.4519 128.417 71.1307C128.777 68.4882 129.077 65.7858 129.438 63.1433C129.678 61.4017 129.979 59.7202 130.279 58.0387C130.699 59.4199 131.12 60.7411 131.48 62.1224C132.442 65.9659 133.042 69.9296 133.162 73.8932C133.283 77.7367 132.682 81.6403 132.261 85.4838C132.141 86.2645 132.682 86.9852 133.403 87.2254C134.124 87.4056 135.025 87.0452 135.265 86.3246C136.106 83.7422 136.406 81.0397 136.587 78.3373C136.827 74.1334 136.466 69.9296 135.565 65.7858C135.085 63.6238 134.484 61.5218 133.643 59.4199C134.184 59.6601 134.724 59.9004 135.325 60.0805C136.526 60.3808 137.788 60.3207 138.869 59.7803C161.457 72.3918 169.807 99.1764 174.132 123.078C175.093 128.543 176.535 135.75 177.376 143.317C179.178 160.973 178.037 180.671 160.796 185.536Z" fill="#FCB713"/>
<path opacity="0.8" d="M144.216 24.2874C142.834 27.5304 141.873 30.5932 138.029 29.9926C131.601 29.0318 127.095 26.3893 125.654 18.6422C125.173 16.18 124.332 14.2582 123.191 12.8169C132.021 22.4257 139.59 24.3475 144.216 24.2874Z" fill="#FCB713"/>
<path opacity="0.5" d="M174.313 171.782C173.592 177.126 168.906 181.15 163.98 183.432C149.923 190.038 134.665 186.075 119.827 186.075C110.996 186.075 101.504 187.036 92.6736 186.075C67.8034 183.312 45.4563 178.388 37.9472 173.823C31.5194 169.92 26.7737 165.356 23.6499 160.611C17.943 151.903 17.6426 142.715 21.9078 136.109C25.1517 131.124 28.8162 126.38 33.3216 122.476C44.0146 113.288 48.0394 101.037 55.128 89.2059C62.3368 77.1348 71.7682 65.0638 84.804 58.9982C84.8641 58.9982 84.9242 58.9382 84.9843 58.9382C85.0443 58.9382 85.1044 58.8781 85.1645 58.8781C86.9066 58.1574 93.6347 55.5751 99.2816 54.0737C99.2816 54.0737 99.2816 54.0737 99.3417 54.0737C99.5219 54.0136 99.7021 53.9536 99.8823 53.9536C100.964 53.6533 101.985 53.4732 102.946 53.293C103.667 53.1729 104.328 53.1128 104.928 53.0528C106.13 52.9927 107.031 53.1128 107.452 53.5933C107.572 53.7134 107.632 53.8935 107.632 54.1338C107.632 54.2539 107.632 54.3139 107.632 54.434C107.391 55.9955 104.868 58.3977 103.967 59.7789C100.303 65.4241 97.0589 71.3696 94.3556 77.4952C90.1505 86.9238 87.0868 97.0131 85.7652 107.222C84.804 114.97 82.4011 122.597 78.6766 129.503C76.0935 134.307 71.1675 137.19 69.065 142.295C64.7998 152.564 75.1924 156.167 82.281 160.071C89.3696 163.974 96.5783 167.578 104.268 170.04C115.441 173.583 127.155 175.265 138.81 175.385C141.933 175.445 174.252 172.442 174.313 171.782Z" fill="#E1911B"/>
<g opacity="0.8">
<path opacity="0.8" d="M112.558 146.38C110.876 145.84 109.494 145.179 108.232 144.398C107.031 143.618 106.01 142.897 105.109 142.176C104.268 141.456 103.547 140.735 103.066 140.074C102.586 139.414 102.225 138.933 101.985 138.633C101.745 138.273 101.624 137.972 101.624 137.672C101.564 137.372 101.745 137.072 102.165 136.711L105.529 133.649C105.89 133.288 106.25 133.168 106.671 133.228C107.091 133.288 107.512 133.709 107.992 134.369C108.713 135.39 109.674 136.351 110.695 137.312C111.777 138.273 112.978 138.993 114.24 139.534L117.364 127.463C116.042 126.502 114.78 125.481 113.579 124.4C112.317 123.259 111.236 122.058 110.335 120.677C109.434 119.295 108.773 117.794 108.413 116.173C108.052 114.491 108.112 112.689 108.653 110.587C109.013 109.086 109.614 107.765 110.455 106.564C111.296 105.363 112.317 104.342 113.579 103.561C114.841 102.78 116.342 102.24 118.084 101.939C119.827 101.639 121.749 101.699 123.912 102.06L124.392 100.078C124.452 99.7775 124.632 99.4772 124.933 99.3571C125.233 99.1769 125.534 99.1769 125.834 99.237L126.615 99.4172C126.915 99.4772 127.216 99.7174 127.336 99.9577C127.516 100.258 127.516 100.558 127.456 100.858L126.915 102.9C128.237 103.381 129.438 103.921 130.58 104.582C131.721 105.242 132.682 105.903 133.523 106.564C134.364 107.224 135.025 107.885 135.566 108.425C136.106 108.966 136.467 109.386 136.707 109.687C137.007 109.987 137.128 110.347 137.068 110.768C137.007 111.188 136.827 111.548 136.587 111.849L133.163 114.791C132.442 115.392 131.841 115.392 131.301 114.851C130.58 114.071 129.739 113.17 128.717 112.209C127.696 111.248 126.495 110.407 125.173 109.687L122.23 120.977C123.431 121.878 124.692 122.959 126.014 124.1C127.336 125.241 128.477 126.562 129.438 128.003C130.399 129.445 131.12 131.006 131.601 132.748C132.081 134.489 132.021 136.351 131.481 138.333C130.58 141.696 128.777 144.218 126.014 145.9C123.251 147.581 119.706 148.002 115.501 147.161L113.819 153.587C113.759 153.887 113.519 154.127 113.219 154.307C112.918 154.428 112.618 154.488 112.257 154.368C111.897 154.247 111.476 154.127 111.056 153.887C110.635 153.647 110.515 153.287 110.635 152.746L112.558 146.38ZM122.23 108.906C120.608 108.726 119.286 108.906 118.325 109.566C117.304 110.167 116.703 111.068 116.342 112.269C116.042 113.53 116.162 114.611 116.703 115.632C117.303 116.653 118.265 117.734 119.586 118.995L122.23 108.906ZM117.424 140.495C118.865 140.675 120.127 140.555 121.208 140.014C122.29 139.474 123.01 138.573 123.371 137.132C123.671 135.931 123.611 134.73 123.131 133.468C122.65 132.207 121.689 130.946 120.247 129.625L117.424 140.495Z" fill="#FCB713"/>
</g>
<path opacity="0.8" d="M140.371 53.7156C139.47 52.1542 137.908 51.3134 136.166 51.1933C135.986 51.1933 135.806 51.1933 135.625 51.1933C133.943 51.1933 132.382 51.914 130.88 52.6947C130.82 52.6947 130.82 52.6346 130.76 52.6346C130.399 52.5145 130.099 52.4545 129.798 52.4545C126.795 50.9531 122.95 50.7729 120.607 53.5955C120.367 53.8958 120.187 54.1961 120.007 54.4963C119.947 54.6164 119.886 54.7365 119.826 54.8567C119.346 55.9977 119.286 57.3189 119.826 58.46C120.547 60.0814 122.109 61.2825 123.971 61.2825C125.353 61.2825 126.434 60.6219 127.215 59.601C126.975 60.6219 126.675 61.6429 126.434 62.6638C125.774 65.2462 125.233 67.8886 124.812 70.531C124.632 71.8522 124.392 73.1735 124.272 74.4947C124.212 75.1553 124.092 75.8159 124.031 76.5365C123.971 77.3173 123.971 78.0379 123.971 78.8186C123.971 80.0798 123.731 81.401 123.671 82.7222C123.551 84.1635 123.551 85.5448 123.551 86.9861C123.551 87.8269 124.452 88.3674 125.173 88.3674C125.894 88.3674 126.735 87.7668 126.795 86.9861C126.915 85.6049 126.975 84.2836 127.095 82.9024C127.155 81.6412 127.155 80.32 127.335 79.0589C127.396 78.6985 127.516 78.3982 127.576 78.098C127.636 77.7376 127.636 77.4374 127.696 77.077C127.756 76.4164 127.816 75.6958 127.876 75.0352C127.996 73.7139 128.176 72.3927 128.357 71.0715C128.717 68.4291 129.017 65.7266 129.378 63.0842C129.618 61.3426 129.919 59.6611 130.219 57.9795C130.639 59.3608 131.06 60.682 131.42 62.0633C132.381 65.9068 132.982 69.8704 133.102 73.8341C133.223 77.6776 132.622 81.5812 132.201 85.4247C132.081 86.2054 132.622 86.9261 133.343 87.1663C134.064 87.3465 134.965 86.9861 135.205 86.2655C136.046 83.6831 136.346 80.9806 136.526 78.2781C136.767 74.0743 136.406 69.8704 135.505 65.7266C135.025 63.5646 134.424 61.4627 133.583 59.3608C134.124 59.601 134.664 59.8412 135.265 60.0214C136.466 60.3217 137.728 60.2616 138.809 59.7211C139.29 59.4809 139.71 59.1806 140.071 58.7602C141.152 57.439 141.272 55.277 140.371 53.7156ZM134.184 54.6164C134.905 54.5564 135.565 54.6765 136.046 54.8567C136.166 54.9167 136.286 54.9768 136.406 55.0368C136.466 55.0969 136.527 55.0969 136.587 55.1569C136.587 55.1569 136.526 55.1569 136.466 55.0969C136.526 55.1569 136.647 55.217 136.707 55.277C136.587 55.217 136.947 55.6374 136.887 55.5173C136.947 55.5773 136.947 55.6974 137.007 55.8175C137.007 55.8175 137.007 55.8776 137.007 55.9376C137.007 55.9376 137.007 56.1178 137.007 56.1779V56.2379C136.947 56.2379 136.887 56.298 136.887 56.298C136.887 56.298 136.887 56.298 136.947 56.298C136.887 56.298 136.767 56.298 136.767 56.298C136.707 56.298 136.707 56.298 136.707 56.298H136.647C136.526 56.298 136.346 56.2379 136.226 56.2379C136.166 56.2379 135.986 56.1779 135.986 56.1779C135.866 56.1178 135.746 56.1178 135.625 56.0578C135.385 55.9376 135.085 55.8175 134.844 55.6974C134.364 55.3972 133.883 55.0969 133.403 54.7365C133.583 54.6765 133.883 54.6164 134.184 54.6164Z" fill="#FCB713"/>
</svg>
