<svg id="speedometer" xmlns="http://www.w3.org/2000/svg" width="22.025" height="19" viewBox="0 0 22.025 19">
  <path id="Path_22265" data-name="Path 22265" d="M92.355,35.154a10.937,10.937,0,0,0-6.682,2.769L88.552,40.8a6.9,6.9,0,0,1,3.8-1.575Z" transform="translate(-81.988 -35.154)" fill="#fff"/>
  <path id="Path_22266" data-name="Path 22266" d="M5.662,123.6l-2.879-2.879A10.936,10.936,0,0,0,.011,127.4H4.084A6.9,6.9,0,0,1,5.662,123.6Z" transform="translate(-0.011 -117.041)" fill="#fff"/>
  <path id="Path_22267" data-name="Path 22267" d="M382.19,127.4h4.073a10.936,10.936,0,0,0-2.772-6.682l-2.879,2.879A6.9,6.9,0,0,1,382.19,127.4Z" transform="translate(-364.238 -117.041)" fill="#fff"/>
  <path id="Path_22268" data-name="Path 22268" d="M401.182,306.055a6.874,6.874,0,0,1-.71,2.488c.327.5.6.931.78,1.214a1.938,1.938,0,0,1-.795,2.785l.671.671a.646.646,0,0,0,.914,0,10.949,10.949,0,0,0,3.214-7.158Z" transform="translate(-383.232 -294.402)" fill="#fff"/>
  <path id="Path_22269" data-name="Path 22269" d="M4.074,306.055H0a10.95,10.95,0,0,0,3.213,7.158.646.646,0,0,0,.914,0l1.958-1.958a.646.646,0,0,0,0-.914A6.926,6.926,0,0,1,4.074,306.055Z" transform="translate(0 -294.402)" fill="#fff"/>
  <path id="Path_22270" data-name="Path 22270" d="M277.682,37.923A10.937,10.937,0,0,0,271,35.154v4.073a6.9,6.9,0,0,1,3.8,1.575Z" transform="translate(-259.342 -35.154)" fill="#fff"/>
  <path id="Path_22271" data-name="Path 22271" d="M212.351,244.787a2.028,2.028,0,1,0-2.867,2.867,74.082,74.082,0,0,0,6.463,4.486.645.645,0,0,0,.891-.891A74.1,74.1,0,0,0,212.351,244.787Z" transform="translate(-199.905 -235.202)" fill="#fff"/>
</svg>
