<svg width="200" height="200" viewBox="0 0 200 200" fill="none" xmlns="http://www.w3.org/2000/svg">
<path d="M153.209 26.4869L6.1626 111.662L18.8542 133.573C18.8542 133.573 28.925 125.138 33.7196 133.416C38.5142 141.693 26.1871 146.232 26.1871 146.232L39.4428 169.117L186.489 83.9422L173.234 61.0574C173.234 61.0574 162.317 68.0312 158.368 61.2145C154.42 54.3977 165.901 48.3978 165.901 48.3978L153.209 26.4869Z" fill="#52BBA8" stroke="#52BBA8"/>
<rect x="28.3849" y="116.347" width="121.542" height="37.1378" transform="rotate(-30.081 28.3849 116.347)" fill="#C8D1DC"/>
<path d="M53.509 113.63L57.1908 111.567C59.0829 110.471 60.4273 109.599 61.224 108.953C61.4912 109.122 61.7151 109.362 61.8955 109.674C62.076 109.985 62.1013 110.348 61.9714 110.762C61.8348 111.165 61.5704 111.48 61.1781 111.707L59.0576 112.635C59.1044 112.716 59.2827 113.09 59.5926 113.758C60.3332 115.409 61.158 117.019 62.0669 118.588C62.9758 120.157 64.0058 121.656 65.157 123.085C64.8565 123.444 64.4985 123.744 64.0832 123.984C63.6678 124.225 63.2433 124.317 62.8097 124.26C62.3694 124.191 62.0122 123.921 61.7382 123.448C61.4575 122.963 61.024 122.082 60.4377 120.803C59.8513 119.525 59.2273 118.315 58.5657 117.172C57.8974 116.019 57.2182 114.979 56.5281 114.054C55.1722 114.932 54.1955 115.759 53.598 116.537C53.3059 116.352 53.0662 116.098 52.8791 115.774C52.6853 115.44 52.6409 115.057 52.7459 114.627C52.8508 114.196 53.1052 113.864 53.509 113.63ZM72.3696 118.907C72.0806 119.26 71.7284 119.556 71.313 119.797C70.8977 120.037 70.4574 120.115 69.9922 120.03C69.5385 119.939 69.178 119.662 68.9107 119.201C68.6433 118.739 68.1898 117.823 67.55 116.452C66.9035 115.07 66.353 113.987 65.8986 113.202C64.7291 111.183 63.6823 109.656 62.7584 108.619C63.0474 108.267 63.3996 107.97 63.8149 107.73C64.2303 107.489 64.6648 107.415 65.1185 107.506C65.5837 107.591 65.95 107.864 66.2173 108.326C66.4846 108.787 66.9415 109.709 67.588 111.091C68.2278 112.462 68.7749 113.539 69.2293 114.324C70.3989 116.343 71.4456 117.871 72.3696 118.907ZM72.5956 102.366C73.5994 101.785 74.6467 101.571 75.7374 101.725C76.8282 101.879 77.6443 102.423 78.1856 103.358C78.4729 103.854 78.5717 104.344 78.482 104.827C78.3922 105.311 78.1454 105.669 77.7416 105.903C77.3378 106.137 76.9846 106.272 76.6822 106.309C76.6099 106.104 76.5136 105.898 76.3933 105.69C75.9607 104.97 75.4411 104.485 74.8343 104.236C74.2208 103.975 73.5795 104.038 72.9104 104.426C72.2527 104.807 71.7649 105.374 71.4468 106.129C71.3929 106.807 71.5008 107.592 71.7707 108.484C72.0405 109.375 72.396 110.202 72.8371 110.963C73.5722 112.232 74.4327 113.159 75.4185 113.744C76.4091 114.31 77.4236 114.293 78.462 113.691C79.4196 113.136 79.8552 112.399 79.7688 111.478C79.7127 110.663 79.3806 109.731 78.7725 108.681C79.3609 108.34 79.9147 108.165 80.434 108.157C80.9466 108.138 81.3432 108.37 81.6239 108.855C82.2788 109.986 82.3274 111.213 81.7695 112.538C81.205 113.851 80.2997 114.869 79.0537 115.59C77.4269 116.533 75.8816 116.711 74.4178 116.126C72.9474 115.529 71.6775 114.308 70.6082 112.462C69.539 110.616 69.1517 108.737 69.4464 106.825C69.746 104.895 70.7958 103.409 72.5956 102.366ZM86.434 102.024C87.7423 102.899 89.1332 103.612 90.6067 104.16C92.0917 104.702 93.2818 104.868 94.1769 104.658C94.4576 105.142 94.5479 105.591 94.4478 106.003C94.3477 106.416 94.0611 106.759 93.588 107.033C92.965 107.394 91.9933 107.379 90.6729 106.988C89.3574 106.579 88.0798 106.009 86.8401 105.279C85.6004 104.549 84.6221 103.844 83.9054 103.165C84.7602 102.007 85.2907 100.675 85.4969 99.1692C85.6963 97.6515 85.502 96.385 84.9139 95.3697C85.41 95.0823 85.8871 94.9216 86.345 94.8875C86.8144 94.8467 87.1594 95.0167 87.3799 95.3974C87.7275 95.9973 87.7908 96.9314 87.57 98.1995C87.3493 99.4676 86.9706 100.742 86.434 102.024ZM87.783 109.979C87.494 110.332 87.1418 110.628 86.7265 110.869C86.3111 111.109 85.8709 111.187 85.4056 111.102C84.9519 111.011 84.5914 110.734 84.3241 110.272C84.0568 109.811 83.6032 108.895 82.9634 107.524C82.317 106.142 81.7665 105.059 81.312 104.274C80.1425 102.255 79.0958 100.727 78.1718 99.691C78.4608 99.3387 78.813 99.0422 79.2284 98.8017C79.6437 98.5611 80.0782 98.4866 80.5319 98.5782C80.9972 98.6631 81.3634 98.9363 81.6307 99.3978C81.8981 99.8593 82.355 100.781 83.0014 102.163C83.6413 103.534 84.1884 104.611 84.6428 105.396C85.8123 107.415 86.8591 108.943 87.783 109.979ZM102.661 98.4494C102.98 98.6807 103.253 98.9925 103.48 99.3848C103.707 99.777 103.766 100.198 103.656 100.646C103.551 101.077 103.302 101.406 102.91 101.633C101.687 102.342 99.7318 103.382 97.0441 104.754C96.8297 104.862 96.6084 104.906 96.38 104.884C96.145 104.851 95.974 104.742 95.867 104.557C95.5129 103.946 94.9609 102.886 94.2111 101.379C93.4729 99.8652 92.7396 98.4795 92.0111 97.2219C91.276 95.9527 90.3128 94.5692 89.1215 93.0712C90.0154 92.6459 91.1834 92.0155 92.6256 91.1801C94.0678 90.3448 95.3864 89.4423 96.5814 88.4728C96.8669 88.6464 97.1132 88.9121 97.3204 89.2697C97.5209 89.6158 97.5629 90.0076 97.4464 90.4448C97.3347 90.8639 97.077 91.1904 96.6731 91.4243C96.2809 91.6515 95.6129 91.9614 94.6692 92.3539C93.7371 92.7398 93.0633 93.053 92.648 93.2936C93.2306 94.5124 93.8136 95.6385 94.3968 96.672C95.1638 96.3202 95.9626 95.9037 96.7934 95.4226C97.6356 94.9347 98.2865 94.3959 98.7461 93.8061C99.0316 93.9797 99.2779 94.2453 99.4851 94.603C99.6856 94.9491 99.7309 95.3466 99.6211 95.7954C99.5161 96.2261 99.2733 96.5516 98.8925 96.7722C98.5233 96.986 97.9294 97.2376 97.1108 97.5268C96.2855 97.8046 95.6825 98.0537 95.3018 98.2742C96.3577 100.097 97.1733 101.412 97.7486 102.219C98.3292 101.945 98.7752 101.717 99.0867 101.537C100.61 100.654 101.801 99.6253 102.661 98.4494ZM99.1072 87.2177L102.789 85.1545C104.681 84.0585 106.026 83.1873 106.822 82.5409C107.089 82.7097 107.313 82.9499 107.494 83.2614C107.674 83.5729 107.699 83.9358 107.57 84.35C107.433 84.7527 107.169 85.0676 106.776 85.2948L104.656 86.2227C104.703 86.3034 104.881 86.6778 105.191 87.3458C105.931 88.9969 106.756 90.607 107.665 92.1761C108.574 93.7453 109.604 95.2442 110.755 96.673C110.455 97.0319 110.097 97.3317 109.681 97.5723C109.266 97.8129 108.841 97.9047 108.408 97.8477C107.968 97.7792 107.61 97.5084 107.336 97.0354C107.056 96.5508 106.622 95.6694 106.036 94.3911C105.449 93.1128 104.826 91.9026 104.164 90.7603C103.496 89.6066 102.816 88.567 102.126 87.6416C100.77 88.5195 99.7937 89.3472 99.1962 90.1246C98.9041 89.9395 98.6644 89.6854 98.4773 89.3623C98.2835 89.0277 98.2391 88.6451 98.344 88.2145C98.449 87.7839 98.7034 87.4516 99.1072 87.2177Z" fill="black"/>
<line x1="134.857" y1="36.4668" x2="140.498" y2="46.2049" stroke="black"/>
<line x1="148.959" y1="60.8122" x2="154.6" y2="70.5504" stroke="black"/>
<line x1="141.626" y1="48.1526" x2="147.267" y2="57.8908" stroke="black"/>
<line x1="156.292" y1="73.4718" x2="161.933" y2="83.21" stroke="black"/>
<line x1="163.061" y1="85.1577" x2="168.701" y2="94.8959" stroke="black"/>
<path d="M187.517 84.7023L17.6329 80.5812L17.0189 105.895C17.0189 105.895 30.0116 103.959 29.7796 113.522C29.5476 123.085 16.6641 120.521 16.6641 120.521L16.0227 146.96L185.906 151.081L186.548 124.642C186.548 124.642 173.596 124.891 173.787 117.015C173.978 109.14 186.902 110.016 186.902 110.016L187.517 84.7023Z" fill="#52BBA8" stroke="#52BBA8"/>
<rect x="34.1403" y="96.1788" width="121.542" height="37.1378" transform="rotate(1.38965 34.1403 96.1788)" fill="#C8D1DC"/>
<path d="M63.9875 107.978L68.2048 108.14C70.3908 108.193 71.9923 108.152 73.0092 108.016C73.1491 108.3 73.2146 108.622 73.2059 108.981C73.1972 109.341 73.0293 109.664 72.7023 109.95C72.3756 110.222 71.9856 110.352 71.5324 110.341L69.2394 110.026C69.2371 110.119 69.1938 110.531 69.1094 111.263C68.8791 113.058 68.742 114.862 68.698 116.674C68.654 118.487 68.75 120.303 68.9859 122.123C68.5422 122.272 68.0804 122.341 67.6005 122.329C67.1207 122.318 66.7107 122.175 66.3706 121.9C66.0308 121.611 65.8676 121.194 65.8808 120.647C65.8944 120.087 65.9848 119.109 66.1521 117.713C66.3193 116.317 66.4189 114.959 66.4509 113.639C66.4833 112.306 66.4467 111.065 66.3412 109.915C64.7264 109.956 63.4613 110.152 62.5458 110.503C62.3933 110.193 62.3216 109.851 62.3306 109.478C62.34 109.091 62.5019 108.742 62.8162 108.429C63.1306 108.117 63.521 107.966 63.9875 107.978ZM77.3186 122.325C76.8882 122.475 76.4331 122.544 75.9532 122.532C75.4734 122.52 75.0572 122.357 74.7047 122.042C74.3656 121.727 74.2025 121.303 74.2155 120.769C74.2284 120.236 74.3198 119.218 74.4896 117.715C74.6598 116.199 74.7558 114.988 74.7778 114.081C74.8344 111.748 74.7392 109.899 74.4923 108.533C74.9227 108.383 75.3779 108.314 75.8577 108.326C76.3376 108.337 76.7471 108.501 77.0862 108.816C77.4387 109.131 77.6084 109.555 77.5955 110.088C77.5826 110.621 77.491 111.646 77.3209 113.163C77.151 114.665 77.0551 115.87 77.0331 116.777C76.9765 119.109 77.0717 120.959 77.3186 122.325ZM86.1469 108.335C87.3066 108.363 88.3114 108.728 89.1613 109.429C90.0112 110.129 90.4231 111.02 90.3969 112.099C90.383 112.672 90.2116 113.142 89.8826 113.507C89.5536 113.873 89.1559 114.05 88.6894 114.038C88.2228 114.027 87.8511 113.958 87.5741 113.831C87.6192 113.619 87.6447 113.393 87.6505 113.153C87.6576 112.313 87.4675 111.628 87.0802 111.099C86.6932 110.556 86.1132 110.275 85.3401 110.256C84.5803 110.238 83.8679 110.467 83.2028 110.944C82.8026 111.495 82.4849 112.221 82.2497 113.122C82.0144 114.023 81.8861 114.914 81.8648 115.793C81.8292 117.26 82.0792 118.499 82.6148 119.513C83.164 120.513 84.0385 121.028 85.2381 121.057C86.3445 121.084 87.1011 120.682 87.508 119.852C87.8857 119.127 88.0893 118.158 88.1187 116.945C88.7985 116.962 89.3619 117.102 89.809 117.367C90.2564 117.618 90.4733 118.023 90.4597 118.583C90.428 119.889 89.8285 120.961 88.6611 121.8C87.4941 122.625 86.1908 123.021 84.7512 122.986C82.8718 122.94 81.4606 122.286 80.5176 121.022C79.5749 119.746 79.1295 118.041 79.1812 115.908C79.2329 113.776 79.8836 111.971 81.1331 110.494C82.3963 109.004 84.0675 108.285 86.1469 108.335ZM98.1284 115.268C98.7873 116.697 99.6018 118.031 100.572 119.268C101.556 120.506 102.484 121.268 103.357 121.556C103.344 122.116 103.187 122.546 102.886 122.845C102.585 123.145 102.162 123.288 101.615 123.275C100.895 123.257 100.075 122.737 99.1524 121.714C98.2439 120.679 97.4516 119.526 96.7756 118.256C96.0995 116.986 95.633 115.874 95.376 114.921C96.7095 114.38 97.8574 113.521 98.8195 112.344C99.782 111.153 100.277 109.972 100.306 108.799C100.879 108.813 101.37 108.924 101.778 109.134C102.2 109.345 102.405 109.67 102.395 110.11C102.378 110.803 101.944 111.633 101.094 112.599C100.244 113.565 99.2551 114.455 98.1284 115.268ZM95.1259 122.757C94.6955 122.907 94.2403 122.976 93.7605 122.964C93.2806 122.952 92.8645 122.789 92.512 122.474C92.1729 122.159 92.0098 121.735 92.0227 121.201C92.0357 120.668 92.127 119.65 92.2969 118.147C92.467 116.631 92.5631 115.419 92.5851 114.513C92.6417 112.18 92.5465 110.331 92.2996 108.965C92.73 108.815 93.1851 108.746 93.665 108.758C94.1448 108.769 94.5543 108.933 94.8935 109.248C95.2459 109.563 95.4157 109.987 95.4027 110.52C95.3898 111.053 95.2983 112.078 95.1281 113.594C94.9583 115.097 94.8624 116.302 94.8404 117.209C94.7838 119.541 94.879 121.391 95.1259 122.757ZM113.835 120.69C113.986 121.054 114.056 121.462 114.045 121.916C114.034 122.369 113.864 122.758 113.536 123.084C113.222 123.396 112.838 123.547 112.385 123.536C110.972 123.502 108.761 123.368 105.753 123.135C105.513 123.116 105.302 123.037 105.118 122.9C104.935 122.748 104.846 122.566 104.852 122.353C104.869 121.646 104.951 120.455 105.098 118.778C105.259 117.101 105.357 115.536 105.392 114.084C105.428 112.617 105.329 110.934 105.095 109.035C106.079 109.139 107.404 109.211 109.071 109.251C110.737 109.292 112.332 109.21 113.858 109.007C114.011 109.304 114.082 109.66 114.072 110.073C114.062 110.473 113.894 110.829 113.566 111.141C113.252 111.44 112.862 111.584 112.395 111.573C111.942 111.562 111.21 111.477 110.201 111.319C109.204 111.162 108.466 111.077 107.986 111.066C107.847 112.409 107.756 113.674 107.714 114.86C108.552 114.96 109.451 115.022 110.41 115.046C111.383 115.069 112.22 114.949 112.92 114.686C113.073 114.983 113.144 115.339 113.134 115.752C113.124 116.152 112.956 116.514 112.628 116.84C112.313 117.152 111.936 117.303 111.496 117.293C111.07 117.282 110.432 117.187 109.583 117.006C108.734 116.812 108.089 116.71 107.649 116.699C107.598 118.805 107.608 120.352 107.677 121.341C108.315 121.41 108.815 121.449 109.175 121.457C110.934 121.5 112.487 121.244 113.835 120.69ZM116.667 109.256L120.885 109.418C123.071 109.471 124.672 109.43 125.689 109.294C125.829 109.578 125.894 109.9 125.886 110.259C125.877 110.619 125.709 110.942 125.382 111.227C125.055 111.5 124.665 111.63 124.212 111.619L121.919 111.304C121.917 111.397 121.874 111.809 121.789 112.541C121.559 114.336 121.422 116.14 121.378 117.952C121.334 119.765 121.43 121.581 121.666 123.401C121.222 123.55 120.76 123.619 120.28 123.607C119.8 123.596 119.39 123.452 119.05 123.177C118.711 122.889 118.547 122.472 118.561 121.925C118.574 121.365 118.665 120.387 118.832 118.991C118.999 117.595 119.099 116.237 119.131 114.917C119.163 113.584 119.127 112.343 119.021 111.193C117.406 111.234 116.141 111.43 115.226 111.781C115.073 111.471 115.001 111.129 115.01 110.756C115.02 110.369 115.182 110.02 115.496 109.707C115.81 109.395 116.201 109.244 116.667 109.256Z" fill="black"/>
<line x1="166.654" y1="83.6334" x2="166.381" y2="94.8839" stroke="black"/>
<line x1="165.972" y1="111.76" x2="165.699" y2="123.01" stroke="black"/>
<line x1="166.326" y1="97.1341" x2="166.053" y2="108.385" stroke="black"/>
<line x1="165.617" y1="126.386" x2="165.344" y2="137.636" stroke="black"/>
<line x1="165.289" y1="139.886" x2="165.016" y2="151.137" stroke="black"/>
</svg>
