<svg id="Group_403" data-name="Group 403" xmlns="http://www.w3.org/2000/svg" width="101.887" height="101.887" viewBox="0 0 101.887 101.887">
  <path id="Path_239" data-name="Path 239" d="M98.248,72.776H90.971V58.221a3.639,3.639,0,0,0-3.639-3.639H54.582V29.111H72.776a3.639,3.639,0,0,0,3.639-3.639V3.639A3.639,3.639,0,0,0,72.776,0H29.111a3.639,3.639,0,0,0-3.639,3.639V25.472a3.639,3.639,0,0,0,3.639,3.639H47.3V54.582H14.555a3.639,3.639,0,0,0-3.639,3.639V72.777H3.639A3.639,3.639,0,0,0,0,76.415V98.248a3.639,3.639,0,0,0,3.639,3.639H25.472a3.639,3.639,0,0,0,3.639-3.639V76.415a3.639,3.639,0,0,0-3.639-3.639H18.194V61.86H47.3V72.776H40.027a3.639,3.639,0,0,0-3.639,3.639V98.248a3.639,3.639,0,0,0,3.639,3.639H61.86A3.639,3.639,0,0,0,65.5,98.248V76.415a3.639,3.639,0,0,0-3.639-3.639H54.582V61.86H83.693V72.776H76.415a3.639,3.639,0,0,0-3.639,3.639V98.248a3.639,3.639,0,0,0,3.639,3.639H98.248a3.639,3.639,0,0,0,3.639-3.639V76.415A3.639,3.639,0,0,0,98.248,72.776Z"/>
</svg>
