<svg width="200" height="200" viewBox="0 0 200 200" fill="none" xmlns="http://www.w3.org/2000/svg">
<rect x="135" y="176" width="30" height="63" transform="rotate(-90 135 176)" fill="#AEB5C0"/>
<path d="M14 176L14 137H76V176H14Z" fill="#AEB5C0"/>
<path d="M46.58 162.076C46.58 162.348 46.484 162.584 46.292 162.784C46.108 162.976 45.848 163.072 45.512 163.072C45.176 163.072 44.588 163.048 43.748 163C42.908 162.952 42.26 162.928 41.804 162.928C41.62 162.656 41.528 162.372 41.528 162.076C41.528 161.772 41.652 161.456 41.9 161.128C42.148 160.792 42.448 160.48 42.8 160.192C43.152 159.896 43.5 159.6 43.844 159.304C44.196 159.008 44.496 158.68 44.744 158.32C44.992 157.96 45.116 157.62 45.116 157.3C45.116 156.972 45.028 156.704 44.852 156.496C44.676 156.288 44.436 156.184 44.132 156.184C43.828 156.184 43.576 156.268 43.376 156.436C43.216 156.676 43.136 156.952 43.136 157.264C43.136 157.568 43.16 157.804 43.208 157.972C43.048 158.012 42.916 158.032 42.812 158.032C42.492 158.032 42.22 157.944 41.996 157.768C41.78 157.584 41.672 157.34 41.672 157.036C41.672 156.452 41.944 155.976 42.488 155.608C43.032 155.24 43.636 155.056 44.3 155.056C44.964 155.056 45.512 155.236 45.944 155.596C46.376 155.948 46.592 156.436 46.592 157.06C46.592 157.428 46.476 157.8 46.244 158.176C46.012 158.552 45.732 158.9 45.404 159.22C45.076 159.532 44.744 159.84 44.408 160.144C43.616 160.856 43.22 161.456 43.22 161.944C44.476 161.928 45.548 161.728 46.436 161.344C46.532 161.56 46.58 161.804 46.58 162.076Z" fill="black"/>
<path d="M165.4 159.972C165.24 160.012 165.108 160.032 165.004 160.032C164.684 160.032 164.412 159.944 164.188 159.768C163.972 159.584 163.864 159.34 163.864 159.036C163.864 158.452 164.136 157.976 164.68 157.608C165.224 157.24 165.828 157.056 166.492 157.056C167.164 157.056 167.712 157.22 168.136 157.548C168.568 157.868 168.784 158.336 168.784 158.952C168.784 159.672 168.464 160.256 167.824 160.704C168.248 160.84 168.572 161.06 168.796 161.364C169.028 161.668 169.144 162.024 169.144 162.432C169.144 163.24 168.812 163.896 168.148 164.4C167.484 164.896 166.704 165.144 165.808 165.144C165.192 165.144 164.66 165.02 164.212 164.772C163.764 164.524 163.54 164.152 163.54 163.656C163.54 163.336 163.648 163.08 163.864 162.888C164.08 162.696 164.352 162.6 164.68 162.6C164.856 162.6 165.012 162.62 165.148 162.66C165.092 162.82 165.064 162.972 165.064 163.116C165.064 163.404 165.172 163.628 165.388 163.788C165.604 163.94 165.896 164.016 166.264 164.016C166.64 164.016 166.948 163.9 167.188 163.668C167.428 163.428 167.548 163.116 167.548 162.732C167.548 162.348 167.444 162.052 167.236 161.844C167.028 161.636 166.752 161.532 166.408 161.532C166.224 161.532 166.064 161.484 165.928 161.388C165.8 161.284 165.736 161.16 165.736 161.016C165.736 160.864 165.756 160.728 165.796 160.608C165.94 160.632 166.084 160.644 166.228 160.644C166.596 160.644 166.868 160.516 167.044 160.26C167.22 160.004 167.308 159.7 167.308 159.348C167.308 158.996 167.22 158.716 167.044 158.508C166.868 158.292 166.628 158.184 166.324 158.184C166.02 158.184 165.764 158.264 165.556 158.424C165.404 158.696 165.328 158.976 165.328 159.264C165.328 159.552 165.352 159.788 165.4 159.972Z" fill="black"/>
<path d="M76 176L76 128H135V176H76Z" fill="#AEB5C0"/>
<path d="M101.54 144.832C101.988 144.648 102.468 144.328 102.98 143.872C103.228 143.648 103.46 143.456 103.676 143.296C103.892 143.136 104.156 143.056 104.468 143.056C104.788 143.056 105.06 143.112 105.284 143.224C105.092 144.744 104.996 146.168 104.996 147.496C104.996 148.824 105.068 149.968 105.212 150.928C104.988 151.024 104.728 151.072 104.432 151.072C104.136 151.072 103.896 150.976 103.712 150.784C103.528 150.592 103.436 150.336 103.436 150.016C103.436 149.688 103.5 149.004 103.628 147.964C103.756 146.924 103.824 145.796 103.832 144.58C103.744 144.66 103.596 144.82 103.388 145.06C102.924 145.596 102.56 145.864 102.296 145.864C102.04 145.864 101.848 145.768 101.72 145.576C101.6 145.384 101.54 145.136 101.54 144.832Z" fill="black"/>
<path d="M97.7185 103.839L97.3676 118.346L97.3125 120.066C97.2358 122.529 97.201 124.042 97.1978 125.223L97.1976 125.398L101.81 125.452L101.979 118.47L102.103 114.699C102.125 114.022 102.144 113.412 102.162 112.826L102.186 111.986C102.276 108.878 102.326 106.381 102.331 104.256L102.331 103.894L97.7185 103.839Z" fill="#EBBAAA"/>
<path d="M106.119 103.839L105.768 118.346L105.713 120.066C105.636 122.529 105.601 124.042 105.598 125.223L105.598 125.398L110.21 125.452L110.379 118.47L110.503 114.699C110.525 114.022 110.544 113.412 110.562 112.826L110.587 111.986C110.677 108.878 110.726 106.381 110.731 104.256L110.731 103.894L106.119 103.839Z" fill="#EBBAAA"/>
<path d="M105.454 100.557C101.062 100.557 97.5021 98.8927 97.5021 96.8391C97.5021 94.7855 101.062 93.1207 105.454 93.1207C109.846 93.1207 113.406 94.7855 113.406 96.8391C113.406 98.8927 109.846 100.557 105.454 100.557Z" fill="#D2D7DB"/>
<path d="M114.002 92.6783H104.707L105.051 120.532V122.178H111.385L111.669 120.091L114.002 92.6783Z" fill="#D2D7DB"/>
<path d="M104.795 93.0876H95.4683L95.8244 119.595L96.2375 121.498L102.228 121.906L102.452 119.867L104.795 93.0876Z" fill="#D2D7DB"/>
<path d="M90.0982 126.596C90.0982 124.509 91.4564 124.254 93.6701 123.539C94.7543 123.189 95.8608 122.884 96.9835 122.7C97.6891 122.585 97.8786 123.197 99.118 123.197C100.223 123.197 101.602 122.657 101.888 122.54C101.923 122.525 101.966 122.512 101.994 122.538C102.001 122.544 102.007 122.552 102.011 122.56C102.143 122.828 102.836 124.288 102.836 125.457C102.836 126.35 102.914 127.229 102.664 127.683C102.551 127.888 101.848 128 101.612 128H90.4812C90.2697 128 90.0982 126.804 90.0982 126.596Z" fill="#D0D4DB"/>
<mask id="mask0" mask-type="alpha" maskUnits="userSpaceOnUse" x="90" y="122" width="13" height="6">
<path fill-rule="evenodd" clip-rule="evenodd" d="M90.0982 126.596C90.0982 125.554 90.4368 124.969 91.0515 124.555C94.121 122.488 98.2255 122.517 101.941 122.517C101.971 122.517 101.998 122.534 102.011 122.56C102.143 122.828 102.836 124.288 102.836 125.457C102.836 126.35 102.914 127.229 102.664 127.683C102.551 127.888 101.848 128 101.612 128H90.4812C90.2697 128 90.0982 126.804 90.0982 126.596Z" fill="white"/>
</mask>
<g mask="url(#mask0)">
<path d="M97.6391 123.772L96.7411 124.118C97.1387 125.124 99.0086 127.215 99.9615 127.746L99.9901 127.762L100.449 126.925C99.7132 126.532 97.9926 124.617 97.6491 123.796L97.6391 123.772Z" fill="#DE9F40"/>
<path d="M102.708 123.531C102.178 123.971 101.264 124.301 100.059 124.521C99.1225 124.692 98.0983 124.784 96.967 124.829C95.6001 124.883 93.4914 125.969 92.9911 126.776L92.9764 126.8L93.6921 127.207C93.8126 127.001 94.3128 126.622 94.9315 126.297L94.9636 126.28C95.6839 125.907 96.4325 125.666 97 125.644C98.1672 125.598 99.2273 125.502 100.209 125.323C101.522 125.084 102.544 124.718 103.209 124.18L103.24 124.155L102.708 123.531Z" fill="#576478"/>
<path d="M104.532 122.545C103.548 123.364 101.505 124.2 98.9761 125.003L98.8206 125.052C97.5731 125.444 95.9903 126.653 95.504 127.455L95.4896 127.48L96.2054 127.887C96.5685 127.265 98.0029 126.164 99.0712 125.829C100.147 125.491 101.156 125.141 102.107 124.755C103.397 124.232 104.398 123.713 105.034 123.195L105.065 123.169L104.532 122.545Z" fill="#576478"/>
<path d="M91.4852 124.286C90.5936 123.789 90.9433 124.774 90.1422 125.193L88.4457 128.403H101.947C102.277 127.937 103.575 126.895 102.569 126.895C100.365 126.895 97.7056 126.965 96.4332 126.895C95.1609 126.825 91.5187 127.077 91.7326 125.96C91.98 124.669 92.2981 124.739 91.4852 124.286Z" fill="#AEB5C0"/>
</g>
<path d="M95.8499 122.562C95.7796 122.654 95.7986 122.786 95.8923 122.855L96.0375 122.961C96.0983 123.005 96.1456 123.04 96.1911 123.076C96.2868 123.152 96.3658 123.223 96.4279 123.291L96.4338 123.298L94.4674 122.667C94.283 122.608 94.1236 122.803 94.216 122.967L94.2217 122.977L94.7271 123.779L93.1249 123.261C92.9346 123.199 92.774 123.407 92.8791 123.571L92.8853 123.58L93.8042 124.871C93.8716 124.965 94.0038 124.988 94.0997 124.922C94.1919 124.858 94.2167 124.734 94.1583 124.641L94.1512 124.63L93.5994 123.855L95.1487 124.357C95.3332 124.416 95.4931 124.221 95.4006 124.057L95.3949 124.047L94.8883 123.242L96.7458 123.838C96.8789 123.881 97.0153 123.787 97.023 123.651L97.0234 123.639C97.0234 123.306 96.8199 123.036 96.4557 122.749L96.4176 122.719C96.3982 122.704 96.3783 122.689 96.3572 122.674L96.1467 122.52C96.053 122.451 95.9201 122.469 95.8499 122.562Z" fill="white"/>
<path d="M117.444 126.596C117.444 124.509 116.086 124.254 113.873 123.539C112.788 123.189 111.682 122.884 110.559 122.7C109.854 122.585 109.664 123.197 108.425 123.197C107.319 123.197 105.941 122.657 105.655 122.54C105.619 122.525 105.577 122.512 105.548 122.538C105.541 122.544 105.536 122.552 105.531 122.56C105.399 122.828 104.707 124.288 104.707 125.457C104.707 126.35 104.629 127.229 104.879 127.683C104.991 127.888 105.695 128 105.931 128H117.061C117.273 128 117.444 126.804 117.444 126.596Z" fill="#D0D4DB"/>
<mask id="mask1" mask-type="alpha" maskUnits="userSpaceOnUse" x="104" y="122" width="14" height="6">
<path fill-rule="evenodd" clip-rule="evenodd" d="M117.444 126.596C117.444 125.554 117.106 124.969 116.491 124.555C113.422 122.488 109.317 122.517 105.602 122.517C105.572 122.517 105.544 122.534 105.531 122.56C105.399 122.828 104.707 124.288 104.707 125.457C104.707 126.35 104.629 127.229 104.879 127.683C104.991 127.888 105.695 128 105.931 128H117.061C117.273 128 117.444 126.804 117.444 126.596Z" fill="white"/>
</mask>
<g mask="url(#mask1)">
<path d="M109.904 123.772C109.588 124.57 107.872 126.489 107.116 126.913L107.093 126.925L107.553 127.762C108.487 127.262 110.362 125.177 110.789 124.149L110.802 124.118L109.904 123.772Z" fill="#DE9F40"/>
<path d="M104.835 123.531L104.303 124.155C104.967 124.707 106 125.08 107.334 125.323C108.315 125.502 109.375 125.598 110.543 125.644C111.098 125.666 111.828 125.897 112.534 126.257L112.579 126.28C113.202 126.603 113.71 126.984 113.844 127.197L113.85 127.207L114.566 126.8C114.094 125.991 111.956 124.883 110.576 124.829C109.444 124.784 108.42 124.692 107.484 124.521C106.298 124.305 105.393 123.982 104.86 123.552L104.835 123.531Z" fill="#576478"/>
<path d="M103.01 122.545L102.478 123.169C103.112 123.696 104.125 124.224 105.436 124.755C106.386 125.141 107.396 125.491 108.471 125.829C109.529 126.161 110.945 127.244 111.326 127.868L111.337 127.887L112.053 127.48C111.584 126.677 109.982 125.447 108.722 125.052L108.566 125.003C106.063 124.209 104.036 123.381 103.041 122.57L103.01 122.545Z" fill="#576478"/>
<path d="M116.057 124.286C116.949 123.789 116.599 124.774 117.4 125.193L119.097 128.403H105.596C105.266 127.937 103.967 126.895 104.974 126.895C107.177 126.895 109.837 126.965 111.109 126.895C112.382 126.825 116.024 127.077 115.81 125.96C115.562 124.669 115.244 124.739 116.057 124.286Z" fill="#AEB5C0"/>
</g>
<path d="M111.693 122.562C111.625 122.473 111.499 122.452 111.406 122.513L111.391 122.524L111.253 122.624C111.188 122.671 111.137 122.709 111.087 122.749C110.723 123.036 110.519 123.306 110.519 123.639C110.519 123.777 110.652 123.876 110.785 123.842L110.797 123.838L112.654 123.242L112.148 124.047C112.045 124.21 112.2 124.41 112.383 124.36L112.394 124.357L113.943 123.855L113.391 124.63C113.326 124.721 113.345 124.845 113.433 124.914L113.443 124.922C113.535 124.986 113.661 124.967 113.731 124.881L113.738 124.871L114.657 123.58C114.772 123.418 114.617 123.206 114.428 123.257L114.418 123.261L112.816 123.779L113.321 122.977C113.423 122.814 113.269 122.615 113.086 122.664L113.075 122.667L111.109 123.298L111.115 123.291C111.172 123.229 111.243 123.163 111.328 123.095L111.351 123.076L111.404 123.035C111.416 123.026 111.429 123.017 111.442 123.007L111.65 122.855C111.744 122.786 111.763 122.654 111.693 122.562Z" fill="white"/>
<path d="M114.601 69.5402C114.687 67.8416 113.487 66.342 111.793 66.0304L104.422 64.6744L97.0516 66.0304C95.3579 66.342 94.1583 67.8416 94.2439 69.5402L94.7829 80.2397L94.1259 95.0276C94.1088 95.4142 94.4217 95.737 94.8139 95.737H114.031C114.423 95.737 114.736 95.4142 114.719 95.0276L114.062 80.2397L114.601 69.5402Z" fill="#373434"/>
<path d="M114.628 70.5757C113.937 69.3659 112.383 68.9385 111.158 69.6209C109.945 70.2965 109.508 71.8066 110.17 73.0106L110.191 73.047C111.458 75.2646 112.784 79.3812 113.664 83.7085L113.706 83.9151C114.09 85.8402 114.356 87.6686 114.471 89.175L114.477 89.2554C114.534 90.0245 114.549 90.6876 114.523 91.2138L114.518 91.302C114.506 91.5036 114.488 91.6766 114.465 91.8172L114.456 91.8704C114.443 91.9475 114.43 91.9985 114.423 92.0189L114.422 92.0228C113.941 93.3281 114.623 94.7711 115.946 95.2458C117.268 95.7204 118.73 95.047 119.21 93.7417C119.958 91.7119 119.659 87.6285 118.66 82.7183C117.683 77.9168 116.209 73.3423 114.628 70.5757Z" fill="#EBBAAA"/>
<path d="M97.6872 69.6209C96.4618 68.9385 94.9079 69.3659 94.2167 70.5757C92.6357 73.3423 91.162 77.9168 90.1853 82.7183C89.1865 87.6285 88.887 91.7119 89.6347 93.7417C90.1156 95.047 91.5773 95.7204 92.8995 95.2458C94.2086 94.7758 94.8902 93.3569 94.4372 92.062L94.4231 92.0228C94.4156 92.0023 94.3979 91.9305 94.3797 91.8172C94.3539 91.6565 94.3341 91.4535 94.3223 91.2138L94.3181 91.1166C94.2984 90.6068 94.3146 89.9778 94.3676 89.2554C94.4831 87.6805 94.7668 85.7436 95.1808 83.7085C96.061 79.3812 97.3872 75.2646 98.6544 73.047C99.3457 71.8372 98.9127 70.3033 97.6872 69.6209Z" fill="#EBBAAA"/>
<path d="M107.381 74.297L113.358 86.5428C113.358 86.5428 118.615 83.6991 120.632 81.8507C120.632 81.8507 119.802 77.1585 118.615 72.8751C117.927 70.3913 116.269 68.4513 114.998 67.2597C113.979 66.305 112.647 65.7935 111.266 65.5367L108.677 65.0549L107.381 74.297Z" fill="#5788A8"/>
<path d="M120.624 81.7786C120.481 80.6356 119.326 79.8985 118.212 80.2394L115.313 81.1261C114.368 81.4153 113.743 82.3014 113.795 83.2768L113.81 83.5519C113.816 83.6588 113.83 83.7651 113.852 83.8698L115.399 91.2651C115.533 91.9052 116.092 92.3728 116.753 92.3983L120.284 92.5344C121.171 92.5687 121.878 91.8097 121.769 90.9396L120.624 81.7786Z" fill="#5788A8"/>
<path d="M121.64 92.5679L122 89.5109C119.695 89.1127 116.527 89.6768 115.23 90.0085L115.591 92.5679C115.591 92.5679 117.463 92.7811 118.615 92.7811C119.767 92.7811 121.64 92.5679 121.64 92.5679Z" fill="#6EA5C9"/>
<path d="M114.15 81.1219L118.255 78.7758L119.191 80.6953L114.15 81.1219Z" fill="#4F7F9D"/>
<path d="M115.487 81.3559L119.4 81.8098L118.778 83.0097L115.487 82.2418V81.3559Z" fill="#4F7F9D"/>
<path d="M114.762 70.75C114.539 67.6221 111.885 65.197 108.709 65.197C108.075 65.197 107.493 65.5544 107.216 66.1173L105.148 70.3158C105.148 70.3158 106.66 78.5625 106.66 82.6149C106.66 86.0244 107.374 94.2654 107.601 96.794C107.637 97.2019 108.015 97.4923 108.425 97.4305L115.531 96.3605C115.893 96.3059 116.156 95.9917 116.142 95.6302L115.663 83.3969L114.762 70.75Z" fill="#5991B6"/>
<path d="M106.045 70.3312L105.116 70.4425C106.415 81.012 107.397 92.9042 107.416 96.7203L107.417 96.8335H108.353C108.353 93.1367 107.382 81.2816 106.084 70.6529L106.045 70.3312Z" fill="#5383A2"/>
<path d="M113.989 79.3462L113.82 75.5302L108.393 75.0561C108.764 76.7393 108.87 79.142 108.924 80.3433C112.981 82.0801 112.6 81.5301 113.989 79.3462Z" fill="#5383A2"/>
<path d="M108.559 75.065L114.083 74.3288L114.506 75.8761L112.336 77.6062L109.271 76.4575L108.559 75.065Z" fill="#6EA5C9"/>
<path d="M107.779 97.7872L115.917 96.9381C116.1 96.919 116.239 96.7665 116.239 96.5847V95.3405L107.381 96.2525V97.4337C107.381 97.6448 107.566 97.8094 107.779 97.7872Z" fill="#5383A2"/>
<path d="M105.148 70.6712L107.921 64.1306L110.945 65.0193L110.621 72.3063L105.148 70.6712Z" fill="#5383A3"/>
<path d="M101.619 74.2792L95.6421 86.525C95.6421 86.525 90.3848 83.6813 88.3684 81.8329C88.3684 81.8329 89.1982 77.1408 90.3848 72.8573C91.1668 70.0349 93.2008 67.9148 94.4973 66.7968C95.222 66.1721 96.1292 65.8174 97.0746 65.6415L100.323 65.0371L101.619 74.2792Z" fill="#5788A8"/>
<path d="M88.3759 81.7787C88.5188 80.6357 89.6742 79.8986 90.7885 80.2395L93.687 81.1262C94.6322 81.4154 95.2575 82.3015 95.2049 83.277L95.1901 83.552C95.1843 83.6589 95.1704 83.7651 95.1485 83.8699L93.6013 91.2652C93.4673 91.9054 92.9086 92.3729 92.247 92.3984L88.7166 92.5346C87.8291 92.5688 87.1221 91.8098 87.2309 90.9397L88.3759 81.7787Z" fill="#5788A8"/>
<path d="M87.3602 92.568L87.0001 89.511C89.3046 89.1129 92.4734 89.6769 93.7696 90.0087L93.4096 92.568C93.4096 92.568 91.5371 92.7813 90.3848 92.7813C89.2326 92.7813 87.3602 92.568 87.3602 92.568Z" fill="#6EA5C9"/>
<path d="M94.9939 80.1266L90.889 77.7805L89.9528 79.7001L94.9939 80.1266Z" fill="#4F7F9D"/>
<path d="M93.6567 80.3606L89.7445 80.8146L90.3661 82.0143L93.6567 81.2465V80.3606Z" fill="#4F7F9D"/>
<path d="M94.821 70.1861C95.124 67.3499 97.5469 65.197 100.436 65.197C101.028 65.197 101.568 65.5306 101.826 66.056L103.924 70.3158C103.924 70.3158 102.412 78.5625 102.412 82.6149C102.412 86.0244 101.698 94.2654 101.471 96.794C101.435 97.2019 101.057 97.4923 100.647 97.4305L93.5413 96.3605C93.1791 96.3059 92.9161 95.9917 92.9302 95.6302L93.4095 83.3969L94.821 70.1861Z" fill="#5991B6"/>
<path d="M103.027 70.3312C101.724 80.9339 100.739 92.8581 100.72 96.7189L100.719 96.8335H101.656C101.656 93.1812 102.624 81.3582 103.917 70.7632L103.957 70.4425L103.027 70.3312Z" fill="#5383A2"/>
<path d="M95.0832 79.3462L95.2521 75.5302L100.679 75.0561C100.308 76.7393 100.202 79.142 100.149 80.3433C96.0912 82.0801 96.472 81.5301 95.0832 79.3462Z" fill="#5383A2"/>
<path d="M100.513 75.065L94.9892 74.3288L94.5661 75.8761L96.7357 77.6062L99.8011 76.4575L100.513 75.065Z" fill="#6EA5C9"/>
<path d="M101.293 97.7872L93.1556 96.9381C92.9724 96.919 92.8333 96.7665 92.8333 96.5847V95.3405L101.691 96.2525V97.4337C101.691 97.6448 101.506 97.8094 101.293 97.7872Z" fill="#5383A2"/>
<path d="M103.852 70.6712L101.367 64.1306L98.1266 65.0193L98.4506 72.3063L103.852 70.6712Z" fill="#5383A3"/>
<rect width="5.37057" height="6.52519" rx="2.68529" transform="matrix(-1 0 0 1 107.323 60.868)" fill="#EBBAAA"/>
<path d="M94.7733 57.0299C92.5196 57.0299 90.6926 55.2264 90.6926 53.0015C90.6926 50.7767 92.5196 48.9731 94.7733 48.9731C97.027 48.9731 98.854 50.7767 98.854 53.0015C98.854 55.2264 97.027 57.0299 94.7733 57.0299Z" fill="#EBBAAA"/>
<path d="M113.983 57.2338C116.237 57.2338 118.064 55.4303 118.064 53.2055C118.064 50.9806 116.237 49.177 113.983 49.177C111.73 49.177 109.903 50.9806 109.903 53.2055C109.903 55.4303 111.73 57.2338 113.983 57.2338Z" fill="#EBBAAA"/>
<path d="M115.792 45.9247C115.792 39.9879 110.917 35.1751 104.903 35.1751C98.7375 35.1751 93.8021 40.2229 94.0201 46.305L94.3695 56.0483C94.5665 61.5435 99.1363 65.8979 104.706 65.8979C109.937 65.8979 114.347 62.0502 114.99 56.9263L115.792 50.5365V45.9247Z" fill="#F4D4C9"/>
<path d="M102.566 58.6164C102.295 58.5069 101.986 58.6351 101.875 58.9026C101.764 59.1701 101.894 59.4757 102.165 59.5851C103.882 60.2788 105.474 60.298 106.823 59.5583C107.079 59.4179 107.171 59.0993 107.029 58.8466C106.887 58.5939 106.564 58.5029 106.308 58.6433C105.268 59.2135 104.007 59.1983 102.566 58.6164Z" fill="#C99584"/>
<path d="M104.265 39.5932C109.512 39.5932 113.972 40.9455 114.25 44.7203C114.665 50.3437 115.655 50.796 116.406 48.1882C116.521 47.7908 116.597 44.1855 116.613 43.7734C116.316 35.761 107.537 33.8261 104.265 33.8261C101.584 35.9799 99.0178 39.5932 104.265 39.5932Z" fill="#272727"/>
<path d="M115.905 44.7086C115.923 44.1603 115.568 43.7043 115.125 43.7043C114.664 43.7043 114.304 44.1935 114.348 44.7596L115.083 54.3513C115.095 54.5117 115.204 54.6335 115.334 54.6335C115.469 54.6335 115.58 54.5018 115.586 54.3352L115.905 44.7086Z" fill="#272727"/>
<path d="M93.7681 44.6636C93.7499 44.14 94.1044 43.7044 94.548 43.7044C95.0083 43.7044 95.3686 44.1717 95.3251 44.7124L94.5901 53.8737C94.5778 54.0269 94.469 54.1432 94.3393 54.1432C94.2037 54.1432 94.0928 54.0174 94.087 53.8583L93.7681 44.6636Z" fill="#272727"/>
<path d="M104.225 39.3213C98.8179 39.3213 95.5515 41.791 95.3286 45.6359C94.9938 50.5364 94.1252 52.0515 93.4782 43.8413C93.4093 35.1751 101.691 33.8156 105.062 33.8156C107.825 35.9694 109.632 39.3213 104.225 39.3213Z" fill="#272727"/>
<path d="M111.126 35.7594L111.867 37.4574L104.711 36.9622L96.7884 39.0494V38.0589L97.3506 37.7405V36.9622H98.0662V35.7594H98.9863L99.1908 34.8396H100.009L100.494 33.9198L101.338 34.2028L101.593 33.6368H102.462V33L103.638 33.6368L103.944 33L104.456 33.6368L104.967 33L105.938 33.6368L106.551 33L107.216 33.6368H107.676L108.187 34.2028L108.391 33.6368L109.26 34.8396L109.823 34.5566L110.564 35.9363L111.126 35.7594Z" fill="#272727"/>
<path d="M108.869 41.3912L109.791 39.0673L110.972 36.1267L98.3032 36.8064L101.635 41.9722L102.344 40.6442L103.124 41.3912L104.117 39.9803L104.756 41.3912L105.819 40.6442L107.167 41.3912L107.593 40.6442L108.869 41.3912Z" fill="#272727"/>
<path d="M100.329 50.2589C99.88 50.2589 99.5144 50.6129 99.5033 51.0538L99.503 51.0745V53.0285C99.503 53.4789 99.873 53.8441 100.329 53.8441C100.779 53.8441 101.144 53.4901 101.155 53.0492L101.156 53.0285V51.0745C101.156 50.624 100.786 50.2589 100.329 50.2589Z" fill="black"/>
<path d="M109.206 50.2589C108.757 50.2589 108.391 50.6129 108.38 51.0538L108.38 51.0745V53.0285C108.38 53.4789 108.75 53.8441 109.206 53.8441C109.655 53.8441 110.021 53.4901 110.032 53.0492L110.032 53.0285V51.0745C110.032 50.624 109.662 50.2589 109.206 50.2589Z" fill="black"/>
<path d="M103.486 51.2841V52.2357H106.015V51.2841H103.486Z" fill="black"/>
<path fill-rule="evenodd" clip-rule="evenodd" d="M113.175 52.62C113.175 50.5684 111.491 48.9052 109.412 48.9052C107.334 48.9052 105.649 50.5684 105.649 52.62C105.649 54.6717 107.334 56.3349 109.412 56.3349C111.491 56.3349 113.175 54.6717 113.175 52.62ZM106.338 52.62C106.338 50.9438 107.714 49.5849 109.412 49.5849C111.11 49.5849 112.487 50.9438 112.487 52.62C112.487 54.2963 111.11 55.6552 109.412 55.6552C107.714 55.6552 106.338 54.2963 106.338 52.62Z" fill="#B98E4F"/>
<path fill-rule="evenodd" clip-rule="evenodd" d="M103.827 52.7942C103.827 50.7425 102.142 49.0793 100.063 49.0793C97.9851 49.0793 96.3004 50.7425 96.3004 52.7942C96.3004 54.8458 97.9851 56.509 100.063 56.509C102.142 56.509 103.827 54.8458 103.827 52.7942ZM96.9889 52.7941C96.9889 51.1179 98.3654 49.759 100.063 49.759C101.761 49.759 103.138 51.1179 103.138 52.7941C103.138 54.4704 101.761 55.8293 100.063 55.8293C98.3654 55.8293 96.9889 54.4704 96.9889 52.7941Z" fill="#B98E4F"/>
<path d="M97.8705 47.0298C97.4905 47.0167 97.1717 47.3102 97.1584 47.6854C97.1453 48.0542 97.4324 48.3646 97.8032 48.3875L97.8224 48.3884L101.766 48.5245C102.146 48.5376 102.465 48.2441 102.478 47.869C102.491 47.5002 102.204 47.1897 101.834 47.1668L101.814 47.1659L97.8705 47.0298Z" fill="#393939"/>
<path d="M111.617 47.1463L107.671 47.1804C107.291 47.1837 106.985 47.4907 106.989 47.8661C106.992 48.2351 107.293 48.5328 107.664 48.5397L107.683 48.5398L111.629 48.5057C112.009 48.5024 112.315 48.1954 112.312 47.82C112.308 47.451 112.008 47.1533 111.636 47.1464L111.617 47.1463Z" fill="#393939"/>
<path d="M105.277 53.1743L104.258 53.7441C104.576 54.2976 104.757 54.8894 104.738 55.2926C104.723 55.5899 104.643 55.6802 104.359 55.6837L104.342 55.6838V56.8393C105.297 56.8393 105.864 56.2396 105.907 55.3477C105.938 54.7108 105.704 53.9331 105.301 53.2164L105.277 53.1743Z" fill="#EBBAAA"/>
<path d="M52.8148 80.8354L53.0209 81.5827L53.4129 82.9958L53.5957 83.6592L53.6901 84.0051C53.7809 84.3396 53.8619 84.6422 53.9394 84.9368L54.0176 85.2362L54.0648 85.4194C54.4073 86.7533 54.6579 87.8742 54.8452 88.9414C55.2865 91.4572 55.3635 93.6642 55.0356 95.906C54.6643 98.4441 53.7603 101.064 52.1999 103.951C51.5979 105.065 52.0127 106.456 53.1265 107.058C54.2402 107.66 55.6312 107.245 56.2332 106.131C58.0407 102.787 59.1203 99.6581 59.5721 96.5696C59.9759 93.8092 59.882 91.1191 59.361 88.1492L59.3314 87.9826L59.3009 87.8155C59.0846 86.6434 58.8041 85.4241 58.4325 83.9965L58.3408 83.647C58.2093 83.1492 58.067 82.6254 57.8869 81.9728L57.2568 79.6973L57.2364 79.6231C56.9017 78.4021 55.6405 77.6837 54.4195 78.0185C53.1985 78.3532 52.48 79.6144 52.8148 80.8354Z" fill="#EBBAAA"/>
<path d="M55.7252 106.21C56.4803 105.535 57.1635 104.369 57.1748 103.965C56.3096 103.717 54.4509 103.405 53.9385 104.133C53.2979 105.043 54.7813 107.052 55.7252 106.21Z" fill="#EBBAAA"/>
<path d="M50.8764 132.18L50.8716 132.116L50.867 132.042L50.8629 131.961C50.8521 131.728 50.8467 131.417 50.8475 131.041L50.848 130.901L50.8491 130.754C50.8571 129.873 50.8933 128.721 50.9544 127.353L50.9732 126.94L50.988 126.629C51.1039 124.226 51.2817 121.361 51.4602 118.901C51.5544 117.602 50.5779 116.473 49.2792 116.379C47.9806 116.285 46.8514 117.261 46.7572 118.56L46.7252 119.006L46.6841 119.591C46.5102 122.098 46.3448 124.876 46.2438 127.142L46.2262 127.546C46.1667 128.95 46.134 130.126 46.1322 131.031L46.1322 131.204L46.1331 131.377C46.1363 131.791 46.1473 132.144 46.1672 132.437C46.1831 132.669 46.2049 132.873 46.2371 133.062C46.3037 133.453 46.3962 133.768 46.6343 134.142C47.3333 135.241 48.7905 135.564 49.8891 134.865C50.806 134.282 51.1832 133.17 50.8764 132.18Z" fill="#161616"/>
<path d="M41.4362 129.198L41.4314 129.134L41.4269 129.06L41.4227 128.979C41.4119 128.746 41.4066 128.435 41.4073 128.059L41.4079 127.919L41.4089 127.772C41.417 126.891 41.4532 125.739 41.5142 124.37L41.5331 123.958L41.5478 123.647C41.6637 121.244 41.8416 118.379 42.0201 115.919C42.1143 114.621 41.1379 113.491 39.8392 113.397C38.5405 113.303 37.4113 114.279 37.3171 115.578L37.285 116.024L37.2518 116.497C37.0821 118.93 36.9197 121.633 36.8162 123.881L36.7929 124.404L36.773 124.878C36.7218 126.144 36.6937 127.212 36.692 128.049L36.692 128.222L36.6929 128.395C36.6961 128.809 36.7071 129.161 36.727 129.454C36.7429 129.687 36.7647 129.891 36.7969 130.08C36.8636 130.471 36.956 130.786 37.1941 131.16C37.8931 132.259 39.3504 132.582 40.4489 131.883C41.3658 131.3 41.743 130.188 41.4362 129.198Z" fill="#161616"/>
<path d="M53.8745 104.35L45.7836 104.639L45.9894 115.418V129.297H50.7731L53.6047 115.418L55.4927 106.845L53.8745 104.35Z" fill="#C5B493"/>
<path d="M51.0039 129.567L51.1776 128.151H45.8511V129.567H51.0039Z" fill="#998B6E"/>
<path d="M44.6407 110.052C40.1102 110.052 36.4376 108.161 36.4376 105.827C36.4376 103.494 40.1102 101.603 44.6407 101.603C49.1711 101.603 52.8437 103.494 52.8437 105.827C52.8437 108.161 49.1711 110.052 44.6407 110.052Z" fill="#C4B493"/>
<path d="M44.6575 104.62H35.7915L36.2095 129.364H41.9405L44.6575 104.62Z" fill="#C5B493"/>
<path d="M41.9673 129.634L42.1428 128.218H36.1758V129.533L41.9673 129.634Z" fill="#998B6E"/>
<path d="M58.1233 135.986C58.2575 135.684 58.1609 135.01 58.0857 134.896C58.0106 134.784 48.8828 134.07 48.8828 134.07C47.3678 133.958 44.5454 133.969 44.3378 134.784C43.8119 136.85 45.2397 136.85 46.4417 136.85C48.0944 136.85 48.2905 136.412 49.3711 136.55C49.9346 136.621 50.7609 137 54.5546 137C57.5974 137 57.8228 136.662 58.1233 135.986Z" fill="#C9D1DC"/>
<path d="M48.6952 130.895C47.1627 130.865 46.6543 129.881 46.5918 129.393H45.803C45.7279 129.505 45.4838 129.768 45.3147 130.557C45.0894 131.609 44.7137 131.797 44.4883 132.773C44.3323 133.449 44.3006 134.464 44.6762 135.027C45.2595 135.902 45.9908 135.816 47.2303 135.816C47.9441 135.816 49.146 135.628 50.2353 135.929C51.7561 136.348 55.9447 136.567 56.9965 136.229C58.7888 135.653 58.236 133.975 57.4849 133.337C56.1665 132.216 53.6201 132.293 52.9774 131.421C52.4515 130.707 52.1523 128.985 51.7754 128.567C51.0993 127.815 50.6399 128.477 50.7612 129.205C50.9114 130.107 50.6109 130.933 48.6952 130.895Z" fill="#3B434E"/>
<mask id="mask2" mask-type="alpha" maskUnits="userSpaceOnUse" x="44" y="128" width="15" height="9">
<path fill-rule="evenodd" clip-rule="evenodd" d="M48.6952 130.895C47.1627 130.865 46.6543 129.881 46.5918 129.393H45.803C45.7279 129.505 45.4838 129.768 45.3147 130.557C45.0894 131.609 44.7137 131.797 44.4883 132.773C44.3323 133.449 44.3006 134.464 44.6762 135.027C45.2595 135.902 45.9908 135.816 47.2303 135.816C47.9441 135.816 49.146 135.628 50.2353 135.929C51.7561 136.348 55.9447 136.567 56.9965 136.229C58.7888 135.653 58.236 133.975 57.4849 133.337C56.1665 132.216 53.6201 132.293 52.9774 131.421C52.4515 130.707 52.1523 128.985 51.7754 128.567C51.0993 127.815 50.6399 128.477 50.7612 129.205C50.9114 130.107 50.6109 130.933 48.6952 130.895Z" fill="white"/>
</mask>
<g mask="url(#mask2)">
<path d="M54.9599 133.418C54.4491 133.298 52.0928 132.066 50.9784 131.465C49.0628 132.029 47.6354 134.019 46.5461 136.01C46.5837 136.461 50.9136 136.901 51.3916 136.311C52.0302 135.522 53.1946 133.907 54.9599 133.418Z" fill="#32373F"/>
<path d="M56.6882 134.513C57.2753 134.513 57.422 134.084 57.422 133.869C57.4645 134.538 57.4539 135.976 57.071 136.37C56.5925 136.862 52.6612 136.597 52.1826 136.37C51.704 136.143 53.5864 134.558 54.0012 134.861C54.416 135.164 54.742 135.461 55.2525 135.006C55.763 134.551 55.9544 134.513 56.6882 134.513Z" fill="#32373F"/>
<path d="M57.0259 134.282C57.0559 133.832 57.6894 133.557 57.7771 133.57L59.0166 133.645L58.8664 135.899L57.2888 136.8C56.9883 136.788 55.0727 136.461 56.2746 136.461C56.8381 136.461 56.9507 136.237 57.2888 135.899C57.6269 135.56 56.9883 134.846 57.0259 134.282Z" fill="#C8D1DC"/>
<path d="M51.212 129.355C51.1219 128.814 50.9491 128.479 50.874 128.378L51.0241 128.003H51.8881C52.2888 128.354 52.9624 129.213 52.4515 129.844C51.813 130.632 51.3247 130.031 51.212 129.355Z" fill="#C8D1DC"/>
</g>
<path d="M29.3963 135.986C29.262 135.684 29.3586 135.01 29.4338 134.896C29.509 134.784 38.6367 134.07 38.6367 134.07C40.1517 133.958 42.9742 133.969 43.1818 134.784C43.7076 136.85 42.2799 136.85 41.0779 136.85C39.4252 136.85 39.2291 136.412 38.1485 136.55C37.5851 136.621 36.7586 137 32.9649 137C29.9222 137 29.6968 136.662 29.3963 135.986Z" fill="#C9D1DC"/>
<path d="M38.8243 130.895C40.3568 130.865 40.8652 129.881 40.9277 129.393H41.7165C41.7916 129.505 42.0357 129.768 42.2047 130.557C42.4301 131.609 42.8058 131.797 43.0312 132.773C43.1872 133.449 43.2189 134.464 42.8434 135.027C42.26 135.902 41.5287 135.816 40.2892 135.816C39.5755 135.816 38.3735 135.628 37.2842 135.929C35.7634 136.348 31.5749 136.567 30.523 136.229C28.7307 135.653 29.2835 133.975 30.0347 133.337C31.353 132.216 33.8995 132.293 34.5422 131.421C35.068 130.707 35.3672 128.985 35.7441 128.567C36.4203 127.815 36.8796 128.477 36.7583 129.205C36.6082 130.107 36.9087 130.933 38.8243 130.895Z" fill="#3B434E"/>
<mask id="mask3" mask-type="alpha" maskUnits="userSpaceOnUse" x="29" y="128" width="15" height="9">
<path fill-rule="evenodd" clip-rule="evenodd" d="M38.8243 130.895C40.3568 130.865 40.8652 129.881 40.9277 129.393H41.7165C41.7916 129.505 42.0357 129.768 42.2047 130.557C42.4301 131.609 42.8058 131.797 43.0312 132.773C43.1872 133.449 43.2189 134.464 42.8434 135.027C42.26 135.902 41.5287 135.816 40.2892 135.816C39.5755 135.816 38.3735 135.628 37.2842 135.929C35.7634 136.348 31.5749 136.567 30.523 136.229C28.7307 135.653 29.2835 133.975 30.0347 133.337C31.353 132.216 33.8995 132.293 34.5422 131.421C35.068 130.707 35.3672 128.985 35.7441 128.567C36.4203 127.815 36.8796 128.477 36.7583 129.205C36.6082 130.107 36.9087 130.933 38.8243 130.895Z" fill="white"/>
</mask>
<g mask="url(#mask3)">
<path d="M32.5595 133.418C33.0704 133.298 35.4267 132.066 36.5411 131.465C38.4567 132.029 39.8841 134.019 40.9734 136.01C40.9358 136.461 36.6059 136.901 36.1279 136.311C35.4893 135.522 34.3249 133.907 32.5595 133.418Z" fill="#32373F"/>
<path d="M30.8313 134.513C30.2442 134.513 30.0975 134.084 30.0975 133.869C30.0549 134.538 30.0656 135.976 30.4484 136.37C30.927 136.862 34.8583 136.597 35.3369 136.37C35.8155 136.143 33.9331 134.558 33.5183 134.861C33.1035 135.164 32.7775 135.461 32.267 135.006C31.7565 134.551 31.5651 134.513 30.8313 134.513Z" fill="#32373F"/>
<path d="M30.4936 134.282C30.4636 133.832 29.8301 133.557 29.7424 133.57L28.5029 133.645L28.6531 135.899L30.2307 136.8C30.5312 136.788 32.4469 136.461 31.2449 136.461C30.6814 136.461 30.5688 136.237 30.2307 135.899C29.8927 135.56 30.5312 134.846 30.4936 134.282Z" fill="#C8D1DC"/>
<path d="M36.3074 129.355C36.3977 128.814 36.5704 128.479 36.6455 128.378L36.4954 128.003H35.6314C35.2307 128.354 34.5571 129.213 35.0679 129.844C35.7065 130.632 36.1948 130.031 36.3074 129.355Z" fill="#C8D1DC"/>
</g>
<path d="M57.8115 78.3436C56.2422 75.0464 52.2475 73.7133 49.0126 75.4074C45.7293 77.1268 44.5723 81.2566 46.4848 84.4316L52.423 94.2899L61.7316 88.5594L60.2172 83.3983L57.8115 78.3436Z" fill="#294763"/>
<path d="M55.5433 81.6477C55.6049 77.4799 52.2821 74.0483 48.1145 73.9756L43.5936 73.8967C39.3658 73.8229 35.8991 77.2304 35.9001 81.4589L35.9026 92.0672L35.9072 103.96C35.9072 103.96 42.3063 105.185 46.2169 105.184C50.1275 105.183 55.7966 103.968 55.7966 103.968L55.3892 92.0717L55.5433 81.6477Z" fill="#2E5880"/>
<path d="M32.8578 84.9977C31.724 89.2496 31.2102 92.5361 31.3086 95.6613C31.4222 99.2713 32.3823 102.586 34.328 105.873C35.0108 107.027 36.4996 107.408 37.6531 106.725C38.8067 106.042 39.1883 104.554 38.5054 103.4C36.9775 100.819 36.2487 98.3025 36.1607 95.5086C36.0798 92.9371 36.526 90.0827 37.5484 86.2485C37.8938 84.9532 37.1237 83.6232 35.8285 83.2778C34.5332 82.9324 33.2032 83.7024 32.8578 84.9977Z" fill="#EBBAAA"/>
<path d="M45.9131 80.3613C43.5329 80.3197 41.6371 78.3565 41.6786 75.9763C41.7202 73.5961 43.6834 71.7003 46.0636 71.7418C48.4438 71.7834 50.3396 73.7466 50.2981 76.1268C50.2565 78.507 48.2933 80.4028 45.9131 80.3613Z" fill="#294763"/>
<path d="M35.7335 76.5397C37.9581 74.1281 39.9017 74.2044 41.0689 75.0145C42.4888 76.0001 40.5295 78.7458 40.5295 78.7458C43.0012 81.2856 45.6545 86.831 42.6531 88.9263L36.4917 91.489L29 88.9263C29 88.9263 30.8027 81.885 35.7335 76.5397Z" fill="#2E5880"/>
<path d="M53.0029 104.165C53.0029 105.16 53.6705 106.226 54.9223 107.402L55.9379 106.321L55.8718 106.259L55.8073 106.196C54.9153 105.332 54.4862 104.626 54.4862 104.165H53.0029Z" fill="#998B6E"/>
<path d="M34.7305 106.255C35.2699 106.147 37.7196 104.592 38.7084 104.03C39.4501 105.243 41.6211 105.985 41.6751 106.255C41.7425 106.592 36.3012 112.452 35.9441 111.649C35.4046 110.435 34.0563 106.39 34.7305 106.255Z" fill="#C4B493"/>
<path d="M34.8191 107.839C36.3761 107.347 38.0042 106.322 39.5701 104.757L38.5212 103.708C37.1184 105.11 35.694 106.007 34.3724 106.424L34.8191 107.839Z" fill="#998B6E"/>
<rect width="5.3939" height="8.56281" rx="2.69695" transform="matrix(-1 0 0 1 48.6204 70.1831)" fill="#EBBAAA"/>
<path d="M36.1621 65.3362C33.8923 65.3362 32.0524 63.4962 32.0524 61.2264C32.0524 58.9567 33.8923 57.1167 36.1621 57.1167C38.4318 57.1167 40.2718 58.9567 40.2718 61.2264C40.2718 63.4962 38.4318 65.3362 36.1621 65.3362Z" fill="#EBBAAA"/>
<path d="M55.3065 65.5441C57.5762 65.5441 59.4162 63.7041 59.4162 61.4344C59.4162 59.1647 57.5762 57.3247 55.3065 57.3247C53.0368 57.3247 51.1968 59.1647 51.1968 61.4344C51.1968 63.7041 53.0368 65.5441 55.3065 65.5441Z" fill="#EBBAAA"/>
<path d="M56.6367 54.1003C56.6367 48.2217 51.8712 43.4562 45.9926 43.4562C40.1141 43.4562 35.3485 48.2217 35.3485 54.1003V59.1276L35.5194 64.6453C35.6947 70.3032 40.332 74.7991 45.9926 74.7991C51.4615 74.7991 55.9807 70.5324 56.2948 65.0725L56.6367 59.1276V54.1003Z" fill="#F4D4C9"/>
<path d="M41.4312 59.8557V61.0693C41.4312 61.5162 41.7935 61.8784 42.2403 61.8784C42.6871 61.8784 43.0494 61.5162 43.0494 61.0693V59.8557C43.0494 59.4088 42.6871 59.0466 42.2403 59.0466C41.7935 59.0466 41.4312 59.4088 41.4312 59.8557Z" fill="black"/>
<path d="M49.3872 59.8557V61.0693C49.3872 61.5162 49.7494 61.8784 50.1963 61.8784C50.6431 61.8784 51.0054 61.5162 51.0054 61.0693V59.8557C51.0054 59.4088 50.6431 59.0466 50.1963 59.0466C49.7494 59.0466 49.3872 59.4088 49.3872 59.8557Z" fill="black"/>
<path d="M45.3518 59.9805C45.5597 59.1577 44.9636 58.3452 44.1154 58.2954L39.313 58.0132C38.4648 57.9634 37.7873 58.7011 37.908 59.5431L38.2097 61.6484C38.3012 62.2867 38.8305 62.774 39.4735 62.8117L43.4542 63.0456C44.0972 63.0834 44.6742 62.6611 44.8318 62.0374L45.3518 59.9805Z" fill="white" fill-opacity="0.29"/>
<path d="M54.3538 59.498C54.4605 58.6538 53.7709 57.9286 52.9238 57.9942L48.1265 58.3657C47.2795 58.4313 46.6969 59.255 46.9185 60.0738L47.4725 62.1205C47.6405 62.7412 48.2243 63.1527 48.8664 63.103L52.8431 62.795C53.4852 62.7453 54.0063 62.2482 54.0872 61.6083L54.3538 59.498Z" fill="white" fill-opacity="0.29"/>
<path d="M45.8404 60.9554C46.2651 61.7048 46.5935 62.5751 46.6382 63.2145C46.6853 63.8885 46.4691 64.1545 45.7126 64.1545V65.3333C47.192 65.3333 47.9066 64.454 47.8141 63.1323C47.7548 62.2837 47.3697 61.2629 46.866 60.3741L45.8404 60.9554Z" fill="#EBBAAA"/>
<path d="M38.6769 50.4944C38.8918 48.6905 39.0858 47.3952 39.2291 46.1926C39.3306 45.3408 39.3774 43.9908 36.9558 45.7757C34.5342 47.5606 33.6677 51.8866 34.3264 55.215L35.5218 59.8904L36.2695 59.7056L36.2499 54.6897C37.47 53.4615 38.462 52.2984 38.6769 50.4944Z" fill="#272727"/>
<path d="M55.3313 52.4186C55.2313 50.6049 55.4357 50.6983 55.369 49.4891C55.3217 48.6326 55.1596 47.1044 56.6885 48.6749C57.5324 49.5417 58.6101 55.238 57.5876 57.44L56.6886 59.6618L56.3476 59.6806L56.1936 56.8884C55.5908 54.9535 55.4314 54.2323 55.3313 52.4186Z" fill="#272727"/>
<path fill-rule="evenodd" clip-rule="evenodd" d="M45.8585 42.0001V42C45.8636 42 45.8686 42 45.8736 42C45.8786 42 45.8837 42 45.8887 42L45.8888 42.0001C49.0928 42.0114 57.5118 44.0112 57.0528 52.3321C56.2009 51.2846 54.8852 50.8277 53.7166 50.1442C51.2565 48.7052 49.2478 48.1784 46.5823 48.1784C44.292 48.1784 41.4827 48.7087 39.5853 49.6381C37.888 50.4694 36.1117 51.093 34.4529 52.3321C34.7412 43.8284 42.6546 42.0114 45.8585 42.0001Z" fill="#272727"/>
<path d="M38.2235 44.1601L39.6172 44.0667L36.7568 50.249L35.7859 58.0307L34.7486 57.6996L34.7694 57.1279L34.3758 56.9888L34.6072 56.3335L33.9988 56.1186L34.2965 55.2761L33.8974 54.9245L34.1619 54.1756L33.8538 53.5667L34.2697 52.845L34.0661 52.5098L34.3472 51.7141L34.0251 51.6003L34.7275 50.6377L34.5046 50.243L34.9921 49.8888L34.8353 49.3069L35.4716 48.5314L35.3479 47.856L35.885 47.3613L36.0338 46.9401L36.4855 46.5732L36.2652 46.2848L37.1548 45.7041L37.1935 45.1387L38.1311 44.7066L38.2235 44.1601Z" fill="#272727"/>
<path d="M41.1615 49.8095L40.6895 48.5959L37.6891 49.8095L39.6107 50.3489V49.6073L41.1615 49.8095Z" fill="#272727"/>
<path d="M46.2326 50.4101C43.4682 49.129 41.181 48.6658 39.9791 47.9724C41.1758 46.1624 44.1117 46.3535 45.2211 47.2411C45.6959 47.8605 46.8114 49.0231 46.2326 50.4101Z" fill="#272727"/>
<path d="M47.9714 50.6186C45.1733 48.6971 43.6673 49.0587 42.4653 48.3653C43.6621 46.5553 46.8618 46.9667 47.9714 47.8543C48.4461 48.4737 49.1176 49.3376 47.9714 50.6186Z" fill="#272727"/>
<path d="M49.2352 50.8032C45.5254 48.6536 43.9189 49.347 42.717 48.6536C43.5491 48.2838 41.7461 45.6412 47.675 46.92C49.4432 47.3014 49.8139 49.4164 49.2352 50.8032Z" fill="#272727"/>
<path d="M51.2921 51.2439C48.7957 49.7184 47.6494 49.4056 46.4474 48.7122C47.2796 48.3424 49.4398 47.3092 50.5494 48.1968C51.0241 48.8162 51.8709 49.857 51.2921 51.2439Z" fill="#272727"/>
<path d="M53.8201 51.6798C50.1103 49.5301 47.8923 49.087 46.6903 48.3936C47.5225 48.0238 46.3311 46.5177 52.2599 47.7965C54.0281 48.1779 54.3989 50.2929 53.8201 51.6798Z" fill="#272727"/>
<path d="M55.6333 52.8011C52.3632 50.1378 52.4189 48.4715 51.217 47.7781C52.0491 47.4082 53.7455 46.6655 55.195 48.5197C56.9632 48.9011 56.2121 51.4142 55.6333 52.8011Z" fill="#272727"/>
<path fill-rule="evenodd" clip-rule="evenodd" d="M48.6117 66.9085V67.8434C48.6117 69.2795 47.4475 70.4438 46.0114 70.4438C44.5752 70.4438 43.411 69.2795 43.411 67.8434V66.9085H48.6117Z" fill="#393939"/>
<mask id="mask4" mask-type="alpha" maskUnits="userSpaceOnUse" x="43" y="66" width="6" height="5">
<path fill-rule="evenodd" clip-rule="evenodd" d="M48.5774 66.4632C48.6 66.6011 48.6117 66.7427 48.6117 66.8871V67.8434C48.6117 69.2795 47.4475 70.4437 46.0114 70.4437C44.5752 70.4437 43.411 69.2795 43.411 67.8434V66.8871C43.411 66.7427 43.4228 66.6011 43.4454 66.4632H48.5774Z" fill="white"/>
</mask>
<g mask="url(#mask4)">
<path d="M45.8728 71.3586C45.0068 71.3586 44.3047 70.9763 44.3047 70.5046C44.3047 70.0329 45.0068 69.6506 45.8728 69.6506C46.7389 69.6506 47.441 70.0329 47.441 70.5046C47.441 70.9763 46.7389 71.3586 45.8728 71.3586Z" fill="#FF6C6C"/>
<rect width="5.20071" height="1.07251" transform="matrix(-1 0 0 1 48.6118 66.7735)" fill="white"/>
</g>
<path d="M169.814 132.819C169.905 131.821 170.749 131.088 171.7 131.183C172.642 131.277 173.335 132.147 173.261 133.132L173.259 133.162L172.458 142.003C172.367 143.001 171.523 143.734 170.572 143.639C169.63 143.545 168.937 142.675 169.011 141.69L169.013 141.66L169.814 132.819Z" fill="#EBBAAA"/>
<path d="M163.3 131.183C164.241 131.089 165.078 131.806 165.183 132.789L165.186 132.819L165.987 141.66C166.077 142.658 165.379 143.544 164.428 143.639C163.486 143.733 162.65 143.016 162.545 142.033L162.542 142.003L161.741 133.162C161.651 132.164 162.349 131.278 163.3 131.183Z" fill="#EBBAAA"/>
<path d="M167.5 116.754C171.569 116.754 174.868 115.173 174.868 113.224C174.868 111.275 171.569 109.694 167.5 109.694C163.431 109.694 160.132 111.275 160.132 113.224C160.132 115.173 163.431 116.754 167.5 116.754Z" fill="#667A8C"/>
<path d="M176.406 109.829H168.077V139.142L171.729 139.815L174.11 139.142L176.406 109.829Z" fill="#667A8C"/>
<path d="M176.47 109.829H172.626L171.729 139.815L174.099 139.176L176.47 109.829Z" fill="#7D92A4"/>
<path d="M158.594 109.829H166.923V139.142L163.271 139.815L160.89 139.142L158.594 109.829Z" fill="#667A8C"/>
<path d="M158.53 109.829H162.374L163.271 139.815L160.9 139.176L158.53 109.829Z" fill="#7D92A4"/>
<path d="M179.93 144.62C179.93 142.568 178.667 142.318 176.609 141.615C175.601 141.271 174.572 140.971 173.529 140.79C172.873 140.677 172.696 141.279 171.544 141.279C170.516 141.279 169.234 140.747 168.969 140.632C168.936 140.618 168.896 140.605 168.87 140.631C168.863 140.637 168.858 140.644 168.854 140.653C168.731 140.916 168.087 142.351 168.087 143.5C168.087 144.378 168.015 145.242 168.247 145.689C168.352 145.89 169.006 146 169.226 146H179.574C179.771 146 179.93 144.825 179.93 144.62Z" fill="#E0E2E4"/>
<mask id="mask5" mask-type="alpha" maskUnits="userSpaceOnUse" x="168" y="140" width="12" height="6">
<path fill-rule="evenodd" clip-rule="evenodd" d="M179.93 144.62C179.93 143.568 179.598 142.989 178.997 142.581C176.125 140.629 172.403 140.542 168.983 140.41C168.956 140.41 168.866 140.627 168.854 140.653C168.731 140.916 168.087 142.351 168.087 143.5C168.087 144.378 168.015 145.242 168.247 145.689C168.352 145.89 169.006 146 169.226 146H179.574C179.771 146 179.93 144.825 179.93 144.62Z" fill="white"/>
</mask>
<g mask="url(#mask5)">
<path d="M178.426 143.217C179.418 143.217 179.695 142.616 179.802 142.515C179.994 142.749 179.834 143.691 179.962 144.119C180.09 144.546 179.909 144.965 179.802 145.121L170.872 145.556C170.818 144.664 170.744 142.882 170.872 142.882C171.032 142.882 172.056 141.446 172.6 141.413C173.036 141.386 175.15 141.958 176.153 142.248C176.025 142.382 175.814 143.063 175.737 143.384C175.641 143.785 175.609 143.785 175.961 143.885C176.313 143.985 176.377 143.217 176.761 143.217H178.426Z" fill="#C2C6CA"/>
<path d="M171.64 142.916C171.486 142.648 169.015 142.27 168.023 142.148L167.575 145.02L172.568 145.322C172.323 144.631 171.794 143.183 171.64 142.916Z" fill="#9EA5AC"/>
<path d="M170.488 141.011C169.719 140.958 169.079 140.522 168.823 140.276C168.567 140.544 167.933 141.279 168.087 141.546C168.279 141.88 169.751 142.148 170.392 142.148C171.032 142.148 171.448 141.079 170.488 141.011Z" fill="#C2C6CA"/>
<path d="M174.265 144.987C175.897 144.92 177.305 145.322 179.098 144.92C182.299 144.553 180.654 144.771 181.466 146.396H168.914C167.671 146.09 167.259 144.2 168.183 144.353C170.2 144.686 173.016 145.039 174.265 144.987Z" fill="#E0E2E4"/>
<path d="M167.703 144.92C168.138 145.108 174.041 145.121 174.233 144.988C173.785 144.887 170.487 144.497 169.752 144.453C168.631 144.386 168.205 144.297 167.703 144.319C167.522 144.453 167.268 144.733 167.703 144.92Z" fill="#F1F5F9"/>
</g>
<path d="M173.563 140.567C173.656 140.508 173.778 140.54 173.834 140.637C173.89 140.735 173.86 140.863 173.767 140.922L173.736 140.941C173.663 140.985 173.503 141.08 173.451 141.113C173.436 141.123 173.422 141.132 173.408 141.141L173.393 141.151L174.786 140.816C174.963 140.774 175.094 140.982 174.993 141.135L174.986 141.144L174.606 141.663L176.164 141.201C176.356 141.144 176.496 141.388 176.363 141.539L176.356 141.547L175.505 142.429C175.427 142.509 175.302 142.508 175.226 142.427C175.152 142.349 175.15 142.225 175.219 142.144L175.228 142.134L175.532 141.818L174.139 142.232C173.96 142.285 173.819 142.073 173.923 141.916L173.929 141.906L174.338 141.349L172.932 141.687C172.813 141.715 172.698 141.624 172.691 141.497L172.691 141.485C172.691 141.208 172.87 141.006 173.199 140.789L173.246 140.759C173.315 140.715 173.531 140.587 173.563 140.567Z" fill="#EBE5D9"/>
<path fill-rule="evenodd" clip-rule="evenodd" d="M173.132 139.912C173.142 139.315 173.52 138.873 174.019 138.873C174.265 138.873 174.465 138.981 174.604 139.178C174.737 139.367 174.808 139.632 174.808 139.936C174.808 140.217 174.647 140.471 174.374 140.661C174.131 140.829 173.82 140.931 173.559 140.931C173.434 140.931 173.341 140.907 173.28 140.862C173.218 140.819 173.178 140.752 173.155 140.661C173.135 140.582 173.127 140.486 173.127 140.348L173.127 140.318L173.131 140.051L173.132 139.912ZM174.286 139.424C174.222 139.332 174.139 139.288 174.019 139.288C173.744 139.288 173.527 139.545 173.527 139.936L173.526 140.003L173.522 140.283L173.522 140.369C173.522 140.414 173.524 140.451 173.526 140.481L173.529 140.508L173.53 140.516L173.536 140.516L173.559 140.517C173.741 140.517 173.977 140.44 174.156 140.316C174.328 140.196 174.413 140.062 174.413 139.936C174.413 139.715 174.365 139.536 174.286 139.424Z" fill="#EBE5D9"/>
<path fill-rule="evenodd" clip-rule="evenodd" d="M171.858 140.161C171.896 139.985 172.002 139.849 172.169 139.772C172.511 139.612 172.9 139.795 173.074 140.204L173.1 140.263L173.175 140.431L173.204 140.501C173.238 140.582 173.257 140.643 173.266 140.697C173.271 140.732 173.272 140.764 173.267 140.794L173.265 140.803L173.264 140.808L173.26 140.82L173.211 140.858L173.236 140.875C173.207 140.921 173.159 140.961 173.087 140.997L173.068 141.006C172.891 141.088 172.651 141.119 172.438 141.083C172.198 141.041 172.017 140.922 171.937 140.734C171.85 140.53 171.822 140.33 171.858 140.161ZM172.714 140.373L172.706 140.355C172.615 140.159 172.459 140.09 172.328 140.151C172.276 140.175 172.254 140.203 172.244 140.252C172.228 140.326 172.243 140.437 172.297 140.565C172.317 140.61 172.382 140.653 172.501 140.674C172.609 140.692 172.731 140.684 172.83 140.655L172.837 140.653L172.828 140.632L172.76 140.479C172.75 140.456 172.74 140.435 172.731 140.414L172.714 140.373Z" fill="#EBE5D9"/>
<path fill-rule="evenodd" clip-rule="evenodd" d="M173.149 141.861L173.914 142.22L173.403 142.967L174.326 142.406L175.089 142.785L174.133 144.674L173.404 144.314L173.943 143.414L172.894 144.06L172.157 143.752L173.149 141.861ZM173.719 142.275L173.204 142.034L172.339 143.683L172.883 143.91L174.331 143.019L173.589 144.257L174.077 144.498L174.913 142.846L174.332 142.558L172.95 143.398L173.719 142.275Z" fill="#E0E2E4"/>
<path d="M155.07 144.62C155.07 142.568 156.333 142.318 158.391 141.615C159.399 141.271 160.428 140.971 161.471 140.79C162.127 140.677 162.304 141.279 163.456 141.279C164.484 141.279 165.766 140.747 166.031 140.632C166.064 140.618 166.103 140.605 166.13 140.631C166.136 140.637 166.142 140.644 166.146 140.653C166.269 140.916 166.913 142.351 166.913 143.5C166.913 144.378 166.985 145.242 166.753 145.689C166.648 145.89 165.994 146 165.774 146H155.426C155.229 146 155.07 144.825 155.07 144.62Z" fill="#E0E2E4"/>
<mask id="mask6" mask-type="alpha" maskUnits="userSpaceOnUse" x="155" y="140" width="12" height="6">
<path fill-rule="evenodd" clip-rule="evenodd" d="M155.07 144.62C155.07 143.568 155.402 142.989 156.003 142.581C158.875 140.629 162.597 140.542 166.016 140.41C166.044 140.41 166.134 140.627 166.146 140.653C166.269 140.916 166.913 142.351 166.913 143.5C166.913 144.378 166.985 145.242 166.753 145.689C166.648 145.89 165.994 146 165.774 146H155.426C155.229 146 155.07 144.825 155.07 144.62Z" fill="white"/>
</mask>
<g mask="url(#mask6)">
<path d="M156.574 143.217C155.582 143.217 155.304 142.616 155.198 142.515C155.006 142.749 155.166 143.691 155.038 144.119C154.91 144.546 155.091 144.965 155.198 145.121L164.128 145.556C164.181 144.664 164.256 142.882 164.128 142.882C163.968 142.882 162.944 141.446 162.4 141.413C161.964 141.386 159.85 141.958 158.847 142.248C158.975 142.382 159.186 143.063 159.263 143.384C159.359 143.785 159.391 143.785 159.039 143.885C158.687 143.985 158.623 143.217 158.238 143.217H156.574Z" fill="#C2C6CA"/>
<path d="M163.36 142.916C163.513 142.648 165.984 142.27 166.977 142.148L167.425 145.02L162.432 145.322C162.677 144.631 163.206 143.183 163.36 142.916Z" fill="#9EA5AC"/>
<path d="M164.512 141.011C165.28 140.958 165.92 140.522 166.177 140.276C166.433 140.544 167.066 141.279 166.913 141.546C166.721 141.88 165.248 142.148 164.608 142.148C163.968 142.148 163.552 141.079 164.512 141.011Z" fill="#C2C6CA"/>
<path d="M160.735 144.987C159.103 144.92 157.694 145.322 155.902 144.92C152.701 144.553 154.346 144.771 153.533 146.396H166.086C167.329 146.09 167.741 144.2 166.817 144.353C164.8 144.686 161.984 145.039 160.735 144.987Z" fill="#E0E2E4"/>
<path d="M167.297 144.92C166.861 145.108 160.959 145.121 160.767 144.988C161.215 144.887 164.513 144.497 165.248 144.453C166.369 144.386 166.795 144.297 167.297 144.319C167.478 144.453 167.732 144.733 167.297 144.92Z" fill="#F1F5F9"/>
</g>
<path d="M161.166 140.637C161.222 140.54 161.344 140.508 161.437 140.567L161.493 140.601C161.571 140.648 161.703 140.727 161.753 140.759L161.8 140.789C162.13 141.006 162.309 141.208 162.309 141.485C162.309 141.614 162.198 141.71 162.079 141.689L162.067 141.687L160.661 141.349L161.071 141.906C161.184 142.061 161.049 142.278 160.871 142.235L160.86 142.232L159.468 141.818L159.772 142.134C159.847 142.211 159.851 142.335 159.783 142.417L159.774 142.427C159.701 142.505 159.583 142.509 159.505 142.438L159.495 142.429L158.644 141.547C158.501 141.4 158.635 141.152 158.826 141.198L158.836 141.201L160.394 141.663L160.014 141.144C159.903 140.994 160.028 140.782 160.203 140.814L160.214 140.816L161.607 141.151L161.571 141.127L161.532 141.102C161.454 141.054 161.268 140.944 161.233 140.922C161.14 140.863 161.11 140.735 161.166 140.637Z" fill="#EBE5D9"/>
<path fill-rule="evenodd" clip-rule="evenodd" d="M160.396 139.178C160.535 138.981 160.735 138.873 160.981 138.873C161.486 138.873 161.868 139.327 161.868 139.936L161.869 140.014L161.873 140.29L161.873 140.375C161.871 140.499 161.864 140.587 161.845 140.661C161.822 140.753 161.782 140.819 161.724 140.859C161.659 140.907 161.567 140.931 161.441 140.931C161.18 140.931 160.869 140.829 160.626 140.661C160.353 140.471 160.192 140.217 160.192 139.936C160.192 139.632 160.263 139.367 160.396 139.178ZM161.474 139.936C161.474 139.545 161.257 139.288 160.981 139.288C160.861 139.288 160.778 139.332 160.714 139.424C160.635 139.536 160.587 139.715 160.587 139.936C160.587 140.062 160.672 140.196 160.844 140.316C161.023 140.44 161.259 140.517 161.441 140.517L161.464 140.516L161.47 140.516L161.473 140.495C161.476 140.462 161.478 140.42 161.478 140.367L161.478 140.347L161.478 140.31L161.474 140.027L161.474 139.936Z" fill="#EBE5D9"/>
<path fill-rule="evenodd" clip-rule="evenodd" d="M161.818 140.448L161.897 140.271L161.935 140.184C162.113 139.789 162.495 139.615 162.831 139.772C162.998 139.849 163.104 139.985 163.141 140.161C163.178 140.33 163.15 140.53 163.063 140.734C162.982 140.922 162.802 141.041 162.562 141.083C162.349 141.119 162.109 141.088 161.933 141.006C161.849 140.968 161.796 140.925 161.764 140.875L161.783 140.862L161.744 140.833C161.739 140.82 161.737 140.814 161.736 140.807L161.734 140.796L161.731 140.778C161.729 140.758 161.73 140.736 161.732 140.714L161.734 140.696C161.744 140.638 161.766 140.571 161.805 140.479L161.818 140.448ZM162.286 140.373L162.278 140.393C162.269 140.413 162.26 140.433 162.251 140.454L162.194 140.582L162.163 140.653L162.17 140.656C162.262 140.682 162.374 140.691 162.475 140.677L162.498 140.674C162.618 140.653 162.683 140.61 162.702 140.565C162.757 140.437 162.772 140.326 162.756 140.252C162.746 140.203 162.724 140.175 162.671 140.15C162.537 140.088 162.375 140.164 162.286 140.373Z" fill="#EBE5D9"/>
<path fill-rule="evenodd" clip-rule="evenodd" d="M161.851 141.861L162.843 143.752L162.106 144.06L161.057 143.414L161.596 144.314L160.867 144.674L159.911 142.785L160.674 142.406L161.597 142.967L161.085 142.22L161.851 141.861ZM162.661 143.683L161.796 142.034L161.281 142.275L162.05 143.399L160.668 142.558L160.087 142.846L160.923 144.498L161.411 144.257L160.67 143.019L162.117 143.91L162.661 143.683Z" fill="#E0E2E4"/>
<path d="M158.003 87.966C158.646 86.7694 160.092 86.3465 161.232 87.0216C162.373 87.6966 162.776 89.2138 162.132 90.4104C160.953 92.604 159.719 96.676 158.9 100.956L158.86 101.164C158.503 103.066 158.256 104.873 158.149 106.362L158.143 106.443C158.091 107.204 158.077 107.86 158.101 108.38L158.105 108.467C158.116 108.652 158.131 108.813 158.15 108.947L158.16 109.015C158.175 109.105 158.189 109.162 158.195 109.18C158.642 110.471 158.008 111.899 156.777 112.368C155.547 112.838 154.186 112.172 153.739 110.881C153.043 108.873 153.322 104.834 154.251 99.9768C155.16 95.2274 156.532 90.7026 158.003 87.966Z" fill="#EBBAAA"/>
<path d="M173.768 87.0216C174.908 86.3465 176.354 86.7694 176.997 87.966C178.468 90.7026 179.84 95.2274 180.749 99.9768C181.678 104.834 181.957 108.873 181.261 110.881C180.814 112.172 179.453 112.838 178.223 112.368C177.005 111.903 176.37 110.5 176.792 109.219L176.805 109.18C176.812 109.16 176.829 109.089 176.845 108.977C176.869 108.818 176.888 108.617 176.899 108.38L176.903 108.284C176.921 107.78 176.906 107.158 176.857 106.443L176.845 106.28C176.733 104.78 176.481 102.966 176.12 101.06L176.1 100.956C175.281 96.676 174.047 92.604 172.868 90.4104C172.224 89.2138 172.627 87.6966 173.768 87.0216Z" fill="#EBBAAA"/>
<rect width="10.3121" height="24.0735" rx="5.15604" transform="matrix(-0.934187 0.356785 0.327709 0.944779 177.111 81.4565)" fill="#373434"/>
<rect width="10.3121" height="24.0735" rx="5.15604" transform="matrix(0.934186 0.356785 -0.327709 0.944779 157.889 81.4565)" fill="#373434"/>
<path d="M158.028 86.9418C157.948 85.2616 159.065 83.7783 160.641 83.4701L167.5 82.1288L174.359 83.4701C175.935 83.7783 177.051 85.2616 176.972 86.9418L176.47 97.5251L177.082 112.152C177.098 112.535 176.806 112.854 176.441 112.854H158.558C158.194 112.854 157.902 112.535 157.918 112.152L158.53 97.5251L158.028 86.9418Z" fill="#373434"/>
<path d="M164.937 82.9356C164.937 81.4503 166.084 80.2463 167.5 80.2463C168.915 80.2463 170.063 81.4503 170.063 82.9356V83.2718C170.063 84.757 168.915 85.9611 167.5 85.9611C166.084 85.9611 164.937 84.757 164.937 83.2718V82.9356Z" fill="#EBBAAA"/>
<rect x="164.937" y="72.8507" width="5.12583" height="13.1104" rx="2.56291" fill="#EBBAAA"/>
<path opacity="0.5" d="M176.983 71.8422C178.398 71.8422 179.546 70.6382 179.546 69.1529C179.546 67.6677 178.398 66.4636 176.983 66.4636C175.567 66.4636 174.42 67.6677 174.42 69.1529C174.42 70.6382 175.567 71.8422 176.983 71.8422Z" fill="#DE8E7C"/>
<path opacity="0.5" d="M157.761 71.8422C156.345 71.8422 155.198 70.6382 155.198 69.1529C155.198 67.6677 156.345 66.4636 157.761 66.4636C159.176 66.4636 160.324 67.6677 160.324 69.1529C160.324 70.6382 159.176 71.8422 157.761 71.8422Z" fill="#DE8E7C"/>
<path d="M157.889 62.5641C157.889 56.9943 162.192 52.4791 167.5 52.4791C172.808 52.4791 177.111 56.9943 177.111 62.5641V70.632C177.111 76.2018 172.808 80.7169 167.5 80.7169C162.192 80.7169 157.889 76.2018 157.889 70.632V62.5641Z" fill="#F4D5CC"/>
<path d="M173.743 62.935C174.061 62.9142 174.335 63.1677 174.355 63.5012C174.374 63.8287 174.142 64.1116 173.832 64.1415L173.815 64.1429L170.227 64.3782C169.909 64.399 169.635 64.1455 169.615 63.812C169.596 63.4845 169.828 63.2017 170.138 63.1718L170.155 63.1704L173.743 62.935Z" fill="#393939"/>
<path d="M160.389 63.5012C160.408 63.1737 160.673 62.9234 160.983 62.9342L161 62.935L164.589 63.1704C164.906 63.1912 165.148 63.4785 165.128 63.812C165.109 64.1395 164.844 64.3898 164.534 64.3791L164.517 64.3782L160.929 64.1429C160.611 64.122 160.369 63.8347 160.389 63.5012Z" fill="#393939"/>
<path fill-rule="evenodd" clip-rule="evenodd" d="M169.614 65.1862H173.779C174.345 65.1862 174.804 65.6678 174.804 66.2619V68.0099C174.804 69.3467 173.772 70.4303 172.498 70.4303H170.896C169.622 70.4303 168.589 69.3467 168.589 68.0099V66.2619C168.589 65.6678 169.048 65.1862 169.614 65.1862ZM173.779 65.9929H169.614C169.473 65.9929 169.358 66.1133 169.358 66.2619V68.0099C169.358 68.9011 170.047 69.6235 170.896 69.6235H172.498C173.347 69.6235 174.035 68.9011 174.035 68.0099V66.2619C174.035 66.1133 173.921 65.9929 173.779 65.9929Z" fill="#FCEBE6"/>
<path fill-rule="evenodd" clip-rule="evenodd" d="M160.964 65.1862H165.129C165.695 65.1862 166.154 65.6678 166.154 66.2619V68.0099C166.154 69.3467 165.122 70.4303 163.848 70.4303H162.246C160.972 70.4303 159.939 69.3467 159.939 68.0099V66.2619C159.939 65.6678 160.398 65.1862 160.964 65.1862ZM165.129 65.9929H160.965C160.823 65.9929 160.708 66.1133 160.708 66.2619V68.0099C160.708 68.9011 161.397 69.6235 162.246 69.6235H163.848C164.697 69.6235 165.386 68.9011 165.386 68.0099V66.2619C165.386 66.1133 165.271 65.9929 165.129 65.9929Z" fill="#FCEBE6"/>
<rect x="165.77" y="66.2618" width="3.20364" height="0.672328" fill="#F9EAE6"/>
<path d="M171.537 66.2618C171.955 66.2618 172.295 66.612 172.305 67.0481L172.305 67.0686V67.8754C172.305 68.321 171.961 68.6822 171.537 68.6822C171.118 68.6822 170.778 68.332 170.768 67.8959L170.768 67.8754V67.0686C170.768 66.6231 171.112 66.2618 171.537 66.2618Z" fill="black"/>
<path d="M163.239 66.2618C163.657 66.2618 163.997 66.612 164.008 67.0481L164.008 67.0686V67.8754C164.008 68.321 163.664 68.6822 163.239 68.6822C162.821 68.6822 162.481 68.332 162.471 67.8959L162.47 67.8754V67.0686C162.47 66.6231 162.815 66.2618 163.239 66.2618Z" fill="black"/>
<path d="M169.687 74.8904C169.923 74.747 170.225 74.8314 170.362 75.0787C170.498 75.3261 170.418 75.6428 170.182 75.7862L170.15 75.8046C170.141 75.8101 170.13 75.8162 170.117 75.8229C170.073 75.8466 170.023 75.8724 169.965 75.8996C169.805 75.975 169.619 76.0495 169.408 76.1183C168.815 76.312 168.133 76.4274 167.372 76.4274C166.61 76.4274 165.928 76.312 165.335 76.1183C165.124 76.0495 164.938 75.975 164.779 75.8996C164.73 75.8769 164.687 75.8552 164.649 75.8349L164.626 75.8229C164.597 75.8073 164.576 75.7948 164.561 75.7862C164.326 75.6428 164.245 75.3261 164.382 75.0787C164.516 74.8365 164.808 74.7506 165.041 74.8817L165.07 74.8982C165.089 74.9089 165.122 74.9262 165.169 74.9486L165.183 74.9555C165.307 75.014 165.456 75.0735 165.628 75.1297C166.129 75.2933 166.713 75.3921 167.372 75.3921C168.031 75.3921 168.614 75.2933 169.115 75.1297C169.273 75.0782 169.411 75.0239 169.529 74.9702L169.56 74.9555C169.615 74.9298 169.653 74.9099 169.674 74.8982L169.687 74.8904Z" fill="#C99584"/>
<path d="M177.302 60.1764C177.317 59.7548 177.026 59.4042 176.662 59.4042C176.285 59.4042 175.989 59.7803 176.025 60.2157L176.628 70.2806C176.638 70.4039 176.727 70.4976 176.834 70.4976C176.945 70.4976 177.036 70.3963 177.041 70.2682L177.302 60.1764Z" fill="#6E6C6C"/>
<path d="M158.721 60.1764C158.736 59.7548 158.445 59.4042 158.081 59.4042C157.703 59.4042 157.408 59.7803 157.443 60.2157L158.047 70.2806C158.057 70.4039 158.146 70.4976 158.252 70.4976C158.364 70.4976 158.455 70.3963 158.46 70.2682L158.721 60.1764Z" fill="#6E6C6C"/>
<path d="M167.528 51.3681C169.242 50.5533 172.829 51.0122 174.029 53.5424C176.106 53.5424 178.085 55.7154 177.566 58.3899C178.562 59.2174 178.89 60.9295 178.008 62.0842L177.981 62.119C177.065 63.274 177.167 64.4811 176.333 63.2709C175.865 62.3944 175.389 61.6909 174.88 61.1265L174.866 61.2632C174.835 61.5634 174.806 61.8888 174.781 62.2436L174.695 62.1234C173.319 60.1943 172.843 59.9627 170.946 59.813C170.317 60.3596 170.533 61.4812 171.859 62.0974C170.444 62.0974 167.46 61.4812 167.544 59.9658L167.509 59.985C166.941 60.2924 166.312 60.2889 166.312 61.8597C165.185 60.5487 163.066 58.8767 160.781 60.6876C159.317 61.848 158.911 62.8085 158.572 65.0189L158.562 65.0862L157.798 63.4539C157.628 63.1424 157.427 62.6454 157.046 62.1534L157.019 62.119C156.103 60.9642 156.428 59.2257 157.434 58.3899C156.914 55.7154 158.894 53.5424 160.971 53.5424C162.177 50.9984 165.797 50.5483 167.5 51.3816L167.528 51.3681Z" fill="#393939"/>
<path d="M166.919 68.1635L167.825 68.7975C167.517 69.2823 167.276 70.0101 167.276 70.5395C167.276 71.0499 167.451 71.2645 167.989 71.2705L168.012 71.2707V72.4136C166.824 72.4136 166.186 71.6605 166.186 70.5395C166.186 69.7801 166.487 68.8583 166.896 68.1992L166.919 68.1635Z" fill="#EBBAAA"/>
</svg>
